<?xml version="1.0" encoding="utf-8"?>
<!-- Generator: Adobe Illustrator 16.0.0, SVG Export Plug-In . SVG Version: 6.00 Build 0)  -->
<!DOCTYPE svg PUBLIC "-//W3C//DTD SVG 1.1//EN" "http://www.w3.org/Graphics/SVG/1.1/DTD/svg11.dtd">
<svg version="1.1" id="图层_1" xmlns="http://www.w3.org/2000/svg" xmlns:xlink="http://www.w3.org/1999/xlink" x="0px" y="0px"
	 width="1200px" height="1200px" viewBox="0 0 1200 1200" enable-background="new 0 0 1200 1200" xml:space="preserve">
<g>
	<g>
		<polygon fill="#C0DDF4" points="-1,601.271 148.682,750.951 148.682,601.271 		"/>
		<polygon fill="#FDE3B3" points="148.682,451.593 -1,601.271 148.682,601.271 		"/>
		<polygon fill="#FEF2DA" points="148.682,601.271 298.364,601.271 148.682,451.593 		"/>
		<polygon fill="#EF845D" points="148.682,750.951 298.364,601.271 148.682,601.271 		"/>
	</g>
	<g>
		<polygon fill="#C0DDF4" points="148.682,451.593 298.364,601.271 298.364,451.59 		"/>
		<polygon fill="#9BCAED" points="298.364,301.908 148.682,451.593 298.364,451.59 		"/>
		<polygon fill="#FEF4EC" points="298.364,451.59 448.046,451.587 298.364,301.908 		"/>
		<polygon fill="#FFF67F" points="298.364,601.271 448.046,451.587 298.364,451.59 		"/>
	</g>
	<g>
		<polygon fill="#C0DDF4" points="148.682,750.951 298.364,900.639 298.364,750.957 		"/>
		<polygon fill="#FFF9B1" points="298.364,601.271 148.682,750.951 298.364,750.957 		"/>
		<polygon fill="#E7F2FB" points="298.364,750.957 448.046,750.957 298.364,601.271 		"/>
		<polygon fill="#FCD489" points="298.364,900.639 448.046,750.957 298.364,750.957 		"/>
	</g>
	<g>
		<polygon fill="#C0DDF4" points="298.364,601.271 448.046,750.957 448.046,601.271 		"/>
		<polygon fill="#F5B090" points="448.046,451.587 298.364,601.271 448.046,601.271 		"/>
		<polygon fill="#FFFEF2" points="448.046,601.271 597.729,601.271 448.046,451.587 		"/>
		<polygon fill="#6FB8E7" points="448.046,750.957 597.729,601.271 448.046,601.271 		"/>
	</g>
</g>
<g>
	<g>
		<polygon fill="#C0DDF4" points="597.274,3 746.957,152.68 597.274,152.682 		"/>
		<polygon fill="#FDE3B3" points="447.593,152.68 597.274,3 597.274,152.682 		"/>
		<polygon fill="#FEF2DA" points="597.274,152.682 597.274,302.358 447.593,152.68 		"/>
		<polygon fill="#EF845D" points="746.957,152.68 597.274,302.358 597.274,152.682 		"/>
	</g>
	<g>
		<polygon fill="#C0DDF4" points="447.593,152.68 597.274,302.358 447.593,302.361 		"/>
		<polygon fill="#9BCAED" points="297.91,302.364 447.593,152.68 447.593,302.361 		"/>
		<polygon fill="#FEF4EC" points="447.593,302.361 447.593,452.043 297.91,302.364 		"/>
		<polygon fill="#FFF67F" points="597.274,302.358 447.593,452.043 447.593,302.361 		"/>
	</g>
	<g>
		<polygon fill="#C0DDF4" points="746.957,152.68 896.639,302.364 746.957,302.364 		"/>
		<polygon fill="#FFF9B1" points="597.274,302.358 746.957,152.68 746.957,302.364 		"/>
		<polygon fill="#E7F2FB" points="746.957,302.364 746.957,452.043 597.274,302.358 		"/>
		<polygon fill="#FCD489" points="896.639,302.364 746.957,452.043 746.957,302.364 		"/>
	</g>
	<g>
		<polygon fill="#C0DDF4" points="597.274,302.358 746.957,452.043 597.274,452.043 		"/>
		<polygon fill="#F5B090" points="447.593,452.043 597.274,302.358 597.274,452.043 		"/>
		<polygon fill="#FFFEF2" points="597.274,452.043 597.274,601.729 447.593,452.043 		"/>
		<polygon fill="#6FB8E7" points="746.957,452.043 597.274,601.729 597.274,452.043 		"/>
	</g>
</g>
<g>
	<g>
		<g>
			<polygon fill="#C0DDF4" points="597.726,1200 448.043,1050.313 597.726,1050.317 			"/>
			<polygon fill="#FDE3B3" points="747.407,1050.317 597.726,1200 597.726,1050.317 			"/>
			<polygon fill="#FEF2DA" points="597.726,1050.317 597.726,900.636 747.407,1050.317 			"/>
			<polygon fill="#EF845D" points="448.043,1050.313 597.726,900.636 597.726,1050.317 			"/>
		</g>
		<g>
			<polygon fill="#C0DDF4" points="747.407,1050.317 597.726,900.636 747.407,900.636 			"/>
			<polygon fill="#9BCAED" points="897.089,900.636 747.407,1050.317 747.407,900.636 			"/>
			<polygon fill="#FEF4EC" points="747.407,900.636 747.407,750.948 897.089,900.636 			"/>
			<polygon fill="#FFF67F" points="597.726,900.636 747.407,750.948 747.407,900.636 			"/>
		</g>
		<g>
			<polygon fill="#C0DDF4" points="448.043,1050.313 298.361,900.636 448.043,900.636 			"/>
			<polygon fill="#FFF9B1" points="597.726,900.636 448.043,1050.313 448.043,900.636 			"/>
			<polygon fill="#E7F2FB" points="448.043,900.636 448.043,750.954 597.726,900.636 			"/>
			<polygon fill="#FCD489" points="298.361,900.636 448.043,750.954 448.043,900.636 			"/>
		</g>
		<g>
			<polygon fill="#C0DDF4" points="597.726,900.636 448.043,750.954 597.726,750.954 			"/>
			<polygon fill="#F5B090" points="747.407,750.948 597.726,900.636 597.726,750.954 			"/>
			<polygon fill="#FFFEF2" points="597.726,750.954 597.726,601.269 747.407,750.948 			"/>
			<polygon fill="#6FB8E7" points="448.043,750.954 597.726,601.269 597.726,750.954 			"/>
		</g>
	</g>
	<g>
		<polygon fill="#C0DDF4" points="1195,601.726 1045.317,452.04 1045.317,601.726 		"/>
		<polygon fill="#FDE3B3" points="1045.317,751.407 1195,601.726 1045.317,601.726 		"/>
		<polygon fill="#FEF2DA" points="1045.317,601.726 895.636,601.72 1045.317,751.407 		"/>
		<polygon fill="#EF845D" points="1045.317,452.04 895.636,601.72 1045.317,601.726 		"/>
	</g>
	<g>
		<polygon fill="#C0DDF4" points="1046.317,751.407 896.636,601.72 896.636,751.407 		"/>
		<polygon fill="#9BCAED" points="896.636,901.089 1046.317,751.407 896.636,751.407 		"/>
		<polygon fill="#FEF4EC" points="896.636,751.407 746.954,751.407 896.636,901.089 		"/>
		<polygon fill="#FFF67F" points="896.636,601.72 746.954,751.407 896.636,751.407 		"/>
	</g>
	<g>
		<polygon fill="#C0DDF4" points="1045.317,452.04 895.636,302.361 895.636,452.043 		"/>
		<polygon fill="#FFF9B1" points="895.636,601.72 1045.317,452.04 895.636,452.043 		"/>
		<polygon fill="#E7F2FB" points="895.636,452.043 745.954,452.04 895.636,601.72 		"/>
		<polygon fill="#FCD489" points="895.636,302.361 745.954,452.04 895.636,452.043 		"/>
	</g>
	<g>
		<polygon fill="#C0DDF4" points="896.636,601.72 746.954,452.04 746.954,601.723 		"/>
		<polygon fill="#F5B090" points="746.954,751.407 896.636,601.72 746.954,601.723 		"/>
		<polygon fill="#FFFEF2" points="746.954,601.723 597.271,601.726 746.954,751.407 		"/>
		<polygon fill="#6FB8E7" points="746.954,452.04 597.271,601.726 746.954,601.723 		"/>
	</g>
</g>
</svg>
