<?xml version="1.0" encoding="utf-8"?>
<!-- Generator: Adobe Illustrator 16.0.0, SVG Export Plug-In . SVG Version: 6.00 Build 0)  -->
<!DOCTYPE svg PUBLIC "-//W3C//DTD SVG 1.1//EN" "http://www.w3.org/Graphics/SVG/1.1/DTD/svg11.dtd">
<svg version="1.1" id="图层_1" xmlns="http://www.w3.org/2000/svg" xmlns:xlink="http://www.w3.org/1999/xlink" x="0px" y="0px"
	 width="1200px" height="1200px" viewBox="0 0 1200 1200" enable-background="new 0 0 1200 1200" xml:space="preserve">
<g>
	<g>
		<polygon fill="#C0DDF4" points="0,600 300.001,900.002 300.001,600 		"/>
		<polygon fill="#FDE3B3" points="300.001,300.001 0,600 300.001,600 		"/>
		<polygon fill="#FEF2DA" points="300.001,600 600.003,600.003 300.001,300.001 		"/>
		<polygon fill="#EF845D" points="300.001,900.002 600.003,600.003 300.001,600 		"/>
	</g>
	<g>
		<polygon fill="#C0DDF4" points="300.001,300.001 600.003,600.003 600.003,300.001 		"/>
		<polygon fill="#9BCAED" points="600.003,0 300.001,300.001 600.003,300.001 		"/>
		<polygon fill="#FEF4EC" points="600.003,300.001 900.004,300.001 600.003,0 		"/>
		<polygon fill="#FFF67F" points="600.003,600.003 900.004,300.001 600.003,300.001 		"/>
	</g>
	<g>
		<polygon fill="#C0DDF4" points="300.001,900.002 600.003,1200.004 600.003,900.002 		"/>
		<polygon fill="#FFF9B1" points="600.003,600.003 300.001,900.002 600.003,900.002 		"/>
		<polygon fill="#E7F2FB" points="600.003,900.002 899.998,900.002 600.003,600.003 		"/>
		<polygon fill="#FCD489" points="600.003,1200.004 899.998,900.002 600.003,900.002 		"/>
	</g>
	<g>
		<polygon fill="#C0DDF4" points="600.003,600.003 899.998,900.002 900.004,600.003 		"/>
		<polygon fill="#F5B090" points="900.004,300.001 600.003,600.003 900.004,600.003 		"/>
		<polygon fill="#FFFEF2" points="900.004,600.003 1200,600 900.004,300.001 		"/>
		<polygon fill="#6FB8E7" points="899.998,900.002 1200,600 900.004,600.003 		"/>
	</g>
</g>
</svg>
