<?xml version="1.0" encoding="utf-8"?>
<!-- Generator: Adobe Illustrator 16.0.0, SVG Export Plug-In . SVG Version: 6.00 Build 0)  -->
<!DOCTYPE svg PUBLIC "-//W3C//DTD SVG 1.1//EN" "http://www.w3.org/Graphics/SVG/1.1/DTD/svg11.dtd">
<svg version="1.1" id="图层_1" xmlns="http://www.w3.org/2000/svg" xmlns:xlink="http://www.w3.org/1999/xlink" x="0px" y="0px"
	 width="1200px" height="1200px" viewBox="0 0 1200 1200" enable-background="new 0 0 1200 1200" xml:space="preserve">
<g>
	<g>
		<polygon fill="#FEF2DA" points="0,599.996 149.995,749.99 150,599.996 		"/>
		<polygon fill="#FCD489" points="150.006,450.001 0,599.996 150,599.996 		"/>
		<polygon fill="#FFFAF1" points="300,599.996 150.006,450.001 150,599.996 		"/>
		<polygon fill="#FDE3B3" points="150,599.996 149.995,749.99 300,599.996 		"/>
		<polygon fill="#EF845D" points="300.006,299.995 150.006,450.001 300,449.99 		"/>
		<polygon fill="#FCE1CE" points="300,449.99 450,449.99 300.006,299.995 		"/>
		<polygon fill="#F5B090" points="300,599.996 300,449.99 150.006,450.001 300,599.996 		"/>
		<polygon fill="#FEF4EC" points="300,599.996 450,449.99 300,449.99 		"/>
		<polygon fill="#6FB8E7" points="300,599.996 300,599.996 149.995,749.99 300,749.996 		"/>
		<polygon fill="#E7F2FB" points="300,749.996 450.006,750.002 300,599.996 		"/>
		<polygon fill="#9BCAED" points="300,899.996 450.006,750.002 300,749.996 		"/>
		<polygon fill="#C0DDF4" points="149.995,749.99 300,899.996 300,749.996 		"/>
		<polygon fill="#FFF9B1" points="300,599.996 300,599.996 300,599.996 		"/>
		<polygon fill="#FFF9B1" points="300,599.996 300,599.996 450.006,750.002 450.006,599.996 		"/>
		<polygon fill="#FFF9B1" points="300,599.996 300,599.996 300,599.996 		"/>
		<polygon fill="#FFF67F" points="300,599.996 450.006,599.996 450,449.99 300,599.996 		"/>
		<polygon fill="#FFFCDB" points="600.006,599.996 450,449.99 450.006,599.996 		"/>
		<polygon fill="#FFF67F" points="450.006,750.002 600.006,599.996 450.006,599.996 		"/>
	</g>
	<g>
		<polygon fill="#FEF2DA" points="600.001,0 749.996,149.989 600.001,149.995 		"/>
		<polygon fill="#FCD489" points="450.006,150 600.001,0 600.001,149.995 		"/>
		<polygon fill="#FFFAF1" points="600.001,299.995 450.006,150 600.001,149.995 		"/>
		<polygon fill="#FDE3B3" points="600.001,149.995 749.996,149.989 600.001,299.995 		"/>
		<polygon fill="#EF845D" points="300.006,299.995 450.006,150 449.996,299.995 		"/>
		<polygon fill="#FCE1CE" points="449.996,299.995 450,449.99 300.006,299.995 		"/>
		<polygon fill="#F5B090" points="600.001,299.995 449.996,299.995 450.006,150 600.001,299.995 		"/>
		<polygon fill="#FEF4EC" points="600.001,299.995 450,449.99 449.996,299.995 		"/>
		<polygon fill="#6FB8E7" points="600.001,299.995 600.001,299.995 749.996,149.989 750.002,299.995 		"/>
		<polygon fill="#E7F2FB" points="750.002,299.995 750.008,450.001 600.001,299.995 		"/>
		<polygon fill="#9BCAED" points="900.002,299.995 750.008,450.001 750.002,299.995 		"/>
		<polygon fill="#C0DDF4" points="749.996,149.989 900.002,299.995 750.002,299.995 		"/>
		<polygon fill="#FFF9B1" points="600.001,299.995 600.001,299.995 600.001,299.995 		"/>
		<polygon fill="#FFF9B1" points="600.001,299.995 600.001,299.995 750.008,450.001 600.001,450.001 		"/>
		<polygon fill="#FFF9B1" points="600.001,299.995 600.001,299.995 600.001,299.995 		"/>
		<polygon fill="#FFF67F" points="600.001,299.995 600.001,450.001 450,449.99 600.001,299.995 		"/>
		<polygon fill="#FFFCDB" points="600.006,599.996 450,449.99 600.001,450.001 		"/>
		<polygon fill="#FFF67F" points="750.008,450.001 600.006,599.996 600.001,450.001 		"/>
	</g>
	<g>
		<polygon fill="#FEF2DA" points="600.001,1199.998 450.006,1050.002 600.001,1050.002 		"/>
		<polygon fill="#FCD489" points="750.008,1050.002 600.001,1199.998 600.001,1050.002 		"/>
		<polygon fill="#FFFAF1" points="600.012,900.008 750.008,1050.002 600.001,1050.002 		"/>
		<polygon fill="#FDE3B3" points="600.001,1050.002 450.006,1050.002 600.012,900.008 		"/>
		<polygon fill="#EF845D" points="900.008,899.996 750.008,1050.002 750.008,899.996 		"/>
		<polygon fill="#FCE1CE" points="750.008,899.996 750.012,750.002 900.008,899.996 		"/>
		<polygon fill="#F5B090" points="600.012,900.008 750.008,899.996 750.008,1050.002 600.012,900.008 		"/>
		<polygon fill="#FEF4EC" points="600.012,900.008 750.012,750.002 750.008,899.996 		"/>
		<polygon fill="#6FB8E7" points="600.001,899.996 600.012,900.008 450.006,1050.002 450.006,900.002 		"/>
		<polygon fill="#E7F2FB" points="450.006,900.002 450.006,750.002 600.001,899.996 		"/>
		<polygon fill="#9BCAED" points="300,899.996 450.006,750.002 450.006,900.002 		"/>
		<polygon fill="#C0DDF4" points="450.006,1050.002 300,899.996 450.006,900.002 		"/>
		<polygon fill="#FFF9B1" points="600.001,899.996 600.012,900.008 600.012,900.008 		"/>
		<polygon fill="#FFF9B1" points="600.012,900.008 600.001,899.996 450.006,750.002 600.012,750.002 		"/>
		<polygon fill="#FFF9B1" points="600.012,900.008 600.012,900.008 600.012,900.008 		"/>
		<polygon fill="#FFF67F" points="600.012,900.008 600.012,750.002 750.012,750.002 600.012,900.008 		"/>
		<polygon fill="#FFFCDB" points="600.006,599.996 750.012,750.002 600.012,750.002 		"/>
		<polygon fill="#FFF67F" points="450.006,750.002 600.006,599.996 600.012,750.002 		"/>
	</g>
	<g>
		<polygon fill="#FEF2DA" points="1200.002,599.996 1050.008,450.001 1050.008,599.996 		"/>
		<polygon fill="#FCD489" points="1050.008,750.002 1200.002,599.996 1050.008,599.996 		"/>
		<polygon fill="#FFFAF1" points="900.014,600.007 1050.008,750.002 1050.008,599.996 		"/>
		<polygon fill="#FDE3B3" points="1050.008,599.996 1050.008,450.001 900.014,600.007 		"/>
		<polygon fill="#EF845D" points="900.008,899.996 1050.008,750.002 900.002,750.002 		"/>
		<polygon fill="#FCE1CE" points="900.002,750.002 750.012,750.002 900.008,899.996 		"/>
		<polygon fill="#F5B090" points="900.014,600.007 900.002,750.002 1050.008,750.002 900.014,600.007 		"/>
		<polygon fill="#FEF4EC" points="900.014,600.007 750.012,750.002 900.002,750.002 		"/>
		<polygon fill="#6FB8E7" points="900.002,599.996 900.014,600.007 1050.008,450.001 900.008,450.001 		"/>
		<polygon fill="#E7F2FB" points="900.008,450.001 750.008,450.001 900.002,599.996 		"/>
		<polygon fill="#9BCAED" points="900.002,299.995 750.008,450.001 900.008,450.001 		"/>
		<polygon fill="#C0DDF4" points="1050.008,450.001 900.002,299.995 900.008,450.001 		"/>
		<polygon fill="#FFF9B1" points="900.002,599.996 900.014,600.007 900.014,600.007 		"/>
		<polygon fill="#FFF9B1" points="900.014,600.007 900.002,599.996 750.008,450.001 750.008,600.007 		"/>
		<polygon fill="#FFF9B1" points="900.014,600.007 900.014,600.007 900.014,600.007 		"/>
		<polygon fill="#FFF67F" points="900.014,600.007 750.008,600.007 750.012,750.002 900.014,600.007 		"/>
		<polygon fill="#FFFCDB" points="600.006,599.996 750.012,750.002 750.008,600.007 		"/>
		<polygon fill="#FFF67F" points="750.008,450.001 600.006,599.996 750.008,600.007 		"/>
	</g>
</g>
</svg>
