<?xml version="1.0" encoding="utf-8"?>
<!-- Generator: Adobe Illustrator 16.0.0, SVG Export Plug-In . SVG Version: 6.00 Build 0)  -->
<!DOCTYPE svg PUBLIC "-//W3C//DTD SVG 1.1//EN" "http://www.w3.org/Graphics/SVG/1.1/DTD/svg11.dtd">
<svg version="1.1" id="图层_1" xmlns="http://www.w3.org/2000/svg" xmlns:xlink="http://www.w3.org/1999/xlink" x="0px" y="0px"
	 width="1200px" height="1200px" viewBox="0 0 1200 1200" enable-background="new 0 0 1200 1200" xml:space="preserve">
<g>
	<polygon fill="#FEF2DA" points="0,599.999 299.99,899.988 299.995,599.999 	"/>
	<polygon fill="#FCD489" points="299.995,299.998 0,599.999 299.995,599.999 	"/>
	<polygon fill="#FFFAF1" points="599.984,599.988 299.995,299.998 299.995,599.999 	"/>
	<polygon fill="#FDE3B3" points="299.995,599.999 299.99,899.988 599.984,599.988 	"/>
	<polygon fill="#EF845D" points="599.996,0 299.995,299.998 599.996,299.998 	"/>
	<polygon fill="#FCE1CE" points="599.996,299.998 899.985,299.987 599.996,0 	"/>
	<polygon fill="#F5B090" points="599.984,599.988 599.996,299.998 299.995,299.998 599.984,599.988 	"/>
	<polygon fill="#FEF4EC" points="599.984,599.988 899.985,299.987 599.996,299.998 	"/>
	<polygon fill="#6FB8E7" points="600.002,600.004 599.984,599.988 299.99,899.988 599.996,900 	"/>
	<polygon fill="#E7F2FB" points="599.996,900 899.996,900 600.002,600.004 	"/>
	<polygon fill="#9BCAED" points="599.996,1200 899.996,900 599.996,900 	"/>
	<polygon fill="#C0DDF4" points="299.99,899.988 599.996,1200 599.996,900 	"/>
	<polygon fill="#FFF9B1" points="600.002,600.004 599.984,599.988 599.984,599.988 	"/>
	<polygon fill="#FFF9B1" points="599.984,599.988 600.002,600.004 899.996,900 899.996,599.999 	"/>
	<polygon fill="#FFF9B1" points="599.984,599.988 599.984,599.988 599.984,599.988 	"/>
	<polygon fill="#FFF67F" points="599.984,599.988 899.996,599.999 899.985,299.987 599.984,599.988 	"/>
	<polygon fill="#FFFCDB" points="1199.997,599.999 899.985,299.987 899.996,599.999 	"/>
	<polygon fill="#FFF67F" points="899.996,900 1199.997,599.999 899.996,599.999 	"/>
</g>
</svg>
