<?xml version="1.0" encoding="utf-8"?>
<!-- Generator: Adobe Illustrator 16.0.0, SVG Export Plug-In . SVG Version: 6.00 Build 0)  -->
<!DOCTYPE svg PUBLIC "-//W3C//DTD SVG 1.1//EN" "http://www.w3.org/Graphics/SVG/1.1/DTD/svg11.dtd">
<svg version="1.1" id="图层_1" xmlns="http://www.w3.org/2000/svg" xmlns:xlink="http://www.w3.org/1999/xlink" x="0px" y="0px"
	 width="1200px" height="1200px" viewBox="0 0 1200 1200" enable-background="new 0 0 1200 1200" xml:space="preserve">
<g>
	<g>
		<polygon fill="#C0DDF4" points="0,599.999 150,749.998 150,599.999 		"/>
		<polygon fill="#FDE3B3" points="150,449.999 0,599.999 150,599.999 		"/>
		<polygon fill="#FEF2DA" points="150,599.999 300,599.999 150,449.999 		"/>
		<polygon fill="#EF845D" points="150,749.998 300,599.999 150,599.999 		"/>
	</g>
	<g>
		<polygon fill="#C0DDF4" points="150,449.999 300,599.999 300,449.999 		"/>
		<polygon fill="#9BCAED" points="299.996,300.003 150,449.999 300,449.999 		"/>
		<polygon fill="#FEF4EC" points="300,449.999 450.001,449.999 299.996,300.003 		"/>
		<polygon fill="#FFF67F" points="300,599.999 450.001,449.999 300,449.999 		"/>
	</g>
	<g>
		<polygon fill="#C0DDF4" points="150,749.998 300,900 300,749.998 		"/>
		<polygon fill="#FFF9B1" points="300,599.999 150,749.998 300,749.998 		"/>
		<polygon fill="#E7F2FB" points="300,749.998 450.001,749.998 300,599.999 		"/>
		<polygon fill="#FCD489" points="300,900 450.001,749.998 300,749.998 		"/>
	</g>
	<g>
		<polygon fill="#C0DDF4" points="300,599.999 450.001,749.998 450.001,599.999 		"/>
		<polygon fill="#F5B090" points="450.001,449.999 300,599.999 450.001,599.999 		"/>
		<polygon fill="#FFFEF2" points="450.001,599.999 599.996,600.004 450.001,449.999 		"/>
		<polygon fill="#6FB8E7" points="450.001,749.998 599.996,600.004 450.001,599.999 		"/>
	</g>
	<g>
		<polygon fill="#C0DDF4" points="299.996,300.003 450.001,449.999 450.001,300.003 		"/>
		<polygon fill="#FDE3B3" points="450.001,149.998 299.996,300.003 450.001,300.003 		"/>
		<polygon fill="#FEF2DA" points="450.001,300.003 599.996,300.003 450.001,149.998 		"/>
		<polygon fill="#EF845D" points="450.001,449.999 599.996,300.003 450.001,300.003 		"/>
	</g>
	<g>
		<polygon fill="#C0DDF4" points="450.001,149.998 599.996,300.003 599.996,149.998 		"/>
		<polygon fill="#9BCAED" points="599.996,0 450.001,149.998 599.996,149.998 		"/>
		<polygon fill="#FEF4EC" points="599.996,149.998 750.002,149.998 599.996,0 		"/>
		<polygon fill="#FFF67F" points="599.996,300.003 750.002,149.998 599.996,149.998 		"/>
	</g>
	<g>
		<polygon fill="#C0DDF4" points="450.001,449.999 599.996,600.004 599.996,449.999 		"/>
		<polygon fill="#FFF9B1" points="599.996,300.003 450.001,449.999 599.996,449.999 		"/>
		<polygon fill="#E7F2FB" points="599.996,449.999 750.002,449.999 599.996,300.003 		"/>
		<polygon fill="#FCD489" points="599.996,600.004 750.002,449.999 599.996,449.999 		"/>
	</g>
	<g>
		<polygon fill="#C0DDF4" points="599.996,300.003 750.002,449.999 750.002,300.003 		"/>
		<polygon fill="#F5B090" points="750.002,149.998 599.996,300.003 750.002,300.003 		"/>
		<polygon fill="#FFFEF2" points="750.002,300.003 899.996,300.003 750.002,149.998 		"/>
		<polygon fill="#6FB8E7" points="750.002,449.999 899.996,300.003 750.002,300.003 		"/>
	</g>
	<g>
		<polygon fill="#C0DDF4" points="600.001,1200 450.001,1050 600.001,1050 		"/>
		<polygon fill="#FDE3B3" points="750.002,1050 600.001,1200 600.001,1050 		"/>
		<polygon fill="#FEF2DA" points="600.001,1050 600.001,900 750.002,1050 		"/>
		<polygon fill="#EF845D" points="450.001,1050 600.001,900 600.001,1050 		"/>
	</g>
	<g>
		<polygon fill="#C0DDF4" points="750.002,1050 600.001,900 750.002,900 		"/>
		<polygon fill="#9BCAED" points="899.996,900.004 750.002,1050 750.002,900 		"/>
		<polygon fill="#FEF4EC" points="750.002,900 750.002,749.998 899.996,900.004 		"/>
		<polygon fill="#FFF67F" points="600.001,900 750.002,749.998 750.002,900 		"/>
	</g>
	<g>
		<polygon fill="#C0DDF4" points="450.001,1050 300,900 450.001,900.004 		"/>
		<polygon fill="#FFF9B1" points="600.001,900 450.001,1050 450.001,900.004 		"/>
		<polygon fill="#E7F2FB" points="450.001,900.004 450.001,749.998 600.001,900 		"/>
		<polygon fill="#FCD489" points="300,900 450.001,749.998 450.001,900.004 		"/>
	</g>
	<g>
		<polygon fill="#C0DDF4" points="600.001,900 450.001,749.998 600.007,749.998 		"/>
		<polygon fill="#F5B090" points="750.002,749.998 600.001,900 600.007,749.998 		"/>
		<polygon fill="#FFFEF2" points="600.007,749.998 599.996,600.004 750.002,749.998 		"/>
		<polygon fill="#6FB8E7" points="450.001,749.998 599.996,600.004 600.007,749.998 		"/>
	</g>
	<g>
		<polygon fill="#C0DDF4" points="899.996,900.004 750.002,749.998 899.996,749.998 		"/>
		<polygon fill="#FDE3B3" points="1050.002,749.998 899.996,900.004 899.996,749.998 		"/>
		<polygon fill="#FEF2DA" points="899.996,749.998 899.996,600.004 1050.002,749.998 		"/>
		<polygon fill="#EF845D" points="750.002,749.998 899.996,600.004 899.996,749.998 		"/>
	</g>
	<g>
		<polygon fill="#C0DDF4" points="1050.002,749.998 899.996,600.004 1050.002,600.004 		"/>
		<polygon fill="#9BCAED" points="1199.998,600.004 1050.002,749.998 1050.002,600.004 		"/>
		<polygon fill="#FEF4EC" points="1050.002,600.004 1050.002,449.999 1199.998,600.004 		"/>
		<polygon fill="#FFF67F" points="899.996,600.004 1050.002,449.999 1050.002,600.004 		"/>
	</g>
	<g>
		<polygon fill="#C0DDF4" points="750.002,749.998 599.996,600.004 750.002,600.004 		"/>
		<polygon fill="#FFF9B1" points="899.996,600.004 750.002,749.998 750.002,600.004 		"/>
		<polygon fill="#E7F2FB" points="750.002,600.004 750.002,449.999 899.996,600.004 		"/>
		<polygon fill="#FCD489" points="599.996,600.004 750.002,449.999 750.002,600.004 		"/>
	</g>
	<g>
		<polygon fill="#C0DDF4" points="899.996,600.004 750.002,449.999 900.002,450.003 		"/>
		<polygon fill="#F5B090" points="1050.002,449.999 899.996,600.004 900.002,450.003 		"/>
		<polygon fill="#FFFEF2" points="900.002,450.003 899.996,300.003 1050.002,449.999 		"/>
		<polygon fill="#6FB8E7" points="750.002,449.999 899.996,300.003 900.002,450.003 		"/>
	</g>
</g>
</svg>
