<?xml version="1.0" encoding="utf-8"?>
<!-- Generator: Adobe Illustrator 16.0.0, SVG Export Plug-In . SVG Version: 6.00 Build 0)  -->
<!DOCTYPE svg PUBLIC "-//W3C//DTD SVG 1.1//EN" "http://www.w3.org/Graphics/SVG/1.1/DTD/svg11.dtd">
<svg version="1.1" id="图层_1" xmlns="http://www.w3.org/2000/svg" xmlns:xlink="http://www.w3.org/1999/xlink" x="0px" y="0px"
	 width="1200px" height="1200px" viewBox="0 0 1200 1200" enable-background="new 0 0 1200 1200" xml:space="preserve">
<g>
	<g>
		<polygon fill="#FEF2DA" points="0,599.994 149.995,749.994 149.995,599.994 		"/>
		<polygon fill="#FCD489" points="149.995,450 0,599.994 149.995,599.994 		"/>
		<polygon fill="#FFFAF1" points="299.994,599.994 149.995,450 149.995,599.994 		"/>
		<polygon fill="#FDE3B3" points="149.995,599.994 149.995,749.994 299.994,599.994 		"/>
		<polygon fill="#EF845D" points="299.994,300 149.995,450 299.994,450 		"/>
		<polygon fill="#FCE1CE" points="299.994,450 449.994,450 299.994,300 		"/>
		<polygon fill="#F5B090" points="299.994,599.994 299.994,450 149.995,450 299.994,599.994 		"/>
		<polygon fill="#FEF4EC" points="299.994,599.994 449.994,450 299.994,450 		"/>
		<polygon fill="#6FB8E7" points="299.994,599.994 299.994,599.994 149.995,749.994 300,749.994 		"/>
		<polygon fill="#E7F2FB" points="300,749.994 450,750 299.994,599.994 		"/>
		<polygon fill="#9BCAED" points="300,900 450,750 300,749.994 		"/>
		<polygon fill="#C0DDF4" points="149.995,749.994 300,900 300,749.994 		"/>
		<polygon fill="#FFF9B1" points="299.994,599.994 299.994,599.994 299.994,599.994 		"/>
		<polygon fill="#FFF9B1" points="299.994,599.994 299.994,599.994 450,750 449.994,600 		"/>
		<polygon fill="#FFF9B1" points="299.994,599.994 299.994,599.994 299.994,599.994 		"/>
		<polygon fill="#FFF67F" points="299.994,599.994 449.994,600 449.994,450 299.994,599.994 		"/>
		<polygon fill="#FFFCDB" points="600,600.006 449.994,450 449.994,600 		"/>
		<polygon fill="#FFF67F" points="450,750 600,600.006 449.994,600 		"/>
	</g>
	<g>
		<polygon fill="#FEF2DA" points="299.994,300 449.994,450 449.994,300 		"/>
		<polygon fill="#FCD489" points="449.994,150 299.994,300 449.994,300 		"/>
		<polygon fill="#FFFAF1" points="599.989,299.994 449.994,150 449.994,300 		"/>
		<polygon fill="#FDE3B3" points="449.994,300 449.994,450 599.989,299.994 		"/>
		<polygon fill="#EF845D" points="599.994,0 449.994,150 599.994,150 		"/>
		<polygon fill="#FCE1CE" points="599.994,150 749.994,150 599.994,0 		"/>
		<polygon fill="#F5B090" points="599.989,299.994 599.994,150 449.994,150 599.989,299.994 		"/>
		<polygon fill="#FEF4EC" points="599.989,299.994 749.994,150 599.994,150 		"/>
		<polygon fill="#6FB8E7" points="599.989,299.994 599.989,299.994 449.994,450 599.994,450 		"/>
		<polygon fill="#E7F2FB" points="599.994,450 749.994,450 599.989,299.994 		"/>
		<polygon fill="#9BCAED" points="600,600.006 749.994,450 599.994,450 		"/>
		<polygon fill="#C0DDF4" points="449.994,450 600,600.006 599.994,450 		"/>
		<polygon fill="#FFF9B1" points="599.989,299.994 599.989,299.994 599.989,299.994 		"/>
		<polygon fill="#FFF9B1" points="599.989,299.994 599.989,299.994 749.994,450 749.994,300 		"/>
		<polygon fill="#FFF9B1" points="599.989,299.994 599.989,299.994 599.989,299.994 		"/>
		<polygon fill="#FFF67F" points="599.989,299.994 749.994,300 749.994,150 599.989,299.994 		"/>
		<polygon fill="#FFFCDB" points="900,300.006 749.994,150 749.994,300 		"/>
		<polygon fill="#FFF67F" points="749.994,450 900,300.006 749.994,300 		"/>
	</g>
	<g>
		<polygon fill="#FEF2DA" points="300,900 449.994,1049.994 449.994,900 		"/>
		<polygon fill="#FCD489" points="450,750 300,900 449.994,900 		"/>
		<polygon fill="#FFFAF1" points="599.989,899.989 450,750 449.994,900 		"/>
		<polygon fill="#FDE3B3" points="449.994,900 449.994,1049.994 599.989,899.989 		"/>
		<polygon fill="#EF845D" points="600,600.006 450,750 599.994,750 		"/>
		<polygon fill="#FCE1CE" points="599.994,750 749.989,749.994 600,600.006 		"/>
		<polygon fill="#F5B090" points="599.989,899.989 599.994,750 450,750 599.989,899.989 		"/>
		<polygon fill="#FEF4EC" points="599.989,899.989 749.989,749.994 599.994,750 		"/>
		<polygon fill="#6FB8E7" points="600,900 599.989,899.989 449.994,1049.994 600,1049.994 		"/>
		<polygon fill="#E7F2FB" points="600,1049.994 749.994,1049.994 600,900 		"/>
		<polygon fill="#9BCAED" points="600,1200 749.994,1049.994 600,1049.994 		"/>
		<polygon fill="#C0DDF4" points="449.994,1049.994 600,1200 600,1049.994 		"/>
		<polygon fill="#FFF9B1" points="600,900 599.989,899.989 599.989,899.989 		"/>
		<polygon fill="#FFF9B1" points="599.989,899.989 600,900 749.994,1049.994 749.994,900 		"/>
		<polygon fill="#FFF9B1" points="599.989,899.989 599.989,899.989 599.989,899.989 		"/>
		<polygon fill="#FFF67F" points="599.989,899.989 749.994,900 749.989,749.994 599.989,899.989 		"/>
		<polygon fill="#FFFCDB" points="899.994,900 749.989,749.994 749.994,900 		"/>
		<polygon fill="#FFF67F" points="749.994,1049.994 899.994,900 749.994,900 		"/>
	</g>
	<g>
		<polygon fill="#FEF2DA" points="600,600.006 749.989,749.994 749.994,600 		"/>
		<polygon fill="#FCD489" points="749.994,450 600,600.006 749.994,600 		"/>
		<polygon fill="#FFFAF1" points="899.989,599.994 749.994,450 749.994,600 		"/>
		<polygon fill="#FDE3B3" points="749.994,600 749.989,749.994 899.989,599.994 		"/>
		<polygon fill="#EF845D" points="900,300.006 749.994,450 899.994,450 		"/>
		<polygon fill="#FCE1CE" points="899.994,450 1049.989,449.994 900,300.006 		"/>
		<polygon fill="#F5B090" points="899.989,599.994 899.994,450 749.994,450 899.989,599.994 		"/>
		<polygon fill="#FEF4EC" points="899.989,599.994 1049.989,449.994 899.994,450 		"/>
		<polygon fill="#6FB8E7" points="900,600.006 899.989,599.994 749.989,749.994 899.994,750 		"/>
		<polygon fill="#E7F2FB" points="899.994,750 1049.994,750 900,600.006 		"/>
		<polygon fill="#9BCAED" points="899.994,900 1049.994,750 899.994,750 		"/>
		<polygon fill="#C0DDF4" points="749.989,749.994 899.994,900 899.994,750 		"/>
		<polygon fill="#FFF9B1" points="900,600.006 899.989,599.994 899.989,599.994 		"/>
		<polygon fill="#FFF9B1" points="899.989,599.994 900,600.006 1049.994,750 1049.994,600 		"/>
		<polygon fill="#FFF9B1" points="899.989,599.994 899.989,599.994 899.989,599.994 		"/>
		<polygon fill="#FFF67F" points="899.989,599.994 1049.994,600 1049.989,449.994 899.989,599.994 		"/>
		<polygon fill="#FFFCDB" points="1199.994,600 1049.989,449.994 1049.994,600 		"/>
		<polygon fill="#FFF67F" points="1049.994,750 1199.994,600 1049.994,600 		"/>
	</g>
</g>
</svg>
