<?xml version="1.0" encoding="utf-8"?>
<!-- Generator: Adobe Illustrator 16.0.0, SVG Export Plug-In . SVG Version: 6.00 Build 0)  -->
<!DOCTYPE svg PUBLIC "-//W3C//DTD SVG 1.1//EN" "http://www.w3.org/Graphics/SVG/1.1/DTD/svg11.dtd">
<svg version="1.1" id="图层_1" xmlns="http://www.w3.org/2000/svg" xmlns:xlink="http://www.w3.org/1999/xlink" x="0px" y="0px"
	 width="502.281px" height="1200px" viewBox="0 0 502.281 1200" enable-background="new 0 0 502.281 1200" xml:space="preserve">
<g>
	<g>
		<path fill="#1A1A1A" d="M251.143,0c-52.515,0-95.08,44.327-95.08,99.005s42.564,99.002,95.08,99.002
			c52.512,0,95.074-44.324,95.074-99.002S303.655,0,251.143,0z M251.143,178.206c-42.011,0-76.06-35.461-76.06-79.201
			c0-43.746,34.049-79.203,76.06-79.203c42.008,0,76.063,35.458,76.063,79.203C327.206,142.745,293.151,178.206,251.143,178.206z"/>
		<path fill="#727171" d="M251.143,19.802c-42.011,0-76.06,35.458-76.06,79.203c0,43.74,34.049,79.201,76.06,79.201
			c42.008,0,76.063-35.461,76.063-79.201C327.206,55.259,293.151,19.802,251.143,19.802z"/>
		<path fill="#FEF2DA" d="M251.143,23.762c-39.914,0-72.266,33.687-72.266,75.243c0,41.554,32.352,75.242,72.266,75.242
			c39.912,0,72.26-33.688,72.26-75.242C323.403,57.449,291.055,23.762,251.143,23.762z"/>
	</g>
	<g>
		<rect x="215.905" y="59.762" fill="#A4A4A5" width="20.134" height="45.039"/>
		<rect x="216.91" y="62.016" fill="#3E3A39" width="18.127" height="40.535"/>
		<rect x="266.245" y="59.762" fill="#A4A4A5" width="20.133" height="45.039"/>
		<rect x="267.243" y="62.016" fill="#3E3A39" width="18.125" height="40.535"/>
	</g>
	<g>
		<g>
			<rect x="226.783" y="206.702" fill="#727171" width="48.722" height="14.72"/>
			<rect x="226.783" y="221.422" fill="#3E3A39" width="48.722" height="14.716"/>
			<rect x="226.783" y="236.138" fill="#727171" width="48.722" height="14.712"/>
			<rect x="226.783" y="250.851" fill="#3E3A39" width="48.722" height="14.718"/>
			<rect x="226.783" y="265.569" fill="#727171" width="48.722" height="14.716"/>
			<rect x="226.783" y="280.285" fill="#3E3A39" width="48.722" height="14.718"/>
		</g>
		<rect x="226.783" y="192.884" fill="#3E3A39" width="48.722" height="14.043"/>
	</g>
	<g>
		<rect x="97.423" y="77.155" fill="#3E3A39" width="74.096" height="22.581"/>
		<rect x="330.766" y="77.155" fill="#3E3A39" width="74.094" height="22.581"/>
	</g>
	<g>
		<g>
			<polygon fill="#F5B090" points="83.256,321.127 83.256,614.275 224.017,467.702 			"/>
			<polygon fill="#F5B090" points="419.03,614.275 419.03,321.127 278.264,467.702 			"/>
			<polygon fill="#F5B090" points="387.94,297.014 114.342,297.014 251.143,439.458 			"/>
			<polygon fill="#F5B090" points="114.339,638.391 387.94,638.391 251.137,495.947 			"/>
		</g>
		<polygon fill="#858585" points="387.94,297.014 251.143,439.458 114.342,297.014 83.256,297.014 83.256,321.127 224.017,467.702 
			83.256,614.275 83.256,638.391 114.339,638.391 251.137,495.947 387.94,638.391 419.03,638.391 419.03,614.275 278.264,467.702 
			419.03,321.127 419.03,297.014 		"/>
	</g>
	<path fill="#727171" d="M306.817,470.937c0,32.017-24.928,57.978-55.674,57.978c-30.752,0-55.679-25.961-55.679-57.978
		c0-32.016,24.926-57.976,55.679-57.976C281.889,412.961,306.817,438.921,306.817,470.937z"/>
	<path fill="#1A1A1A" d="M304.03,470.937c0,30.419-23.68,55.081-52.887,55.081c-29.212,0-52.895-24.661-52.895-55.081
		c0-30.419,23.682-55.075,52.895-55.075C280.35,415.862,304.03,440.518,304.03,470.937z"/>
	<path fill="#D5D5D6" d="M301.387,470.937c0,28.899-22.5,52.326-50.244,52.326c-27.751,0-50.251-23.427-50.251-52.326
		c0-28.898,22.5-52.321,50.251-52.321C278.887,418.616,301.387,442.039,301.387,470.937z"/>
	<path fill="#FFF67F" d="M286.772,470.937c0,20.494-15.949,37.106-35.629,37.106s-35.634-16.612-35.634-37.106
		c0-20.489,15.955-37.102,35.634-37.102S286.772,450.448,286.772,470.937z"/>
	<g>
		<rect x="245.145" y="433.755" fill="#3E3A39" width="11.994" height="74.363"/>
		<rect x="215.434" y="464.694" fill="#3E3A39" width="71.411" height="12.487"/>
	</g>
	<g>
		<g>
			<g>
				<rect x="40.017" y="323.354" fill="#3E3A39" width="14.131" height="50.741"/>
				<rect x="54.148" y="323.354" fill="#727171" width="14.135" height="50.741"/>
				<rect x="68.283" y="323.354" fill="#3E3A39" width="14.133" height="50.741"/>
			</g>
			<rect x="7.385" y="298.313" fill="#FCD489" width="32.12" height="463.301"/>
			<path fill="#727171" d="M46.895,799.759c0,3.201-1.283,5.796-2.876,5.796H2.871c-1.585,0-2.871-2.595-2.871-5.796v-36.216
				c0-3.202,1.286-5.801,2.871-5.801h41.148c1.593,0,2.876,2.599,2.876,5.801V799.759z"/>
		</g>
		<g>
			<g>
				<rect x="448.135" y="323.354" fill="#3E3A39" width="14.131" height="50.741"/>
				<rect x="434" y="323.354" fill="#727171" width="14.135" height="50.741"/>
				<rect x="419.868" y="323.354" fill="#3E3A39" width="14.133" height="50.741"/>
			</g>
			<rect x="462.776" y="298.313" fill="#FCD489" width="32.117" height="463.301"/>
			<path fill="#727171" d="M455.387,799.759c0,3.201,1.281,5.796,2.875,5.796h41.154c1.582,0,2.865-2.595,2.865-5.796v-36.216
				c0-3.202-1.283-5.801-2.865-5.801h-41.154c-1.594,0-2.875,2.599-2.875,5.801V799.759z"/>
		</g>
	</g>
	<g>
		<g>
			<g>
				<rect x="126.741" y="839.398" fill="#4D4D4D" width="69.755" height="9.602"/>
				<rect x="126.741" y="849" fill="#1A1A1A" width="69.755" height="9.735"/>
				<rect x="126.741" y="858.735" fill="#4D4D4D" width="69.755" height="9.752"/>
				<rect x="126.741" y="868.487" fill="#1A1A1A" width="69.755" height="9.742"/>
				<rect x="126.741" y="878.229" fill="#4D4D4D" width="69.755" height="9.748"/>
				<polygon fill="#1A1A1A" points="126.741,897.72 126.741,906.869 126.741,907.01 196.496,907.01 196.496,906.869 196.496,897.72 
					196.496,887.978 126.741,887.978 				"/>
				<polygon fill="#1A1A1A" points="126.741,830.1 126.741,839.258 126.741,839.398 196.496,839.398 196.496,839.258 196.496,830.1 
									"/>
				<rect x="126.741" y="907.01" fill="#4D4D4D" width="69.755" height="9.602"/>
				<rect x="126.741" y="916.611" fill="#1A1A1A" width="69.755" height="9.745"/>
				<rect x="126.741" y="926.356" fill="#4D4D4D" width="69.755" height="9.742"/>
				<rect x="126.741" y="936.099" fill="#1A1A1A" width="69.755" height="9.742"/>
				<rect x="126.741" y="945.841" fill="#4D4D4D" width="69.755" height="9.745"/>
				<polygon fill="#1A1A1A" points="126.741,965.327 126.741,974.486 126.741,974.625 196.496,974.625 196.496,974.486 
					196.496,965.327 196.496,955.586 126.741,955.586 				"/>
				<rect x="126.741" y="974.625" fill="#4D4D4D" width="69.755" height="9.603"/>
				<rect x="126.741" y="984.228" fill="#1A1A1A" width="69.755" height="9.744"/>
				<rect x="126.741" y="993.972" fill="#4D4D4D" width="69.755" height="9.743"/>
				<rect x="126.741" y="1003.715" fill="#1A1A1A" width="69.755" height="9.74"/>
				<rect x="126.741" y="1013.455" fill="#4D4D4D" width="69.755" height="9.749"/>
				<polygon fill="#1A1A1A" points="126.741,1032.945 126.741,1042.098 126.741,1042.248 196.496,1042.248 196.496,1042.098 
					196.496,1032.945 196.496,1023.204 126.741,1023.204 				"/>
				<rect x="126.741" y="1042.248" fill="#4D4D4D" width="69.755" height="9.595"/>
				<rect x="126.741" y="1051.843" fill="#1A1A1A" width="69.755" height="9.745"/>
				<rect x="126.741" y="1061.588" fill="#4D4D4D" width="69.755" height="9.738"/>
				<rect x="126.741" y="1071.326" fill="#1A1A1A" width="69.755" height="9.745"/>
				<rect x="126.741" y="1081.071" fill="#4D4D4D" width="69.755" height="9.745"/>
				<rect x="126.741" y="1090.816" fill="#1A1A1A" width="69.755" height="9.742"/>
			</g>
			<rect x="142.782" y="639.303" fill="#FFF9B1" width="37.673" height="175.954"/>
			<rect x="134.76" y="1114.973" fill="#6FB8E7" width="53.717" height="34.585"/>
			<rect x="110.701" y="1149.558" fill="#EF845D" width="101.839" height="50.442"/>
			<rect x="142.782" y="816.856" fill="#1A1A1A" width="37.673" height="10.842"/>
			<rect x="142.782" y="1101.729" fill="#1A1A1A" width="37.673" height="10.842"/>
		</g>
		<g>
			<g>
				<rect x="305.786" y="839.398" fill="#4D4D4D" width="69.764" height="9.602"/>
				<rect x="305.786" y="849" fill="#1A1A1A" width="69.764" height="9.735"/>
				<rect x="305.786" y="858.735" fill="#4D4D4D" width="69.764" height="9.752"/>
				<rect x="305.786" y="868.487" fill="#1A1A1A" width="69.764" height="9.742"/>
				<rect x="305.786" y="878.229" fill="#4D4D4D" width="69.764" height="9.748"/>
				<polygon fill="#1A1A1A" points="305.786,897.72 305.786,906.869 305.786,907.01 375.549,907.01 375.549,906.869 375.549,897.72 
					375.549,887.978 305.786,887.978 				"/>
				<polygon fill="#1A1A1A" points="305.786,830.1 305.786,839.258 305.786,839.398 375.549,839.398 375.549,839.258 375.549,830.1 
									"/>
				<rect x="305.786" y="907.01" fill="#4D4D4D" width="69.764" height="9.602"/>
				<rect x="305.786" y="916.611" fill="#1A1A1A" width="69.764" height="9.745"/>
				<rect x="305.786" y="926.356" fill="#4D4D4D" width="69.764" height="9.742"/>
				<rect x="305.786" y="936.099" fill="#1A1A1A" width="69.764" height="9.742"/>
				<rect x="305.786" y="945.841" fill="#4D4D4D" width="69.764" height="9.745"/>
				<polygon fill="#1A1A1A" points="305.786,965.327 305.786,974.486 305.786,974.625 375.549,974.625 375.549,974.486 
					375.549,965.327 375.549,955.586 305.786,955.586 				"/>
				<rect x="305.786" y="974.625" fill="#4D4D4D" width="69.764" height="9.603"/>
				<rect x="305.786" y="984.228" fill="#1A1A1A" width="69.764" height="9.744"/>
				<rect x="305.786" y="993.972" fill="#4D4D4D" width="69.764" height="9.743"/>
				<rect x="305.786" y="1003.715" fill="#1A1A1A" width="69.764" height="9.74"/>
				<rect x="305.786" y="1013.455" fill="#4D4D4D" width="69.764" height="9.749"/>
				<polygon fill="#1A1A1A" points="305.786,1032.945 305.786,1042.098 305.786,1042.248 375.549,1042.248 375.549,1042.098 
					375.549,1032.945 375.549,1023.204 305.786,1023.204 				"/>
				<rect x="305.786" y="1042.248" fill="#4D4D4D" width="69.764" height="9.595"/>
				<rect x="305.786" y="1051.843" fill="#1A1A1A" width="69.764" height="9.745"/>
				<rect x="305.786" y="1061.588" fill="#4D4D4D" width="69.764" height="9.738"/>
				<rect x="305.786" y="1071.326" fill="#1A1A1A" width="69.764" height="9.745"/>
				<rect x="305.786" y="1081.071" fill="#4D4D4D" width="69.764" height="9.745"/>
				<rect x="305.786" y="1090.816" fill="#1A1A1A" width="69.764" height="9.742"/>
			</g>
			<rect x="321.827" y="639.303" fill="#FFF9B1" width="37.672" height="175.954"/>
			<rect x="313.805" y="1114.973" fill="#6FB8E7" width="53.715" height="34.585"/>
			<rect x="289.747" y="1149.558" fill="#EF845D" width="101.834" height="50.442"/>
			<rect x="321.827" y="816.856" fill="#1A1A1A" width="37.672" height="10.842"/>
			<rect x="321.827" y="1101.729" fill="#1A1A1A" width="37.672" height="10.842"/>
		</g>
	</g>
</g>
</svg>
