<?xml version="1.0" encoding="utf-8"?>
<!-- Generator: Adobe Illustrator 16.0.0, SVG Export Plug-In . SVG Version: 6.00 Build 0)  -->
<!DOCTYPE svg PUBLIC "-//W3C//DTD SVG 1.1//EN" "http://www.w3.org/Graphics/SVG/1.1/DTD/svg11.dtd">
<svg version="1.1" id="图层_1" xmlns="http://www.w3.org/2000/svg" xmlns:xlink="http://www.w3.org/1999/xlink" x="0px" y="0px"
	 width="506.265px" height="1200px" viewBox="0 0 506.265 1200" enable-background="new 0 0 506.265 1200" xml:space="preserve">
<g>
	<path fill="#1A1A1A" d="M301.557,127.686h-96.85c-0.499,1.001-1.016,1.984-1.449,3.019h99.75
		C302.572,129.67,302.059,128.687,301.557,127.686z"/>
	<path fill="#1A1A1A" d="M201.154,166.891h103.958c0.285-0.99,0.543-1.996,0.771-3.012h-105.5
		C200.611,164.895,200.869,165.901,201.154,166.891z"/>
	<path fill="#1A1A1A" d="M200.382,139.748c-0.226,0.997-0.411,2.002-0.581,3.016h106.662c-0.17-1.014-0.354-2.019-0.58-3.016
		H200.382z"/>
	<path fill="#1A1A1A" d="M199.138,154.825h107.989c0.059-0.999,0.154-1.989,0.154-3.006H198.983
		C198.983,152.836,199.082,153.826,199.138,154.825z"/>
	<path fill="#1A1A1A" d="M206.328,178.958h93.612c0.568-0.987,1.111-1.994,1.623-3.017h-96.856
		C205.218,176.963,205.754,177.971,206.328,178.958z"/>
	<path fill="#1A1A1A" d="M293.334,115.622H212.93c-0.879,0.978-1.727,1.985-2.535,3.021h85.474
		C295.064,117.606,294.215,116.599,293.334,115.622z"/>
	<path fill="#1A1A1A" d="M215.843,191.017h74.575c1.014-0.966,1.975-1.972,2.916-3.013h-80.4
		C213.87,189.045,214.832,190.05,215.843,191.017z"/>
	<path fill="#1A1A1A" d="M235.806,203.08h34.647c2.479-0.833,4.869-1.844,7.168-3.012H228.64
		C230.94,201.236,233.333,202.247,235.806,203.08z"/>
	<path fill="#1A1A1A" d="M277.625,103.566h-48.987c-1.802,0.913-3.559,1.909-5.232,3.011h59.45
		C281.18,105.475,279.424,104.479,277.625,103.566z"/>
	<path fill="#858585" d="M253.132,97.659c-8.827,0-17.136,2.157-24.494,5.907h48.987C270.264,99.816,261.959,97.659,253.132,97.659z
		"/>
	<path fill="#858585" d="M282.855,106.577h-59.45c-3.881,2.554-7.378,5.613-10.476,9.045h80.404
		C290.232,112.189,286.734,109.131,282.855,106.577z"/>
	<path fill="#858585" d="M295.869,118.642h-85.474c-2.181,2.81-4.083,5.833-5.688,9.043h96.85
		C299.959,124.476,298.051,121.452,295.869,118.642z"/>
	<path fill="#858585" d="M303.008,130.704h-99.75c-1.229,2.886-2.168,5.929-2.875,9.043h105.5
		C305.174,136.633,304.236,133.59,303.008,130.704z"/>
	<path fill="#858585" d="M198.983,151.819h108.298c0-3.095-0.32-6.107-0.818-9.056H199.801
		C199.302,145.712,198.983,148.725,198.983,151.819z"/>
	<path fill="#858585" d="M200.382,163.878h105.5c0.668-2.934,1.078-5.957,1.244-9.053H199.138
		C199.305,157.921,199.712,160.945,200.382,163.878z"/>
	<path fill="#858585" d="M204.707,175.94h96.856c1.434-2.881,2.637-5.9,3.549-9.05H201.154
		C202.067,170.041,203.268,173.059,204.707,175.94z"/>
	<path fill="#858585" d="M212.934,188.004h80.4c2.498-2.772,4.717-5.795,6.605-9.046h-93.612
		C208.216,182.208,210.436,185.232,212.934,188.004z"/>
	<path fill="#858585" d="M228.64,200.068h48.981c4.705-2.398,9.012-5.445,12.797-9.051h-74.575
		C219.631,194.623,223.938,197.67,228.64,200.068z"/>
	<path fill="#858585" d="M253.132,205.966c6.067,0,11.877-1.045,17.321-2.886h-34.647
		C241.25,204.921,247.061,205.966,253.132,205.966z"/>
	<path fill="#F5B090" d="M325.719,80.788H180.55v144.287h145.168V80.788z M253.132,214.518c-34.632,0-62.698-28.072-62.698-62.698
		c0-34.633,28.066-62.711,62.698-62.711c34.631,0,62.706,28.078,62.706,62.711C315.838,186.446,287.764,214.518,253.132,214.518z"/>
	<path fill="#C2C2C2" d="M253.132,89.108c-34.632,0-62.698,28.078-62.698,62.711c0,34.626,28.066,62.698,62.698,62.698
		c34.631,0,62.706-28.072,62.706-62.698C315.838,117.187,287.764,89.108,253.132,89.108z M253.132,211.385
		c-32.901,0-59.562-26.669-59.562-59.565c0-32.903,26.66-59.57,59.562-59.57c32.897,0,59.571,26.667,59.571,59.57
		C312.703,184.715,286.029,211.385,253.132,211.385z"/>
	<path fill="#1A1A1A" d="M253.132,92.249c-32.901,0-59.562,26.667-59.562,59.57c0,32.896,26.66,59.565,59.562,59.565
		c32.897,0,59.571-26.669,59.571-59.565C312.703,118.917,286.029,92.249,253.132,92.249z M307.281,151.819
		c0,1.017-0.096,2.007-0.154,3.006c-0.166,3.096-0.576,6.12-1.244,9.053c-0.229,1.017-0.486,2.022-0.771,3.012
		c-0.912,3.15-2.115,6.168-3.549,9.05c-0.512,1.023-1.055,2.03-1.623,3.017c-1.889,3.251-4.107,6.274-6.605,9.046
		c-0.941,1.041-1.902,2.046-2.916,3.013c-3.785,3.606-8.092,6.653-12.797,9.051c-2.299,1.168-4.689,2.179-7.168,3.012
		c-5.443,1.841-11.254,2.886-17.321,2.886c-6.071,0-11.883-1.045-17.326-2.886c-2.474-0.833-4.866-1.844-7.166-3.012
		c-4.702-2.398-9.009-5.445-12.797-9.051c-1.012-0.966-1.974-1.972-2.909-3.013c-2.498-2.772-4.718-5.795-6.606-9.046
		c-0.573-0.987-1.109-1.994-1.621-3.017c-1.438-2.881-2.64-5.9-3.553-9.05c-0.285-0.99-0.543-1.996-0.771-3.012
		c-0.67-2.934-1.077-5.957-1.244-9.053c-0.057-0.999-0.155-1.989-0.155-3.006c0-3.095,0.319-6.107,0.818-9.056
		c0.17-1.014,0.355-2.019,0.581-3.016c0.707-3.115,1.646-6.157,2.875-9.043c0.434-1.034,0.95-2.018,1.449-3.019
		c1.605-3.21,3.508-6.233,5.688-9.043c0.809-1.036,1.656-2.043,2.535-3.021c3.098-3.432,6.595-6.491,10.476-9.045
		c1.674-1.102,3.431-2.098,5.232-3.011c7.358-3.75,15.667-5.907,24.494-5.907c8.827,0,17.131,2.157,24.493,5.907
		c1.799,0.913,3.555,1.909,5.23,3.011c3.879,2.554,7.377,5.613,10.479,9.045c0.881,0.978,1.73,1.985,2.535,3.021
		c2.182,2.81,4.09,5.833,5.688,9.043c0.502,1.001,1.016,1.984,1.451,3.019c1.229,2.886,2.166,5.929,2.875,9.043
		c0.227,0.997,0.41,2.002,0.58,3.016C306.961,145.712,307.281,148.725,307.281,151.819z"/>
	<g>
		<rect x="196.762" y="40.699" fill="#4D4D4D" width="18.866" height="10.035"/>
		<rect x="202.003" y="50.479" fill="#858585" width="8.384" height="30.078"/>
		<rect x="290.646" y="40.699" fill="#4D4D4D" width="18.861" height="10.035"/>
		<g>
			<rect x="194.04" fill="#EF845D" width="24.312" height="39.291"/>
			<rect x="287.918" fill="#EF845D" width="24.316" height="39.291"/>
		</g>
		<rect x="295.885" y="50.479" fill="#858585" width="8.391" height="30.078"/>
	</g>
	<g>
		<polygon fill="#FFF9B1" points="348.473,481.894 348.473,262.288 291.205,262.288 215.064,262.288 157.799,262.288 
			157.799,481.894 		"/>
		<rect x="368.436" y="517.945" fill="#FFF9B1" width="41.932" height="102.257"/>
		<rect x="95.904" y="517.945" fill="#FFF9B1" width="41.929" height="102.257"/>
		<rect x="96.952" y="520.505" fill="#FFF9B1" width="39.832" height="97.14"/>
		<rect x="157.799" y="517.945" fill="#FFF9B1" width="190.673" height="102.257"/>
		<rect x="368.436" y="262.288" fill="#FFF9B1" width="41.932" height="219.605"/>
		<rect x="95.904" y="262.288" fill="#FFF9B1" width="41.929" height="219.605"/>
		<rect x="215.064" y="225.545" fill="#3E3A39" width="76.141" height="33.797"/>
		<polygon fill="#3E3A39" points="368.436,262.288 348.473,262.288 348.473,481.894 157.799,481.894 157.799,262.288 
			137.833,262.288 137.833,481.894 95.904,481.894 95.904,517.945 137.833,517.945 137.833,620.202 157.799,620.202 
			157.799,517.945 348.473,517.945 348.473,620.202 368.436,620.202 368.436,517.945 410.367,517.945 410.367,481.894 
			368.436,481.894 		"/>
	</g>
	<g>
		<rect x="63.229" y="281.257" fill="#1A1A1A" width="17.968" height="68.881"/>
		<rect x="82.696" y="287.249" fill="#4D4D4D" width="11.979" height="56.903"/>
		<rect x="49.75" y="287.249" fill="#4D4D4D" width="11.977" height="56.903"/>
		<g>
			<polygon fill="#C0DDF4" points="0,732.507 9.233,732.507 39.189,732.507 48.419,732.507 48.419,262.288 0,262.288 			"/>
			<polygon fill="#4D4D4D" points="9.233,752.475 17.225,752.475 31.201,752.475 39.189,752.475 39.189,732.507 9.233,732.507 			
				"/>
			<rect x="17.225" y="752.475" fill="#858585" width="13.976" height="65.887"/>
		</g>
	</g>
	<g>
		<rect x="425.07" y="281.257" fill="#1A1A1A" width="17.967" height="68.881"/>
		<rect x="411.6" y="287.249" fill="#4D4D4D" width="11.971" height="56.903"/>
		<rect x="444.537" y="287.249" fill="#4D4D4D" width="11.977" height="56.903"/>
		<g>
			<polygon fill="#C0DDF4" points="457.854,262.288 457.854,732.507 467.076,732.507 497.025,732.507 506.266,732.507 
				506.266,262.288 			"/>
			<polygon fill="#4D4D4D" points="467.076,752.475 475.068,752.475 489.041,752.475 497.025,752.475 497.025,732.507 
				467.076,732.507 			"/>
			<rect x="475.068" y="752.475" fill="#858585" width="13.973" height="65.887"/>
		</g>
	</g>
	<g>
		<polygon fill="#EF845D" points="200.284,1154.366 200.284,707.497 157.167,707.497 157.167,1154.366 162.975,1154.366 
			194.482,1154.366 		"/>
		<rect x="162.975" y="1154.366" fill="#858585" width="31.507" height="17.854"/>
		<polygon fill="#1A1A1A" points="162.975,1172.22 146.472,1172.22 146.472,1200 210.987,1200 210.987,1172.22 194.482,1172.22 		
			"/>
		<polygon fill="#EF845D" points="349.098,1154.366 349.098,707.497 305.982,707.497 305.982,1154.366 311.787,1154.366 
			343.297,1154.366 		"/>
		<rect x="311.787" y="1154.366" fill="#858585" width="31.51" height="17.854"/>
		<polygon fill="#1A1A1A" points="311.787,1172.22 295.285,1172.22 295.285,1200 359.799,1200 359.799,1172.22 343.297,1172.22 		
			"/>
	</g>
	<rect x="117.309" y="620.202" fill="#FDE3B3" width="272.537" height="89.259"/>
</g>
</svg>
