<?xml version="1.0" encoding="utf-8"?>
<!-- Generator: Adobe Illustrator 16.0.0, SVG Export Plug-In . SVG Version: 6.00 Build 0)  -->
<!DOCTYPE svg PUBLIC "-//W3C//DTD SVG 1.1//EN" "http://www.w3.org/Graphics/SVG/1.1/DTD/svg11.dtd">
<svg version="1.1" id="图层_1" xmlns="http://www.w3.org/2000/svg" xmlns:xlink="http://www.w3.org/1999/xlink" x="0px" y="0px"
	 width="722.905px" height="1200px" viewBox="0 0 722.905 1200" enable-background="new 0 0 722.905 1200" xml:space="preserve">
<g>
	<rect x="322.166" y="169.184" fill="#3E3A39" width="78.575" height="23.82"/>
	<rect x="301.956" y="193.004" fill="#6FB8E7" width="118.99" height="18.472"/>
	<g>
		<g>
			<path fill="#FDE3B3" d="M361.447,0c-43.768,0-79.269,35.49-79.269,79.263h158.537C440.715,35.49,405.227,0,361.447,0z"/>
		</g>
		<rect x="269.167" y="79.263" fill="#727171" width="184.553" height="19.316"/>
		<rect x="282.267" y="98.579" fill="#FCD489" width="158.358" height="70.605"/>
		<g>
			<rect x="332.843" y="26.516" fill="#727171" width="19.854" height="29.311"/>
			<rect x="333.832" y="27.982" fill="#3E3A39" width="17.881" height="26.378"/>
			<rect x="334.724" y="29.301" fill="#A4A4A5" width="16.086" height="23.743"/>
			<rect x="335.528" y="30.489" fill="#3E3A39" width="14.479" height="21.366"/>
			<rect x="370.201" y="26.516" fill="#727171" width="19.857" height="29.311"/>
			<rect x="371.211" y="27.982" fill="#3E3A39" width="17.85" height="26.378"/>
			<rect x="372.082" y="29.301" fill="#A4A4A5" width="16.09" height="23.743"/>
			<rect x="372.889" y="30.489" fill="#3E3A39" width="14.475" height="21.366"/>
		</g>
	</g>
	<rect x="113.426" y="213.31" fill="#FFF9B1" width="496.05" height="501.7"/>
	<g>
		<path fill="#D5D5D6" d="M509.34,464.158c0,81.679-66.205,147.891-147.886,147.891c-81.681,0-147.895-66.212-147.895-147.891
			c0-81.669,66.214-147.885,147.895-147.885C443.135,316.273,509.34,382.489,509.34,464.158z"/>
		<path fill="#3E3A39" d="M501.943,464.158c0,77.594-62.895,140.499-140.49,140.499c-77.592,0-140.495-62.905-140.495-140.499
			c0-77.592,62.903-140.49,140.495-140.49C439.049,323.668,501.943,386.566,501.943,464.158z"/>
		<path fill="#727171" d="M494.553,464.158c0,73.509-59.596,133.106-133.099,133.106c-73.513,0-133.09-59.598-133.09-133.106
			c0-73.503,59.577-133.096,133.09-133.096C434.957,331.063,494.553,390.655,494.553,464.158z"/>
	</g>
	<rect x="113.426" y="651.861" fill="#C0DDF4" width="496.05" height="31.887"/>
	<rect x="113.426" y="244.399" fill="#C0DDF4" width="496.05" height="31.884"/>
	<g>
		<g>
			<path fill="#3E3A39" d="M200.777,465.181c0,8.114-6.582,14.697-14.716,14.697c-8.121,0-14.704-6.583-14.704-14.697
				c0-8.125,6.583-14.715,14.704-14.715C194.195,450.466,200.777,457.056,200.777,465.181z"/>
			<path fill="#3E3A39" d="M197.838,465.181c0,6.493-5.277,11.749-11.777,11.749s-11.769-5.256-11.769-11.749
				c0-6.507,5.269-11.771,11.769-11.771S197.838,458.674,197.838,465.181z"/>
			<g>
				<rect x="176.616" y="463.459" fill="#727171" width="18.885" height="3.436"/>
				<rect x="184.352" y="455.721" fill="#727171" width="3.428" height="18.902"/>
			</g>
			<path fill="#3E3A39" d="M551.545,465.181c0,8.114-6.59,14.697-14.711,14.697s-14.703-6.583-14.703-14.697
				c0-8.125,6.582-14.715,14.703-14.715S551.545,457.056,551.545,465.181z"/>
			<path fill="#3E3A39" d="M548.609,465.181c0,6.493-5.268,11.749-11.775,11.749c-6.506,0-11.768-5.256-11.768-11.749
				c0-6.507,5.262-11.771,11.768-11.771C543.342,453.41,548.609,458.674,548.609,465.181z"/>
			<g>
				<rect x="527.385" y="463.459" fill="#727171" width="18.893" height="3.436"/>
				<rect x="535.113" y="455.721" fill="#727171" width="3.438" height="18.902"/>
			</g>
		</g>
	</g>
	<g>
		<g>
			<g>
				<g>
					<rect x="83.586" y="191.47" fill="#A4A4A5" width="29.729" height="189.945"/>
				</g>
				<rect x="67.501" y="237.655" fill="#3E3A39" width="15.117" height="97.58"/>
				<rect x="59.93" y="250.297" fill="#727171" width="7.571" height="72.294"/>
				<g>
					<rect x="17.366" y="264.251" fill="#EF845D" width="41.887" height="517.35"/>
					<polygon fill="#1A1A1A" points="68.308,812.126 68.308,781.601 59.253,781.601 17.366,781.601 8.321,781.601 8.321,812.126 
						30.532,812.126 46.087,812.126 					"/>
					<polygon fill="#4D4D4D" points="46.087,818.915 46.087,812.126 30.532,812.126 30.532,818.915 0,818.915 0,872.357 
						15.33,872.357 15.33,830.433 30.532,830.433 30.532,872.357 46.087,872.357 46.087,830.433 61.299,830.433 61.299,872.357 
						76.632,872.357 76.632,818.915 					"/>
				</g>
			</g>
		</g>
		<g>
			<g>
				<g>
					<rect x="609.578" y="191.47" fill="#A4A4A5" width="29.73" height="189.945"/>
				</g>
				<rect x="640.275" y="237.655" fill="#3E3A39" width="15.135" height="97.58"/>
				<rect x="655.41" y="250.297" fill="#727171" width="7.543" height="72.294"/>
				<g>
					<rect x="663.645" y="264.251" fill="#EF845D" width="41.881" height="517.35"/>
					<polygon fill="#1A1A1A" points="654.615,812.126 654.615,781.601 663.645,781.601 705.525,781.601 714.58,781.601 
						714.58,812.126 692.359,812.126 676.811,812.126 					"/>
					<polygon fill="#4D4D4D" points="676.811,818.915 676.811,812.126 692.359,812.126 692.359,818.915 722.904,818.915 
						722.904,872.357 707.572,872.357 707.572,830.433 692.359,830.433 692.359,872.357 676.811,872.357 676.811,830.433 
						661.594,830.433 661.594,872.357 646.273,872.357 646.273,818.915 					"/>
				</g>
			</g>
		</g>
	</g>
	<g>
		<g>
			<g>
				<g>
					<rect x="244.806" y="713.134" fill="#727171" width="41.245" height="23.968"/>
					<rect x="244.806" y="737.102" fill="#3E3A39" width="41.245" height="23.975"/>
					<rect x="244.806" y="761.076" fill="#727171" width="41.245" height="23.962"/>
					<rect x="244.806" y="785.038" fill="#3E3A39" width="41.245" height="23.968"/>
					<rect x="244.806" y="809.006" fill="#727171" width="41.245" height="23.975"/>
					<rect x="244.806" y="832.98" fill="#3E3A39" width="41.245" height="23.965"/>
					<rect x="244.806" y="856.945" fill="#727171" width="41.245" height="23.975"/>
					<rect x="244.806" y="880.92" fill="#3E3A39" width="41.245" height="23.965"/>
					<rect x="244.806" y="904.885" fill="#727171" width="41.245" height="23.971"/>
					<rect x="244.806" y="928.855" fill="#3E3A39" width="41.245" height="23.966"/>
					<rect x="244.806" y="952.821" fill="#727171" width="41.245" height="23.974"/>
					<rect x="244.806" y="976.795" fill="#3E3A39" width="41.245" height="23.962"/>
					<rect x="244.806" y="1000.757" fill="#727171" width="41.245" height="23.969"/>
					<rect x="244.806" y="1024.726" fill="#3E3A39" width="41.245" height="23.971"/>
					<rect x="244.806" y="1048.696" fill="#727171" width="41.245" height="23.968"/>
					<rect x="244.806" y="1072.664" fill="#3E3A39" width="41.245" height="23.966"/>
					<rect x="244.806" y="1096.63" fill="#727171" width="41.245" height="23.968"/>
				</g>
				<rect x="201.883" y="1120.598" fill="#4D4D4D" width="127.081" height="35.113"/>
				<rect x="185.572" y="1155.711" fill="#6FB8E7" width="159.72" height="44.289"/>
			</g>
		</g>
		<g>
			<g>
				<g>
					<rect x="436.844" y="713.134" fill="#727171" width="41.246" height="23.968"/>
					<rect x="436.844" y="737.102" fill="#3E3A39" width="41.246" height="23.975"/>
					<rect x="436.844" y="761.076" fill="#727171" width="41.246" height="23.962"/>
					<rect x="436.844" y="785.038" fill="#3E3A39" width="41.246" height="23.968"/>
					<rect x="436.844" y="809.006" fill="#727171" width="41.246" height="23.975"/>
					<rect x="436.844" y="832.98" fill="#3E3A39" width="41.246" height="23.965"/>
					<rect x="436.844" y="856.945" fill="#727171" width="41.246" height="23.975"/>
					<rect x="436.844" y="880.92" fill="#3E3A39" width="41.246" height="23.965"/>
					<rect x="436.844" y="904.885" fill="#727171" width="41.246" height="23.971"/>
					<rect x="436.844" y="928.855" fill="#3E3A39" width="41.246" height="23.966"/>
					<rect x="436.844" y="952.821" fill="#727171" width="41.246" height="23.974"/>
					<rect x="436.844" y="976.795" fill="#3E3A39" width="41.246" height="23.962"/>
					<rect x="436.844" y="1000.757" fill="#727171" width="41.246" height="23.969"/>
					<rect x="436.844" y="1024.726" fill="#3E3A39" width="41.246" height="23.971"/>
					<rect x="436.844" y="1048.696" fill="#727171" width="41.246" height="23.968"/>
					<rect x="436.844" y="1072.664" fill="#3E3A39" width="41.246" height="23.966"/>
					<rect x="436.844" y="1096.63" fill="#727171" width="41.246" height="23.968"/>
				</g>
				<rect x="393.928" y="1120.598" fill="#4D4D4D" width="127.072" height="35.113"/>
				<rect x="377.611" y="1155.711" fill="#6FB8E7" width="159.719" height="44.289"/>
			</g>
		</g>
	</g>
</g>
</svg>
