<?xml version="1.0" encoding="utf-8"?>
<!-- Generator: Adobe Illustrator 16.0.0, SVG Export Plug-In . SVG Version: 6.00 Build 0)  -->
<!DOCTYPE svg PUBLIC "-//W3C//DTD SVG 1.1//EN" "http://www.w3.org/Graphics/SVG/1.1/DTD/svg11.dtd">
<svg version="1.1" id="图层_1" xmlns="http://www.w3.org/2000/svg" xmlns:xlink="http://www.w3.org/1999/xlink" x="0px" y="0px"
	 width="574.073px" height="1200px" viewBox="0 0 574.073 1200" enable-background="new 0 0 574.073 1200" xml:space="preserve">
<g>
	<rect x="199.495" fill="#FCE1CE" width="175.083" height="210.137"/>
	<g>
		<g>
			<path fill="#3E3A39" d="M269.018,66.742c0,15.115-12.247,27.367-27.362,27.367c-15.111,0-27.361-12.252-27.361-27.367
				c0-15.107,12.25-27.357,27.361-27.357C256.771,39.385,269.018,51.635,269.018,66.742z"/>
			<path fill="#727171" d="M266.535,66.742c0,13.74-11.14,24.877-24.88,24.877c-13.736,0-24.876-11.137-24.876-24.877
				c0-13.735,11.14-24.873,24.876-24.873C255.396,41.869,266.535,53.007,266.535,66.742z"/>
			<g>
				<polygon fill="#858585" points="241.701,68.732 241.701,68.732 241.701,68.732 				"/>
				<rect x="241.7" y="68.733" fill="#858585" width="0.001" height="0"/>
				<rect x="241.701" y="68.732" fill="#858585" width="0" height="0"/>
				<polygon fill="#858585" points="241.701,68.734 241.701,68.732 241.701,68.732 				"/>
				<rect x="241.701" y="68.732" fill="#858585" width="0" height="0"/>
				<rect x="241.701" y="68.732" fill="#858585" width="0" height="0.001"/>
				<polygon fill="#858585" points="241.701,68.732 241.701,68.732 241.701,68.732 241.701,68.732 241.701,68.732 				"/>
				<polygon fill="#858585" points="241.697,68.732 241.697,68.732 241.701,68.732 				"/>
				<polygon fill="#858585" points="241.701,68.732 241.701,68.732 241.701,68.732 241.701,68.73 241.697,68.732 241.701,68.732 
									"/>
				<polygon fill="#858585" points="241.701,68.732 241.701,68.732 241.697,68.732 241.697,68.732 241.701,68.732 				"/>
				<rect x="241.697" y="68.732" fill="#858585" width="0.004" height="0"/>
				<rect x="241.698" y="68.731" fill="#858585" width="0.001" height="0.004"/>
				<polygon fill="#858585" points="241.701,68.732 241.701,68.732 241.701,68.732 				"/>
				<rect x="241.7" y="68.733" fill="#858585" width="0.001" height="0"/>
				<rect x="241.7" y="68.73" fill="#858585" width="0.001" height="0.001"/>
				<polygon fill="#858585" points="241.701,68.732 241.701,68.732 241.701,68.732 241.701,68.732 241.701,68.732 241.701,68.732 
									"/>
				<rect x="241.701" y="68.73" fill="#858585" width="0" height="0.002"/>
				<polygon fill="#858585" points="241.701,68.732 241.701,68.732 241.701,68.732 241.701,68.732 241.701,68.73 241.701,68.732 
									"/>
				<polygon fill="#858585" points="241.701,68.732 241.701,68.732 241.701,68.732 241.701,68.734 241.701,68.734 241.701,68.734 
									"/>
				<rect x="241.701" y="68.732" fill="#858585" width="0" height="0.001"/>
				<rect x="241.701" y="68.734" fill="#858585" width="0" height="0"/>
				<polygon fill="#858585" points="241.701,68.734 241.701,68.734 241.701,68.734 				"/>
				<polygon fill="#858585" points="241.701,68.732 241.701,68.732 241.701,68.732 				"/>
				<polygon fill="#858585" points="241.701,68.732 241.701,68.732 241.701,68.732 				"/>
				<polygon fill="#858585" points="241.701,68.732 241.701,68.732 241.701,68.732 				"/>
				<polygon fill="#858585" points="241.701,68.732 241.701,68.732 241.701,68.732 				"/>
				<polygon fill="#858585" points="241.701,68.734 241.701,68.732 241.701,68.732 				"/>
				<polygon fill="#858585" points="241.701,68.732 241.701,68.732 241.701,68.732 				"/>
				<rect x="241.699" y="68.732" fill="#858585" width="0" height="0.004"/>
				<polygon fill="#858585" points="241.701,68.734 241.701,68.734 241.701,68.734 				"/>
				<polygon fill="#858585" points="241.701,68.734 241.701,68.734 241.701,68.734 				"/>
				<polygon fill="#858585" points="241.701,68.732 241.701,68.732 241.701,68.732 				"/>
				<polygon fill="#858585" points="241.701,68.732 241.701,68.732 241.701,68.732 				"/>
				<polygon fill="#858585" points="241.697,68.734 241.697,68.734 241.697,68.734 				"/>
				<polygon fill="#858585" points="241.701,68.732 241.701,68.732 241.701,68.732 				"/>
				<polygon fill="#858585" points="241.701,68.732 241.701,68.732 241.701,68.732 				"/>
				<rect x="241.697" y="68.73" fill="#858585" width="0.004" height="0.001"/>
				<rect x="241.701" y="68.732" fill="#858585" width="0" height="0"/>
				<polygon fill="#858585" points="241.701,68.732 241.701,68.732 241.701,68.732 241.701,68.732 241.701,68.732 				"/>
				<polygon fill="#858585" points="241.701,68.732 241.701,68.732 241.701,68.732 241.701,68.732 241.701,68.732 				"/>
				<rect x="241.701" y="68.732" fill="#858585" width="0" height="0"/>
				<rect x="241.701" y="68.732" fill="#858585" width="0" height="0"/>
				<rect x="241.701" y="68.732" fill="#858585" width="0" height="0"/>
				<polygon fill="#858585" points="241.701,68.732 241.701,68.732 241.701,68.732 				"/>
				<rect x="241.701" y="68.732" fill="#858585" width="0" height="0"/>
				<polygon fill="#858585" points="241.701,68.734 241.701,68.734 241.701,68.734 				"/>
				<path fill="#858585" d="M241.697,68.73l-18.444-18.442c-1.501,1.681-2.777,3.569-3.776,5.616l22.221,12.828V68.73z"/>
				<path fill="#858585" d="M241.697,68.732l-24.304-6.513c-0.27,1.47-0.416,2.979-0.416,4.522c0,0.671,0.029,1.333,0.085,1.992
					L241.697,68.732L241.697,68.732z"/>
				<path fill="#858585" d="M241.697,68.734l-23.311,6.246c0.704,1.991,1.649,3.869,2.809,5.589L241.697,68.734L241.697,68.734z"/>
				<path fill="#858585" d="M248.594,43.002c-2.193-0.634-4.5-0.981-6.893-0.981v26.708L248.594,43.002z"/>
				<path fill="#858585" d="M241.697,68.729l-6.894-25.727c-2.254,0.652-4.376,1.62-6.317,2.847l13.211,22.882V68.729z"/>
				<polygon fill="#858585" points="241.701,68.73 241.701,68.729 241.701,42.021 241.697,42.021 241.697,68.729 				"/>
				<path fill="#858585" d="M241.701,68.734L241.701,68.734l5.901,22.021c1.962-0.481,3.839-1.197,5.591-2.119L241.701,68.734
					L241.701,68.734z"/>
				<path fill="#858585" d="M241.701,68.734L241.701,68.734l16.455,16.457c1.531-1.365,2.893-2.916,4.044-4.621L241.701,68.734
					L241.701,68.734z"/>
				<path fill="#858585" d="M241.701,68.732l18.444-18.447c-1.528-1.71-3.291-3.204-5.235-4.437L241.701,68.73V68.732z"/>
				<path fill="#858585" d="M235.8,90.755c1.888,0.464,3.86,0.712,5.897,0.712V68.734L235.8,90.755z"/>
				<path fill="#858585" d="M241.697,68.734L225.242,85.19c1.499,1.34,3.169,2.501,4.97,3.446L241.697,68.734L241.697,68.734z"/>
				<polygon fill="#858585" points="241.701,68.734 241.701,68.734 241.701,68.734 241.697,68.734 241.697,68.734 241.697,68.734 
					241.697,91.468 241.701,91.468 241.701,68.734 				"/>
				<rect x="241.697" y="68.734" fill="#858585" width="0" height="0"/>
				<rect x="241.697" y="68.734" fill="#858585" width="0" height="0"/>
				<polygon fill="#858585" points="241.697,68.734 241.697,68.734 241.697,68.734 				"/>
				<rect x="241.697" y="68.73" fill="#858585" width="0.004" height="0"/>
				<rect x="241.697" y="68.734" fill="#858585" width="0" height="0"/>
				<polygon fill="#858585" points="241.697,68.734 241.701,68.734 241.697,68.734 				"/>
				<rect x="241.697" y="68.732" fill="#858585" width="0" height="0"/>
				<rect x="241.697" y="68.732" fill="#858585" width="0" height="0"/>
				<rect x="241.696" y="68.731" fill="#858585" width="0.002" height="0.002"/>
				<rect x="241.697" y="68.734" fill="#858585" width="0" height="0"/>
				<polygon fill="#858585" points="241.701,68.732 241.701,68.732 241.701,68.734 241.697,68.734 241.701,68.734 241.701,68.734 
									"/>
				<rect x="241.697" y="68.732" fill="#858585" width="0" height="0.001"/>
				<path fill="#858585" d="M241.701,68.734l23.311,6.246c0.701-1.979,1.152-4.075,1.322-6.248h-24.633V68.734z"/>
				<rect x="241.7" y="68.733" fill="#858585" width="0.001" height="0"/>
				<path fill="#858585" d="M266.003,62.22c-0.411-2.225-1.114-4.345-2.081-6.319l-22.221,12.832L266.003,62.22z"/>
				<polygon fill="#858585" points="241.701,68.734 241.701,68.734 241.701,68.734 				"/>
				<polygon fill="#858585" points="241.701,68.734 241.701,68.734 241.701,68.734 241.701,68.734 241.701,68.734 				"/>
				<rect x="241.701" y="68.734" fill="#858585" width="0" height="0"/>
				<rect x="241.701" y="68.734" fill="#858585" width="0" height="0"/>
				<polygon fill="#858585" points="241.701,68.734 241.701,68.734 241.701,68.734 				"/>
				<polygon fill="#858585" points="241.701,68.734 241.701,68.734 241.701,68.734 241.701,68.734 241.701,68.734 				"/>
			</g>
			<path fill="#3E3A39" d="M253.386,66.742c0,6.479-5.255,11.73-11.73,11.73c-6.475,0-11.725-5.25-11.725-11.73
				c0-6.474,5.25-11.724,11.725-11.724C248.131,55.019,253.386,60.269,253.386,66.742z"/>
		</g>
		<g>
			<path fill="#3E3A39" d="M359.775,66.742c0,15.115-12.25,27.367-27.363,27.367c-15.109,0-27.361-12.252-27.361-27.367
				c0-15.107,12.252-27.357,27.361-27.357C347.525,39.385,359.775,51.635,359.775,66.742z"/>
			<path fill="#727171" d="M357.292,66.742c0,13.74-11.141,24.877-24.881,24.877s-24.871-11.137-24.871-24.877
				c0-13.735,11.131-24.873,24.871-24.873S357.292,53.007,357.292,66.742z"/>
			<g>
				<polygon fill="#858585" points="332.458,68.732 332.458,68.732 332.458,68.732 				"/>
				<rect x="332.458" y="68.733" fill="#858585" width="0.001" height="0"/>
				<rect x="332.458" y="68.732" fill="#858585" width="0" height="0"/>
				<polygon fill="#858585" points="332.458,68.734 332.458,68.732 332.458,68.732 				"/>
				<rect x="332.458" y="68.732" fill="#858585" width="0" height="0"/>
				<rect x="332.458" y="68.732" fill="#858585" width="0" height="0.001"/>
				<polygon fill="#858585" points="332.458,68.732 332.458,68.732 332.458,68.732 332.458,68.732 332.458,68.732 				"/>
				<polygon fill="#858585" points="332.455,68.732 332.455,68.732 332.458,68.732 				"/>
				<polygon fill="#858585" points="332.458,68.732 332.458,68.732 332.458,68.732 332.458,68.73 332.455,68.732 332.458,68.732 
									"/>
				<polygon fill="#858585" points="332.458,68.732 332.458,68.732 332.455,68.732 332.455,68.732 332.458,68.732 				"/>
				<rect x="332.455" y="68.732" fill="#858585" width="0.004" height="0"/>
				<rect x="332.456" y="68.731" fill="#858585" width="0.001" height="0.004"/>
				<polygon fill="#858585" points="332.458,68.732 332.458,68.732 332.458,68.732 				"/>
				<rect x="332.458" y="68.733" fill="#858585" width="0.001" height="0"/>
				<rect x="332.458" y="68.73" fill="#858585" width="0.001" height="0.001"/>
				<polygon fill="#858585" points="332.458,68.732 332.458,68.732 332.458,68.732 332.458,68.732 332.458,68.732 332.458,68.732 
									"/>
				<rect x="332.458" y="68.73" fill="#858585" width="0" height="0.002"/>
				<polygon fill="#858585" points="332.458,68.732 332.458,68.732 332.458,68.732 332.458,68.732 332.458,68.73 332.458,68.732 
									"/>
				<polygon fill="#858585" points="332.458,68.732 332.458,68.732 332.458,68.732 332.458,68.734 332.458,68.734 332.458,68.734 
									"/>
				<rect x="332.458" y="68.732" fill="#858585" width="0" height="0.001"/>
				<rect x="332.458" y="68.734" fill="#858585" width="0" height="0"/>
				<polygon fill="#858585" points="332.458,68.734 332.458,68.734 332.458,68.734 				"/>
				<polygon fill="#858585" points="332.458,68.732 332.458,68.732 332.458,68.732 				"/>
				<polygon fill="#858585" points="332.458,68.732 332.458,68.732 332.458,68.732 				"/>
				<polygon fill="#858585" points="332.458,68.732 332.458,68.732 332.458,68.732 				"/>
				<polygon fill="#858585" points="332.458,68.732 332.458,68.732 332.458,68.732 				"/>
				<polygon fill="#858585" points="332.458,68.734 332.458,68.732 332.458,68.732 				"/>
				<polygon fill="#858585" points="332.458,68.732 332.458,68.732 332.458,68.732 				"/>
				<rect x="332.457" y="68.732" fill="#858585" width="0" height="0.004"/>
				<polygon fill="#858585" points="332.458,68.734 332.458,68.734 332.458,68.734 				"/>
				<polygon fill="#858585" points="332.458,68.734 332.458,68.734 332.458,68.734 				"/>
				<polygon fill="#858585" points="332.458,68.732 332.458,68.732 332.458,68.732 				"/>
				<polygon fill="#858585" points="332.458,68.732 332.458,68.732 332.458,68.732 				"/>
				<polygon fill="#858585" points="332.455,68.734 332.455,68.734 332.455,68.734 				"/>
				<polygon fill="#858585" points="332.458,68.732 332.458,68.732 332.458,68.732 				"/>
				<polygon fill="#858585" points="332.458,68.732 332.458,68.732 332.458,68.732 				"/>
				<rect x="332.454" y="68.73" fill="#858585" width="0.004" height="0.001"/>
				<rect x="332.458" y="68.732" fill="#858585" width="0" height="0"/>
				<polygon fill="#858585" points="332.458,68.732 332.458,68.732 332.458,68.732 332.458,68.732 332.458,68.732 				"/>
				<polygon fill="#858585" points="332.458,68.732 332.458,68.732 332.458,68.732 332.458,68.732 332.458,68.732 				"/>
				<rect x="332.458" y="68.732" fill="#858585" width="0" height="0"/>
				<rect x="332.458" y="68.732" fill="#858585" width="0" height="0"/>
				<rect x="332.458" y="68.732" fill="#858585" width="0" height="0"/>
				<polygon fill="#858585" points="332.458,68.732 332.458,68.732 332.458,68.732 				"/>
				<rect x="332.458" y="68.732" fill="#858585" width="0" height="0"/>
				<polygon fill="#858585" points="332.458,68.734 332.458,68.734 332.458,68.734 				"/>
				<path fill="#858585" d="M332.455,68.73l-18.441-18.442c-1.502,1.681-2.779,3.569-3.779,5.616l22.221,12.828V68.73z"/>
				<path fill="#858585" d="M332.455,68.732l-24.303-6.513c-0.27,1.47-0.418,2.979-0.418,4.522c0,0.671,0.029,1.333,0.082,1.992
					L332.455,68.732L332.455,68.732z"/>
				<path fill="#858585" d="M332.455,68.734l-23.311,6.246c0.703,1.991,1.648,3.869,2.809,5.589L332.455,68.734L332.455,68.734z"/>
				<path fill="#858585" d="M339.353,43.002c-2.193-0.634-4.5-0.981-6.895-0.981v26.708L339.353,43.002z"/>
				<path fill="#858585" d="M332.455,68.729l-6.896-25.727c-2.254,0.652-4.373,1.62-6.316,2.847l13.213,22.882V68.729z"/>
				<polygon fill="#858585" points="332.458,68.73 332.458,68.729 332.458,42.021 332.455,42.021 332.455,68.729 				"/>
				<path fill="#858585" d="M332.458,68.734L332.458,68.734l5.9,22.021c1.963-0.481,3.84-1.197,5.592-2.119L332.458,68.734
					L332.458,68.734z"/>
				<path fill="#858585" d="M332.458,68.734L332.458,68.734l16.457,16.457c1.527-1.365,2.891-2.916,4.043-4.621L332.458,68.734
					L332.458,68.734z"/>
				<path fill="#858585" d="M332.458,68.732l18.445-18.447c-1.527-1.71-3.293-3.204-5.234-4.437L332.458,68.73V68.732z"/>
				<path fill="#858585" d="M326.554,90.755c1.895,0.464,3.863,0.712,5.9,0.712V68.734L326.554,90.755z"/>
				<path fill="#858585" d="M332.455,68.734L316.001,85.19c1.498,1.34,3.168,2.501,4.965,3.446L332.455,68.734L332.455,68.734z"/>
				<polygon fill="#858585" points="332.458,68.734 332.458,68.734 332.458,68.734 332.455,68.734 332.455,68.734 332.455,68.734 
					332.455,91.468 332.458,91.468 332.458,68.734 				"/>
				<rect x="332.455" y="68.734" fill="#858585" width="0" height="0"/>
				<rect x="332.455" y="68.734" fill="#858585" width="0" height="0"/>
				<polygon fill="#858585" points="332.455,68.734 332.455,68.734 332.455,68.734 				"/>
				<rect x="332.455" y="68.73" fill="#858585" width="0.004" height="0"/>
				<rect x="332.455" y="68.734" fill="#858585" width="0" height="0"/>
				<polygon fill="#858585" points="332.455,68.734 332.458,68.734 332.455,68.734 				"/>
				<rect x="332.455" y="68.732" fill="#858585" width="0" height="0"/>
				<rect x="332.455" y="68.732" fill="#858585" width="0" height="0"/>
				<rect x="332.454" y="68.731" fill="#858585" width="0.002" height="0.002"/>
				<rect x="332.455" y="68.734" fill="#858585" width="0" height="0"/>
				<polygon fill="#858585" points="332.458,68.732 332.458,68.732 332.458,68.734 332.455,68.734 332.458,68.734 332.458,68.734 
									"/>
				<rect x="332.455" y="68.732" fill="#858585" width="0" height="0.001"/>
				<path fill="#858585" d="M332.458,68.734l23.313,6.246c0.697-1.979,1.152-4.075,1.322-6.248h-24.635V68.734z"/>
				<rect x="332.458" y="68.733" fill="#858585" width="0.001" height="0"/>
				<path fill="#858585" d="M356.757,62.22c-0.408-2.225-1.111-4.345-2.08-6.319l-22.219,12.832L356.757,62.22z"/>
				<polygon fill="#858585" points="332.458,68.734 332.458,68.734 332.458,68.734 				"/>
				<polygon fill="#858585" points="332.458,68.734 332.458,68.734 332.458,68.734 332.458,68.734 332.458,68.734 				"/>
				<rect x="332.458" y="68.734" fill="#858585" width="0" height="0"/>
				<rect x="332.458" y="68.734" fill="#858585" width="0" height="0"/>
				<polygon fill="#858585" points="332.458,68.734 332.458,68.734 332.458,68.734 				"/>
				<polygon fill="#858585" points="332.458,68.734 332.458,68.734 332.458,68.734 332.458,68.734 332.458,68.734 				"/>
			</g>
			<path fill="#3E3A39" d="M344.14,66.742c0,6.479-5.252,11.73-11.729,11.73s-11.721-5.25-11.721-11.73
				c0-6.474,5.244-11.724,11.721-11.724S344.14,60.269,344.14,66.742z"/>
		</g>
	</g>
	<rect x="234.97" y="158.592" fill="#3E3A39" width="104.133" height="29.307"/>
	<rect x="234.97" y="187.637" fill="#727171" width="104.133" height="6.331"/>
	<rect x="234.97" y="154.252" fill="#727171" width="104.133" height="6.331"/>
	<rect x="249.31" y="215.584" fill="#3E3A39" width="75.454" height="24.05"/>
	<rect x="197.709" y="239.506" fill="#727171" width="178.654" height="12.276"/>
	<rect x="197.709" y="251.905" fill="#FFF67F" width="178.654" height="35.701"/>
	<rect x="89.336" y="288.755" fill="#9BCAED" width="395.398" height="479.927"/>
	<path fill="#3E3A39" d="M477.83,528.713c0,105.372-85.426,190.796-190.796,190.796c-105.369,0-190.792-85.424-190.792-190.796
		c0-105.364,85.423-190.79,190.792-190.79C392.404,337.923,477.83,423.349,477.83,528.713z"/>
	<path fill="#727171" d="M460.486,528.715c0,95.795-77.66,173.452-173.45,173.452c-95.789,0-173.45-77.657-173.45-173.452
		c0-95.789,77.661-173.448,173.45-173.448C382.826,355.267,460.486,432.926,460.486,528.715z"/>
	<g>
		<g>
			<path fill="#D5D5D6" d="M287.036,355.267c-95.789,0-173.45,77.659-173.45,173.448c0,95.795,77.661,173.452,173.45,173.452
				c95.79,0,173.45-77.657,173.45-173.452C460.486,432.926,382.826,355.267,287.036,355.267z M287.036,693.494
				c-91.003,0-164.775-73.771-164.775-164.779c0-90.999,73.772-164.773,164.775-164.773c90.999,0,164.774,73.774,164.774,164.773
				C451.81,619.723,378.035,693.494,287.036,693.494z"/>
		</g>
		<g>
			<path fill="#D5D5D6" d="M287.036,389.956c-76.631,0-138.762,62.131-138.762,138.759c0,76.635,62.131,138.764,138.762,138.764
				c76.633,0,138.762-62.129,138.762-138.764C425.798,452.087,363.669,389.956,287.036,389.956z M287.036,660.538
				c-72.799,0-131.824-59.02-131.824-131.823c0-72.799,59.025-131.821,131.824-131.821c72.797,0,131.821,59.022,131.821,131.821
				C418.857,601.519,359.833,660.538,287.036,660.538z"/>
		</g>
		<g>
			<path fill="#D5D5D6" d="M287.036,417.708c-61.306,0-111.008,49.704-111.008,111.007c0,61.308,49.702,111.014,111.008,111.014
				c61.305,0,111.008-49.706,111.008-111.014C398.044,467.412,348.341,417.708,287.036,417.708z M287.036,634.177
				c-58.241,0-105.458-47.217-105.458-105.462c0-58.24,47.217-105.457,105.458-105.457c58.237,0,105.458,47.217,105.458,105.457
				C392.494,586.96,345.273,634.177,287.036,634.177z"/>
		</g>
		<g>
			<path fill="#D5D5D6" d="M287.036,439.909c-49.044,0-88.809,39.764-88.809,88.806c0,49.044,39.765,88.811,88.809,88.811
				c49.047,0,88.807-39.767,88.807-88.811C375.843,479.673,336.083,439.909,287.036,439.909z M287.036,613.084
				c-46.591,0-84.364-37.774-84.364-84.369c0-46.591,37.773-84.364,84.364-84.364c46.594,0,84.364,37.773,84.364,84.364
				C371.4,575.31,333.63,613.084,287.036,613.084z"/>
		</g>
		<g>
			<path fill="#D5D5D6" d="M287.036,457.666c-39.235,0-71.045,31.817-71.045,71.049c0,39.235,31.81,71.049,71.045,71.049
				c39.239,0,71.045-31.813,71.045-71.049C358.082,489.483,326.275,457.666,287.036,457.666z M287.036,596.209
				c-37.274,0-67.492-30.218-67.492-67.494c0-37.271,30.218-67.489,67.492-67.489c37.276,0,67.493,30.219,67.493,67.489
				C354.529,565.991,324.312,596.209,287.036,596.209z"/>
		</g>
		<g>
			<path fill="#D5D5D6" d="M287.036,471.877c-31.387,0-56.837,25.454-56.837,56.838c0,31.386,25.45,56.84,56.837,56.84
				c31.389,0,56.834-25.454,56.834-56.84C343.871,497.331,318.425,471.877,287.036,471.877z M287.036,582.713
				c-29.819,0-53.994-24.175-53.994-53.998c0-29.818,24.175-53.994,53.994-53.994c29.819,0,53.993,24.176,53.993,53.994
				C341.029,558.538,316.855,582.713,287.036,582.713z"/>
		</g>
	</g>
	<g>
		<circle fill="#3E3A39" cx="116.698" cy="313.76" r="14.284"/>
		<circle fill="#3E3A39" cx="116.697" cy="313.76" r="11.426"/>
		<g>
			<rect x="107.523" y="312.089" fill="#727171" width="18.347" height="3.337"/>
			<rect x="115.028" y="304.583" fill="#727171" width="3.339" height="18.354"/>
		</g>
		<path fill="#3E3A39" d="M471.658,313.76c0,7.888-6.395,14.281-14.283,14.281c-7.885,0-14.283-6.394-14.283-14.281
			s6.398-14.285,14.283-14.285C465.263,299.475,471.658,305.872,471.658,313.76z"/>
		<path fill="#3E3A39" d="M468.806,313.76c0,6.312-5.119,11.426-11.432,11.426c-6.309,0-11.426-5.114-11.426-11.426
			c0-6.313,5.117-11.428,11.426-11.428C463.687,302.332,468.806,307.447,468.806,313.76z"/>
		<g>
			<rect x="448.201" y="312.089" fill="#727171" width="18.354" height="3.337"/>
			<rect x="455.712" y="304.583" fill="#727171" width="3.336" height="18.354"/>
		</g>
	</g>
	<g>
		<path fill="#3E3A39" d="M130.981,743.006c0,7.889-6.396,14.279-14.283,14.279c-7.89,0-14.284-6.391-14.284-14.279
			c0-7.89,6.395-14.287,14.284-14.287C124.586,728.719,130.981,735.116,130.981,743.006z"/>
		<path fill="#3E3A39" d="M128.123,743.006c0,6.309-5.116,11.425-11.425,11.425c-6.313,0-11.428-5.116-11.428-11.425
			c0-6.313,5.115-11.43,11.428-11.43C123.007,731.576,128.123,736.693,128.123,743.006z"/>
		<g>
			<rect x="107.523" y="741.333" fill="#727171" width="18.347" height="3.342"/>
			<rect x="115.028" y="733.825" fill="#727171" width="3.339" height="18.356"/>
		</g>
		<path fill="#3E3A39" d="M471.658,743.006c0,7.889-6.395,14.279-14.283,14.279c-7.885,0-14.283-6.391-14.283-14.279
			c0-7.89,6.398-14.287,14.283-14.287C465.263,728.719,471.658,735.116,471.658,743.006z"/>
		<path fill="#3E3A39" d="M468.806,743.006c0,6.309-5.119,11.425-11.432,11.425c-6.309,0-11.426-5.116-11.426-11.425
			c0-6.313,5.117-11.43,11.426-11.43C463.687,731.576,468.806,736.693,468.806,743.006z"/>
		<g>
			<rect x="448.201" y="741.333" fill="#727171" width="18.354" height="3.342"/>
			<rect x="455.712" y="733.825" fill="#727171" width="3.336" height="18.356"/>
		</g>
	</g>
	<g>
		<g>
			<rect x="172.158" y="40.024" fill="#727171" width="26.9" height="91.267"/>
			<rect x="147.842" y="56.65" fill="#A4A4A5" width="24.316" height="58.013"/>
		</g>
		<g>
			<rect x="375.013" y="40.024" fill="#727171" width="26.9" height="91.267"/>
			<rect x="401.914" y="56.65" fill="#A4A4A5" width="24.316" height="58.013"/>
		</g>
	</g>
	<g>
		<g>
			<rect x="70.604" y="372.046" fill="#3E3A39" width="18.421" height="92.68"/>
			<rect x="60.677" y="380.747" fill="#A4A4A5" width="7.766" height="74.768"/>
			<rect x="45.788" y="380.747" fill="#3E3A39" width="12.665" height="74.768"/>
			<polygon fill="#858585" points="47.322,793.396 47.322,794.061 45.788,794.061 17.138,794.061 0,794.061 0,796.465 0,817.284 
				0,847.988 15.603,847.988 15.603,817.284 47.322,817.284 47.322,847.988 62.924,847.988 62.924,793.396 			"/>
			<rect x="17.138" y="355.267" fill="#EF845D" width="28.649" height="438.794"/>
		</g>
		<g>
			<rect x="485.046" y="372.046" fill="#3E3A39" width="18.42" height="92.68"/>
			<rect x="505.632" y="380.747" fill="#A4A4A5" width="7.76" height="74.768"/>
			<rect x="515.623" y="380.747" fill="#3E3A39" width="12.662" height="74.768"/>
			<polygon fill="#858585" points="526.751,793.396 526.751,794.061 528.285,794.061 556.939,794.061 574.074,794.061 
				574.074,796.465 574.074,817.284 574.074,847.988 558.472,847.988 558.472,817.284 526.751,817.284 526.751,847.988 
				511.15,847.988 511.15,793.396 			"/>
			<rect x="528.285" y="355.267" fill="#EF845D" width="28.654" height="438.794"/>
		</g>
	</g>
	<g>
		<g>
			<rect x="197.463" y="768.682" fill="#3E3A39" width="32.485" height="371.97"/>
			<rect x="175.003" y="1144.744" fill="#FFF67F" width="77.403" height="34.79"/>
			<rect x="175.003" y="1182.604" fill="#A4A4A5" width="77.403" height="17.395"/>
		</g>
		<g>
			<rect x="344.121" y="768.682" fill="#3E3A39" width="32.486" height="371.97"/>
			<rect x="321.662" y="1144.744" fill="#FFF67F" width="77.406" height="34.79"/>
			<rect x="321.662" y="1182.604" fill="#A4A4A5" width="77.406" height="17.395"/>
		</g>
	</g>
</g>
</svg>
