<?xml version="1.0" encoding="utf-8"?>
<!-- Generator: Adobe Illustrator 16.0.0, SVG Export Plug-In . SVG Version: 6.00 Build 0)  -->
<!DOCTYPE svg PUBLIC "-//W3C//DTD SVG 1.1//EN" "http://www.w3.org/Graphics/SVG/1.1/DTD/svg11.dtd">
<svg version="1.1" id="图层_1" xmlns="http://www.w3.org/2000/svg" xmlns:xlink="http://www.w3.org/1999/xlink" x="0px" y="0px"
	 width="196.081px" height="1200px" viewBox="0 0 196.081 1200" enable-background="new 0 0 196.081 1200" xml:space="preserve">
<g>
	<polygon fill="#A4A4A5" points="56.539,113.236 53.721,113.236 56.539,115.252 	"/>
	<g>
		<path fill="#A4A4A5" d="M196.081,53.089c0,1.608-1.343,2.911-3.001,2.911H3.001C1.343,56,0,54.698,0,53.089V2.912
			C0,1.304,1.343,0,3.001,0H193.08c1.658,0,3.001,1.304,3.001,2.912V53.089z"/>
		<polygon fill="#858585" points="52.022,301.147 144.058,323.622 144.058,297.108 52.022,274.632 		"/>
		<path fill="#858585" d="M52.022,1197c0,1.654,1.343,3,3.004,3h86.031c1.658,0,3.001-1.346,3.001-3V937.373l-92.036-22.475V1197z"
			/>
		<polygon fill="#858585" points="52.022,741.33 144.058,763.805 144.058,737.291 52.022,714.814 		"/>
		<polygon fill="#858585" points="52.022,901.396 144.058,923.871 144.058,897.357 52.022,874.881 		"/>
		<polygon fill="#858585" points="52.022,261.13 144.058,283.607 144.058,257.091 52.022,234.617 		"/>
		<polygon fill="#858585" points="52.022,501.23 144.058,523.706 144.058,497.193 52.022,474.716 		"/>
		<polygon fill="#858585" points="52.022,341.165 144.058,363.638 144.058,337.126 52.022,314.65 		"/>
		<polygon fill="#858585" points="52.022,461.212 144.058,483.688 144.058,457.176 52.022,434.7 		"/>
		<polygon fill="#858585" points="52.022,821.361 144.058,843.838 144.058,817.326 52.022,794.85 		"/>
		<polygon fill="#858585" points="52.022,421.197 144.058,443.671 144.058,417.158 52.022,394.681 		"/>
		<polygon fill="#858585" points="52.022,701.313 144.058,723.785 144.058,697.273 52.022,674.799 		"/>
		<polygon fill="#858585" points="52.022,381.179 144.058,403.656 144.058,377.143 52.022,354.667 		"/>
		<polygon fill="#858585" points="52.022,861.379 144.058,883.855 144.058,857.342 52.022,834.863 		"/>
		<polygon fill="#858585" points="52.022,781.346 144.058,803.818 144.058,777.309 52.022,754.832 		"/>
		<polygon fill="#858585" points="52.022,114.565 52.022,141.08 144.058,163.555 144.058,137.042 		"/>
		<polygon fill="#858585" points="52.022,221.114 144.058,243.588 144.058,217.076 52.022,194.599 		"/>
		<path fill="#858585" d="M143.811,62.82c0-1.655-1.342-3-3.001-3H54.774c-1.045,0-1.966,0.537-2.505,1.349l91.542,22.353V62.82z"/>
		<polygon fill="#858585" points="52.022,581.264 144.058,603.738 144.058,577.226 52.022,554.75 		"/>
		<polygon fill="#858585" points="144.058,97.025 52.022,74.55 52.022,101.063 144.058,123.539 		"/>
		<polygon fill="#858585" points="52.022,621.279 144.058,643.756 144.058,617.242 52.022,594.766 		"/>
		<polygon fill="#858585" points="52.022,661.295 144.058,683.771 144.058,657.258 52.022,634.781 		"/>
		<polygon fill="#858585" points="52.022,541.246 144.058,563.721 144.058,537.208 52.022,514.732 		"/>
		<polygon fill="#858585" points="52.022,181.097 144.058,203.572 144.058,177.059 52.022,154.583 		"/>
	</g>
</g>
</svg>
