<?xml version="1.0" encoding="utf-8"?>
<!-- Generator: Adobe Illustrator 16.0.0, SVG Export Plug-In . SVG Version: 6.00 Build 0)  -->
<!DOCTYPE svg PUBLIC "-//W3C//DTD SVG 1.1//EN" "http://www.w3.org/Graphics/SVG/1.1/DTD/svg11.dtd">
<svg version="1.1" id="图层_1" xmlns="http://www.w3.org/2000/svg" xmlns:xlink="http://www.w3.org/1999/xlink" x="0px" y="0px"
	 width="1200px" height="1200px" viewBox="0 0 1200 1200" enable-background="new 0 0 1200 1200" xml:space="preserve">
<g>
	<path fill="#4D4D4D" d="M1200,710.203V489.797h-176.243c-10.271-39.621-25.975-77.047-46.233-111.467l124.662-124.668
		L946.338,97.814L821.676,222.477c-34.426-20.26-71.856-35.962-111.473-46.233V0H489.792v176.243
		c-39.616,10.277-77.042,25.974-111.468,46.233L253.662,97.814L97.809,253.662L222.471,378.33
		c-20.253,34.42-35.956,71.846-46.228,111.467H0v220.406h176.243c10.271,39.621,25.975,77.047,46.233,111.473L97.809,946.344
		l155.854,155.848L378.33,977.523c34.42,20.26,71.846,35.961,111.462,46.232V1200h220.411v-176.244
		c39.616-10.271,77.041-25.973,111.467-46.227l124.668,124.662l155.848-155.848L977.523,821.676
		c20.259-34.421,35.962-71.852,46.233-111.473H1200z M599.997,993.98c-217.586,0-393.978-176.392-393.978-393.983
		c0-217.586,176.392-393.978,393.978-393.978c217.592,0,393.988,176.392,393.988,393.978
		C993.985,817.589,817.589,993.98,599.997,993.98z"/>
	<path fill="#858585" d="M599.997,206.02c-217.586,0-393.978,176.392-393.978,393.978c0,217.592,176.392,393.983,393.978,393.983
		c217.592,0,393.988-176.392,393.988-393.983C993.985,382.411,817.589,206.02,599.997,206.02z M599.997,954.582
		c-195.825,0-354.574-158.749-354.574-354.585c0-195.825,158.749-354.574,354.574-354.574
		c195.836,0,354.585,158.749,354.585,354.574C954.582,795.833,795.833,954.582,599.997,954.582z"/>
	<path fill="#C2C2C2" d="M954.582,599.997c0-195.825-158.749-354.574-354.585-354.574c-195.825,0-354.574,158.749-354.574,354.574
		c0,195.836,158.749,354.585,354.574,354.585C795.833,954.582,954.582,795.833,954.582,599.997z M599.997,919.124
		c-176.243,0-319.115-142.878-319.115-319.127c0-176.243,142.872-319.121,319.115-319.121
		c176.255,0,319.127,142.878,319.127,319.121C919.124,776.246,776.252,919.124,599.997,919.124z"/>
	<path fill="#3E3A39" d="M919.124,599.997c0-176.243-142.872-319.121-319.127-319.121c-176.243,0-319.115,142.878-319.115,319.121
		c0,176.249,142.872,319.127,319.115,319.127C776.252,919.124,919.124,776.246,919.124,599.997z M752.644,599.997
		c0,84.303-68.338,152.636-152.646,152.636c-84.292,0-152.63-68.333-152.63-152.636c0-84.297,68.338-152.636,152.63-152.636
		C684.306,447.361,752.644,515.7,752.644,599.997z"/>
	<path fill="#C2C2C2" d="M599.997,447.361c-84.292,0-152.63,68.339-152.63,152.636c0,84.303,68.338,152.636,152.63,152.636
		c84.309,0,152.646-68.333,152.646-152.636C752.644,515.7,684.306,447.361,599.997,447.361z M737.384,599.997
		c0,75.867-61.509,137.37-137.387,137.37c-75.861,0-137.364-61.503-137.364-137.37s61.503-137.37,137.364-137.37
		C675.875,462.627,737.384,524.13,737.384,599.997z"/>
	<path fill="#4D4D4D" d="M599.997,462.627c-75.861,0-137.364,61.503-137.364,137.37s61.503,137.37,137.364,137.37
		c75.878,0,137.387-61.503,137.387-137.37S675.875,462.627,599.997,462.627z M599.997,711.269
		c-61.443,0-111.26-49.817-111.26-111.271s49.816-111.271,111.26-111.271c61.465,0,111.276,49.816,111.276,111.271
		S661.462,711.269,599.997,711.269z"/>
	<path fill="#858585" d="M599.997,488.727c-61.443,0-111.26,49.816-111.26,111.271s49.816,111.271,111.26,111.271
		c61.465,0,111.276-49.817,111.276-111.271S661.462,488.727,599.997,488.727z"/>
</g>
</svg>
