<?xml version="1.0" encoding="utf-8"?>
<!-- Generator: Adobe Illustrator 16.0.0, SVG Export Plug-In . SVG Version: 6.00 Build 0)  -->
<!DOCTYPE svg PUBLIC "-//W3C//DTD SVG 1.1//EN" "http://www.w3.org/Graphics/SVG/1.1/DTD/svg11.dtd">
<svg version="1.1" id="图层_1" xmlns="http://www.w3.org/2000/svg" xmlns:xlink="http://www.w3.org/1999/xlink" x="0px" y="0px"
	 width="534.489px" height="1200px" viewBox="0 0 534.489 1200" enable-background="new 0 0 534.489 1200" xml:space="preserve">
<g>
	<path fill="none" d="M507.758,383.851c-43.309,89.163-134.73,150.632-240.518,150.632c-105.784,0-197.206-61.469-240.515-150.632
		v31.513V695.67v120.477c43.309-89.166,134.73-150.633,240.515-150.633c105.788,0,197.209,61.467,240.518,150.633V695.67V415.364
		V383.851z"/>
	<path fill="#CCCCCC" d="M267.24,507.757c132.836,0,240.518-107.681,240.518-240.518c0-132.833-107.682-240.514-240.518-240.514
		c-132.831,0-240.515,107.681-240.515,240.514C26.726,400.077,134.409,507.757,267.24,507.757z M267.24,50.778
		c119.551,0,216.467,96.913,216.467,216.462c0,119.553-96.916,216.469-216.467,216.469c-119.55,0-216.465-96.916-216.465-216.469
		C50.775,147.691,147.69,50.778,267.24,50.778z"/>
	<path fill="#202231" d="M267.24,483.708c119.551,0,216.467-96.916,216.467-216.469c0-119.549-96.916-216.462-216.467-216.462
		c-119.55,0-216.465,96.913-216.465,216.462C50.775,386.792,147.69,483.708,267.24,483.708z M267.24,174.064
		c51.465,0,93.186,41.713,93.186,93.175c0,51.465-41.721,93.185-93.186,93.185c-51.459,0-93.176-41.72-93.176-93.185
		C174.064,215.778,215.781,174.064,267.24,174.064z"/>
	<path fill="#B3B3B3" d="M267.24,360.424c51.465,0,93.186-41.72,93.186-93.185c0-51.462-41.721-93.175-93.186-93.175
		c-51.459,0-93.176,41.713-93.176,93.175C174.064,318.705,215.781,360.424,267.24,360.424z M267.24,183.38
		c46.319,0,83.87,37.546,83.87,83.86c0,46.32-37.551,83.866-83.87,83.866c-46.312,0-83.857-37.546-83.857-83.866
		C183.383,220.926,220.929,183.38,267.24,183.38z"/>
	<path fill="#202231" d="M267.24,351.106c46.319,0,83.87-37.546,83.87-83.866c0-46.313-37.551-83.86-83.87-83.86
		c-46.312,0-83.857,37.546-83.857,83.86C183.383,313.56,220.929,351.106,267.24,351.106z M267.24,191.768
		c41.688,0,75.481,33.789,75.481,75.472c0,41.687-33.793,75.481-75.481,75.481c-41.681,0-75.473-33.795-75.473-75.481
		C191.768,225.557,225.56,191.768,267.24,191.768z"/>
	<path fill="#808080" d="M267.24,342.721c41.688,0,75.481-33.795,75.481-75.481c0-41.683-33.793-75.472-75.481-75.472
		c-41.681,0-75.473,33.789-75.473,75.472C191.768,308.926,225.56,342.721,267.24,342.721z M267.24,199.315
		c37.522,0,67.934,30.412,67.934,67.925c0,37.519-30.412,67.932-67.934,67.932c-37.51,0-67.923-30.413-67.923-67.932
		C199.317,229.727,229.73,199.315,267.24,199.315z"/>
	<path fill="#202231" d="M267.24,335.171c37.522,0,67.934-30.413,67.934-67.932c0-37.513-30.412-67.925-67.934-67.925
		c-37.51,0-67.923,30.412-67.923,67.925C199.317,304.758,229.73,335.171,267.24,335.171z M267.24,227.132
		c22.159,0,40.12,17.958,40.12,40.107c0,22.156-17.961,40.116-40.12,40.116c-22.147,0-40.104-17.96-40.104-40.116
		C227.136,245.09,245.093,227.132,267.24,227.132z"/>
	<path fill="#4D4D4D" d="M267.24,307.356c22.159,0,40.12-17.96,40.12-40.116c0-22.149-17.961-40.107-40.12-40.107
		c-22.147,0-40.104,17.958-40.104,40.107C227.136,289.396,245.093,307.356,267.24,307.356z"/>
	<path fill="#CCCCCC" d="M267.24,692.24c-132.831,0-240.515,107.684-240.515,240.518h0.005
		c0,132.834,107.681,240.518,240.512,240.518c46.699,0,90.291-13.311,127.185-36.344c2.459-1.533,4.889-3.113,7.289-4.734
		c0.002,0,0.002,0,0.004-0.006c3.195-2.156,6.336-4.391,9.42-6.697c0.211-0.156,0.412-0.33,0.623-0.486
		c2.867-2.162,5.695-4.369,8.459-6.648c0.324-0.268,0.627-0.553,0.947-0.82c2.637-2.201,5.24-4.43,7.779-6.736
		c0.416-0.381,0.811-0.789,1.225-1.168c2.412-2.225,4.803-4.475,7.125-6.793c0.512-0.51,0.988-1.051,1.494-1.564
		c2.189-2.229,4.363-4.469,6.463-6.783c0.627-0.686,1.207-1.406,1.822-2.1c1.938-2.184,3.877-4.369,5.736-6.619
		c0.666-0.811,1.283-1.654,1.939-2.465c1.756-2.189,3.516-4.367,5.201-6.619c0.695-0.934,1.34-1.904,2.027-2.85
		c1.578-2.172,3.168-4.346,4.676-6.574c0.713-1.057,1.369-2.152,2.066-3.219c1.414-2.168,2.842-4.324,4.188-6.535
		c0.713-1.174,1.365-2.393,2.061-3.582c1.258-2.15,2.537-4.289,3.73-6.486c0.709-1.307,1.352-2.652,2.041-3.977
		c1.1-2.123,2.227-4.223,3.268-6.379c0.707-1.471,1.338-2.979,2.018-4.459c0.941-2.061,1.912-4.1,2.799-6.189
		c0.676-1.598,1.27-3.229,1.912-4.844c0.805-2.021,1.643-4.021,2.395-6.072c0.609-1.664,1.137-3.363,1.709-5.045
		c0.699-2.039,1.434-4.061,2.076-6.127c0.541-1.738,0.996-3.516,1.5-5.27c0.584-2.043,1.209-4.072,1.742-6.133
		c0.473-1.838,0.857-3.715,1.287-5.57c0.471-2.016,0.984-4.021,1.4-6.061c0.396-1.934,0.697-3.895,1.047-5.838
		c0.357-2,0.764-3.984,1.072-6c0.303-1.979,0.51-3.988,0.766-5.982c0.258-2.018,0.563-4.018,0.77-6.051
		c0.197-1.961,0.301-3.949,0.455-5.922c0.162-2.096,0.367-4.178,0.477-6.291c0.102-1.959,0.104-3.949,0.156-5.92
		c0.059-2.186,0.166-4.357,0.166-6.559C507.758,799.924,400.077,692.24,267.24,692.24z M267.24,1149.225
		c-119.55,0-216.465-96.918-216.465-216.467c0-119.551,96.916-216.463,216.465-216.463c119.551,0,216.467,96.912,216.467,216.463
		C483.708,1052.307,386.792,1149.225,267.24,1149.225z"/>
	<path fill="#202231" d="M267.24,716.295c-119.55,0-216.465,96.912-216.465,216.463c0,119.549,96.916,216.467,216.465,216.467
		c119.551,0,216.467-96.918,216.467-216.467C483.708,813.207,386.792,716.295,267.24,716.295z M267.24,1025.939
		c-51.459,0-93.176-41.721-93.176-93.182c0-51.463,41.717-93.176,93.176-93.176c51.465,0,93.186,41.713,93.186,93.176
		C360.426,984.219,318.706,1025.939,267.24,1025.939z"/>
	<path fill="#B3B3B3" d="M267.24,839.582c-51.459,0-93.176,41.713-93.176,93.176c0,51.461,41.717,93.182,93.176,93.182
		c51.465,0,93.186-41.721,93.186-93.182C360.426,881.295,318.706,839.582,267.24,839.582z M267.24,1016.621
		c-46.312,0-83.857-37.547-83.857-83.863c0-46.318,37.546-83.863,83.857-83.863c46.319,0,83.87,37.545,83.87,83.863
		C351.11,979.074,313.559,1016.621,267.24,1016.621z"/>
	<path fill="#202231" d="M267.24,848.895c-46.312,0-83.857,37.545-83.857,83.863c0,46.316,37.546,83.863,83.857,83.863
		c46.319,0,83.87-37.547,83.87-83.863C351.11,886.439,313.559,848.895,267.24,848.895z M267.24,1008.234
		c-41.681,0-75.473-33.791-75.473-75.477c0-41.688,33.792-75.473,75.473-75.473c41.688,0,75.481,33.785,75.481,75.473
		C342.721,974.443,308.928,1008.234,267.24,1008.234z"/>
	<path fill="#808080" d="M267.24,857.285c-41.681,0-75.473,33.785-75.473,75.473c0,41.686,33.792,75.477,75.473,75.477
		c41.688,0,75.481-33.791,75.481-75.477C342.721,891.07,308.928,857.285,267.24,857.285z M267.24,1000.688
		c-37.51,0-67.923-30.412-67.923-67.93c0-37.514,30.413-67.926,67.923-67.926c37.522,0,67.934,30.412,67.934,67.926
		C335.174,970.275,304.762,1000.688,267.24,1000.688z"/>
	<path fill="#202231" d="M267.24,864.832c-37.51,0-67.923,30.412-67.923,67.926c0,37.518,30.413,67.93,67.923,67.93
		c37.522,0,67.934-30.412,67.934-67.93C335.174,895.244,304.762,864.832,267.24,864.832z M267.24,972.873
		c-22.147,0-40.104-17.961-40.104-40.115c0-22.15,17.957-40.111,40.104-40.111c22.159,0,40.12,17.961,40.12,40.111
		C307.36,954.912,289.399,972.873,267.24,972.873z"/>
	<path fill="#4D4D4D" d="M267.24,892.646c-22.147,0-40.104,17.961-40.104,40.111c0,22.154,17.957,40.115,40.104,40.115
		c22.159,0,40.12-17.961,40.12-40.115C307.36,910.607,289.399,892.646,267.24,892.646z"/>
	<path fill="#999999" d="M534.483,932.758V695.67V415.364V267.24C534.483,119.647,414.836,0,267.24,0C119.647,0,0,119.647,0,267.24
		v148.124V695.67v237.088v8.848h0.162c2.042,62.719,25.689,119.963,63.747,164.549c0.053,0.066,0.106,0.129,0.159,0.189
		c1.271,1.486,2.559,2.955,3.86,4.414c0.112,0.127,0.224,0.25,0.335,0.379c1.257,1.402,2.534,2.787,3.818,4.162
		c0.162,0.174,0.321,0.346,0.483,0.52c1.246,1.324,2.509,2.631,3.782,3.934c0.212,0.217,0.422,0.436,0.634,0.646
		c1.237,1.258,2.491,2.498,3.751,3.727c0.257,0.252,0.511,0.504,0.768,0.748c1.232,1.197,2.478,2.369,3.732,3.537
		c0.299,0.279,0.592,0.559,0.891,0.832c1.226,1.129,2.466,2.246,3.715,3.357c0.338,0.303,0.676,0.604,1.017,0.906
		c1.221,1.072,2.453,2.127,3.69,3.178c0.38,0.324,0.762,0.648,1.142,0.967c1.219,1.021,2.441,2.027,3.676,3.021
		c0.417,0.342,0.836,0.676,1.258,1.012c1.209,0.967,2.43,1.928,3.658,2.871c0.456,0.352,0.911,0.705,1.369,1.051
		c1.207,0.916,2.419,1.82,3.64,2.721c0.494,0.363,0.991,0.721,1.488,1.084c1.201,0.871,2.414,1.727,3.632,2.58
		c0.525,0.363,1.05,0.732,1.581,1.096c1.2,0.826,2.413,1.643,3.628,2.451c0.559,0.369,1.114,0.738,1.676,1.102
		c1.198,0.787,2.405,1.564,3.62,2.33c0.593,0.367,1.188,0.742,1.782,1.111c1.198,0.742,2.399,1.475,3.608,2.195
		c0.623,0.373,1.249,0.742,1.875,1.111c1.192,0.699,2.391,1.391,3.598,2.072c0.656,0.375,1.318,0.744,1.979,1.111
		c1.188,0.66,2.381,1.314,3.581,1.955c0.688,0.363,1.378,0.727,2.07,1.09c1.189,0.627,2.38,1.24,3.578,1.844
		c0.715,0.363,1.433,0.715,2.153,1.072c1.185,0.588,2.374,1.168,3.569,1.732c0.746,0.357,1.497,0.703,2.249,1.051
		c1.182,0.547,2.368,1.094,3.562,1.625c0.771,0.346,1.547,0.682,2.323,1.018c1.182,0.514,2.366,1.027,3.559,1.523
		c0.799,0.33,1.601,0.654,2.402,0.979c1.182,0.48,2.366,0.961,3.559,1.424c0.824,0.324,1.654,0.633,2.483,0.945
		c1.176,0.445,2.354,0.887,3.539,1.318c0.857,0.307,1.721,0.607,2.584,0.91c1.17,0.408,2.338,0.816,3.514,1.213
		c0.886,0.289,1.773,0.574,2.659,0.859c1.17,0.381,2.341,0.76,3.52,1.117c0.902,0.279,1.81,0.543,2.715,0.811
		c1.17,0.346,2.338,0.693,3.517,1.021c0.933,0.264,1.874,0.51,2.813,0.76c1.159,0.313,2.318,0.631,3.483,0.928
		c0.961,0.246,1.93,0.469,2.896,0.703c1.153,0.279,2.305,0.564,3.467,0.834c0.982,0.223,1.975,0.43,2.963,0.643
		c1.154,0.25,2.305,0.502,3.464,0.736c1.003,0.207,2.011,0.385,3.02,0.582c1.15,0.217,2.302,0.441,3.458,0.646
		c1.042,0.186,2.089,0.348,3.134,0.52c1.128,0.186,2.257,0.381,3.391,0.555c1.078,0.16,2.162,0.301,3.24,0.451
		c1.12,0.15,2.237,0.318,3.36,0.459c1.106,0.139,2.221,0.256,3.332,0.379c1.101,0.129,2.195,0.264,3.299,0.369
		c1.165,0.117,2.338,0.213,3.509,0.313c1.062,0.096,2.12,0.195,3.187,0.279c1.235,0.09,2.48,0.156,3.721,0.234
		c1.006,0.063,2.006,0.141,3.012,0.191c1.418,0.066,2.843,0.111,4.265,0.162c0.841,0.027,1.673,0.072,2.517,0.088
		c2.176,0.057,4.363,0.084,6.553,0.084c0.09,0,0.179,0.006,0.269,0.006h0.003h0.003c2.284,0,4.561-0.033,6.833-0.09
		c0.652-0.016,1.301-0.049,1.951-0.072c1.617-0.051,3.232-0.1,4.842-0.184c0.813-0.039,1.619-0.102,2.43-0.15
		c1.441-0.084,2.883-0.162,4.314-0.275c0.873-0.061,1.738-0.15,2.607-0.223c1.367-0.117,2.74-0.229,4.1-0.363
		c0.902-0.096,1.797-0.207,2.695-0.301c1.318-0.152,2.641-0.291,3.949-0.453c0.926-0.117,1.842-0.252,2.76-0.381
		c1.285-0.172,2.574-0.346,3.855-0.541c0.924-0.141,1.84-0.297,2.762-0.447c1.26-0.201,2.523-0.402,3.777-0.625
		c0.943-0.168,1.883-0.352,2.82-0.531c1.227-0.229,2.453-0.453,3.674-0.703c0.943-0.191,1.879-0.396,2.82-0.598
		c1.211-0.264,2.42-0.516,3.623-0.789c0.939-0.217,1.869-0.445,2.805-0.67c1.193-0.291,2.389-0.57,3.576-0.877
		c0.938-0.234,1.871-0.492,2.803-0.742c1.172-0.314,2.344-0.621,3.506-0.945c0.947-0.268,1.887-0.547,2.828-0.826
		c1.141-0.336,2.287-0.664,3.424-1.018c0.943-0.289,1.879-0.598,2.818-0.893c1.125-0.363,2.254-0.721,3.373-1.102
		c0.939-0.313,1.875-0.643,2.811-0.967c1.104-0.385,2.207-0.764,3.303-1.16c0.945-0.348,1.885-0.699,2.826-1.051
		c1.074-0.408,2.15-0.811,3.221-1.225c0.947-0.373,1.885-0.754,2.826-1.133c1.053-0.426,2.104-0.85,3.148-1.285
		c0.947-0.396,1.885-0.805,2.824-1.207c1.027-0.447,2.059-0.895,3.078-1.346c0.941-0.426,1.873-0.855,2.809-1.285
		c1.012-0.463,2.02-0.934,3.025-1.414c0.936-0.447,1.865-0.898,2.793-1.357c0.986-0.48,1.973-0.967,2.949-1.463
		c0.938-0.475,1.863-0.955,2.795-1.441c0.961-0.504,1.922-1.006,2.877-1.52c0.932-0.498,1.857-1.006,2.781-1.52
		c0.936-0.514,1.871-1.033,2.799-1.564c0.934-0.525,1.859-1.066,2.785-1.604c0.908-0.531,1.814-1.066,2.717-1.609
		c0.928-0.559,1.85-1.117,2.77-1.686c0.885-0.549,1.768-1.096,2.645-1.648c0.928-0.586,1.85-1.186,2.766-1.777
		c0.857-0.559,1.709-1.117,2.559-1.686c0.924-0.615,1.844-1.236,2.76-1.867c0.826-0.564,1.65-1.133,2.471-1.709
		c0.922-0.648,1.842-1.301,2.754-1.961c0.799-0.576,1.596-1.156,2.389-1.742c0.92-0.676,1.836-1.357,2.746-2.051
		c0.768-0.582,1.533-1.168,2.297-1.76c0.918-0.709,1.834-1.424,2.742-2.15c0.738-0.588,1.473-1.18,2.203-1.771
		c0.916-0.748,1.83-1.498,2.738-2.252c0.709-0.592,1.41-1.189,2.111-1.787c0.914-0.781,1.824-1.564,2.727-2.352
		c0.676-0.592,1.346-1.189,2.016-1.787c0.916-0.822,1.828-1.643,2.732-2.471c0.637-0.586,1.271-1.184,1.904-1.775
		c0.916-0.855,1.828-1.715,2.73-2.586c0.605-0.582,1.205-1.174,1.807-1.766c0.914-0.895,1.824-1.793,2.723-2.705
		c0.572-0.574,1.141-1.162,1.707-1.748c0.91-0.934,1.818-1.871,2.715-2.82c0.537-0.57,1.066-1.146,1.598-1.715
		c0.914-0.99,1.824-1.973,2.725-2.973c0.49-0.547,0.977-1.102,1.465-1.654c0.92-1.033,1.836-2.072,2.738-3.127
		c0.453-0.525,0.898-1.063,1.346-1.594c0.922-1.088,1.838-2.178,2.738-3.279c0.412-0.508,0.82-1.016,1.229-1.523
		c0.924-1.146,1.846-2.297,2.752-3.459c0.363-0.463,0.717-0.938,1.078-1.408c0.932-1.211,1.863-2.43,2.773-3.658
		c0.32-0.43,0.631-0.865,0.949-1.303c0.939-1.279,1.871-2.563,2.787-3.859c0.266-0.381,0.525-0.76,0.791-1.141
		c0.953-1.367,1.9-2.736,2.826-4.117c0.201-0.307,0.4-0.607,0.602-0.916c0.975-1.469,1.943-2.943,2.891-4.43
		c0.131-0.207,0.26-0.418,0.389-0.625c1.008-1.592,2.006-3.189,2.98-4.811c0.047-0.078,0.092-0.156,0.143-0.24
		c9.195-15.275,16.9-31.547,22.926-48.613c6.021-17.066,10.363-34.926,12.82-53.383c0.016-0.09,0.029-0.174,0.039-0.264
		c0.27-2.039,0.512-4.088,0.734-6.139c0.018-0.162,0.037-0.318,0.057-0.48c0.213-1.988,0.4-3.988,0.566-5.988
		c0.02-0.229,0.043-0.459,0.063-0.688c0.158-1.949,0.291-3.91,0.408-5.871c0.016-0.279,0.039-0.564,0.055-0.844
		c0.107-1.916,0.191-3.838,0.258-5.766c0.012-0.24,0.025-0.48,0.033-0.721h0.156v-8.406c0-0.152,0.006-0.297,0.006-0.441H534.483z
		 M267.24,26.726c132.836,0,240.518,107.681,240.518,240.514c0,132.837-107.682,240.518-240.518,240.518
		c-132.831,0-240.515-107.681-240.515-240.518C26.726,134.407,134.409,26.726,267.24,26.726z M507.592,939.316
		c-0.053,1.971-0.055,3.961-0.156,5.92c-0.109,2.113-0.314,4.195-0.477,6.291c-0.154,1.973-0.258,3.961-0.455,5.922
		c-0.207,2.033-0.512,4.033-0.77,6.051c-0.256,1.994-0.463,4.004-0.766,5.982c-0.309,2.016-0.715,4-1.072,6
		c-0.35,1.943-0.65,3.904-1.047,5.838c-0.416,2.039-0.93,4.045-1.4,6.061c-0.43,1.855-0.814,3.732-1.287,5.57
		c-0.533,2.061-1.158,4.09-1.742,6.133c-0.504,1.754-0.959,3.531-1.5,5.27c-0.643,2.066-1.377,4.088-2.076,6.127
		c-0.572,1.682-1.1,3.381-1.709,5.045c-0.752,2.051-1.59,4.051-2.395,6.072c-0.643,1.615-1.236,3.246-1.912,4.844
		c-0.887,2.09-1.857,4.129-2.799,6.189c-0.68,1.48-1.311,2.988-2.018,4.459c-1.041,2.156-2.168,4.256-3.268,6.379
		c-0.689,1.324-1.332,2.67-2.041,3.977c-1.193,2.197-2.473,4.336-3.73,6.486c-0.695,1.189-1.348,2.408-2.061,3.582
		c-1.346,2.211-2.773,4.367-4.188,6.535c-0.697,1.066-1.354,2.162-2.066,3.219c-1.508,2.229-3.098,4.402-4.676,6.574
		c-0.688,0.945-1.332,1.916-2.027,2.85c-1.686,2.252-3.445,4.43-5.201,6.619c-0.656,0.811-1.273,1.654-1.939,2.465
		c-1.859,2.25-3.799,4.436-5.736,6.619c-0.615,0.693-1.195,1.414-1.822,2.1c-2.1,2.314-4.273,4.555-6.463,6.783
		c-0.506,0.514-0.982,1.055-1.494,1.564c-2.322,2.318-4.713,4.568-7.125,6.793c-0.414,0.379-0.809,0.787-1.225,1.168
		c-2.539,2.307-5.143,4.535-7.779,6.736c-0.32,0.268-0.623,0.553-0.947,0.82c-2.764,2.279-5.592,4.486-8.459,6.648
		c-0.211,0.156-0.412,0.33-0.623,0.486c-3.084,2.307-6.225,4.541-9.42,6.697c-0.002,0.006-0.002,0.006-0.004,0.006
		c-2.4,1.621-4.83,3.201-7.289,4.734c-36.895,23.033-80.486,36.344-127.185,36.344c-132.831,0-240.512-107.684-240.512-240.518
		h-0.005c0-132.834,107.684-240.518,240.515-240.518c132.836,0,240.518,107.684,240.518,240.518
		C507.758,934.959,507.651,937.131,507.592,939.316z M507.758,816.146C464.45,726.98,373.028,665.514,267.24,665.514
		c-105.784,0-197.206,61.467-240.515,150.633V695.67V415.364v-31.513c43.309,89.163,134.73,150.632,240.515,150.632
		c105.788,0,197.209-61.469,240.518-150.632v31.513V695.67V816.146z"/>
</g>
</svg>
