<?xml version="1.0" encoding="utf-8"?>
<!-- Generator: Adobe Illustrator 16.0.0, SVG Export Plug-In . SVG Version: 6.00 Build 0)  -->
<!DOCTYPE svg PUBLIC "-//W3C//DTD SVG 1.1//EN" "http://www.w3.org/Graphics/SVG/1.1/DTD/svg11.dtd">
<svg version="1.1" id="图层_1" xmlns="http://www.w3.org/2000/svg" xmlns:xlink="http://www.w3.org/1999/xlink" x="0px" y="0px"
	 width="305.208px" height="1200px" viewBox="0 0 305.208 1200" enable-background="new 0 0 305.208 1200" xml:space="preserve">
<g>
	<path fill="#C2C2C2" d="M305.208,90.696c0-16.554-8.655-29.983-19.34-29.983H19.34C8.655,60.713,0,74.143,0,90.696
		c0,0.195,0.014,0.383,0.022,0.574l303.722,10.853C304.679,98.599,305.208,94.745,305.208,90.696z"/>
	<path fill="#858585" d="M303.744,102.123L0.022,91.271c0.196,16.293,8.761,29.408,19.317,29.408h266.528
		C293.944,120.679,300.849,113.009,303.744,102.123z"/>
	<path fill="#C2C2C2" d="M305.208,150.661c0-16.558-8.655-29.982-19.34-29.982H19.34C8.655,120.679,0,134.104,0,150.661
		c0,0.191,0.014,0.379,0.022,0.574l303.722,10.849C304.679,158.56,305.208,154.706,305.208,150.661z"/>
	<path fill="#858585" d="M303.744,162.084L0.022,151.235c0.196,16.289,8.761,29.408,19.317,29.408h266.528
		C293.944,180.644,300.849,172.974,303.744,162.084z"/>
	<path fill="#C2C2C2" d="M0,210.622c0,0.191,0.014,0.383,0.022,0.574l303.722,10.849c0.935-3.521,1.464-7.378,1.464-11.423
		c0-16.558-8.655-29.979-19.34-29.979H19.34C8.655,180.644,0,194.064,0,210.622z"/>
	<path fill="#858585" d="M19.34,240.604h266.528c8.076,0,14.98-7.67,17.876-18.56L0.022,211.196
		C0.219,227.485,8.783,240.604,19.34,240.604z"/>
	<path fill="#C2C2C2" d="M0,270.583c0,0.196,0.014,0.383,0.022,0.579l303.722,10.844c0.935-3.521,1.464-7.374,1.464-11.423
		c0-16.558-8.655-29.979-19.34-29.979H19.34C8.655,240.604,0,254.025,0,270.583z"/>
	<path fill="#858585" d="M19.34,300.565h266.528c8.076,0,14.98-7.67,17.876-18.56L0.022,271.162
		C0.219,287.446,8.783,300.565,19.34,300.565z"/>
	<path fill="#C2C2C2" d="M0,330.548c0,0.191,0.014,0.379,0.022,0.579l303.722,10.84c0.935-3.521,1.464-7.374,1.464-11.419
		c0-16.558-8.655-29.982-19.34-29.982H19.34C8.655,300.565,0,313.99,0,330.548z"/>
	<path fill="#858585" d="M19.34,360.531h266.528c8.076,0,14.98-7.675,17.876-18.564L0.022,331.127
		C0.219,347.407,8.783,360.531,19.34,360.531z"/>
	<path fill="#C2C2C2" d="M0,390.509c0,0.191,0.014,0.388,0.022,0.579l303.722,10.844c0.935-3.524,1.464-7.378,1.464-11.423
		c0-16.558-8.655-29.978-19.34-29.978H19.34C8.655,360.531,0,373.951,0,390.509z"/>
	<path fill="#858585" d="M19.34,420.491h266.528c8.076,0,14.98-7.67,17.876-18.56L0.022,391.088
		C0.219,407.372,8.783,420.491,19.34,420.491z"/>
	<path fill="#C2C2C2" d="M0,450.47c0,0.196,0.014,0.388,0.022,0.579l303.722,10.844c0.935-3.524,1.464-7.378,1.464-11.423
		c0-16.558-8.655-29.979-19.34-29.979H19.34C8.655,420.491,0,433.912,0,450.47z"/>
	<path fill="#858585" d="M19.34,480.452h266.528c8.076,0,14.98-7.67,17.876-18.56L0.022,451.049
		C0.219,467.338,8.783,480.452,19.34,480.452z"/>
	<path fill="#C2C2C2" d="M0,510.431c0,0.196,0.014,0.388,0.022,0.579l303.722,10.844c0.935-3.521,1.464-7.374,1.464-11.423
		c0-16.554-8.655-29.979-19.34-29.979H19.34C8.655,480.452,0,493.877,0,510.431z"/>
	<path fill="#858585" d="M19.34,540.413h266.528c8.076,0,14.98-7.67,17.876-18.56L0.022,511.01
		C0.219,527.298,8.783,540.413,19.34,540.413z"/>
	<path fill="#C2C2C2" d="M0,570.396c0,0.196,0.014,0.384,0.022,0.575l303.722,10.844c0.935-3.521,1.464-7.369,1.464-11.419
		c0-16.558-8.655-29.982-19.34-29.982H19.34C8.655,540.413,0,553.838,0,570.396z"/>
	<path fill="#858585" d="M19.34,600.379h266.528c8.076,0,14.98-7.675,17.876-18.564L0.022,570.971
		C0.219,587.264,8.783,600.379,19.34,600.379z"/>
	<path fill="#C2C2C2" d="M0,630.361c0,0.191,0.014,0.378,0.022,0.574l303.722,10.844c0.935-3.524,1.464-7.373,1.464-11.418
		c0-16.563-8.655-29.982-19.34-29.982H19.34C8.655,600.379,0,613.799,0,630.361z"/>
	<path fill="#858585" d="M19.34,660.339h266.528c8.076,0,14.98-7.67,17.876-18.56L0.022,630.936
		C0.219,647.225,8.783,660.339,19.34,660.339z"/>
	<path fill="#C2C2C2" d="M0,690.322c0,0.191,0.014,0.383,0.022,0.574l303.722,10.849c0.935-3.521,1.464-7.378,1.464-11.423
		c0-16.558-8.655-29.983-19.34-29.983H19.34C8.655,660.339,0,673.765,0,690.322z"/>
	<path fill="#858585" d="M19.34,720.3h266.528c8.076,0,14.98-7.67,17.876-18.555L0.022,690.896
		C0.219,707.186,8.783,720.3,19.34,720.3z"/>
	<path fill="#C2C2C2" d="M0,750.282c0,0.196,0.014,0.384,0.022,0.575l303.722,10.849c0.935-3.521,1.464-7.374,1.464-11.424
		c0-16.558-8.655-29.982-19.34-29.982H19.34C8.655,720.3,0,733.725,0,750.282z"/>
	<path fill="#858585" d="M19.34,780.261h266.528c8.076,0,14.98-7.67,17.876-18.555L0.022,750.857
		C0.219,767.146,8.783,780.261,19.34,780.261z"/>
	<path fill="#C2C2C2" d="M0,810.248c0,0.191,0.014,0.379,0.022,0.574l303.722,10.845c0.935-3.521,1.464-7.374,1.464-11.419
		c0-16.558-8.655-29.987-19.34-29.987H19.34C8.655,780.261,0,793.69,0,810.248z"/>
	<path fill="#858585" d="M19.34,840.227h266.528c8.076,0,14.98-7.671,17.876-18.56L0.022,810.822
		C0.219,827.106,8.783,840.227,19.34,840.227z"/>
	<path fill="#C2C2C2" d="M0,870.209c0,0.191,0.014,0.383,0.022,0.579l303.722,10.844c0.935-3.525,1.464-7.378,1.464-11.423
		c0-16.558-8.655-29.982-19.34-29.982H19.34C8.655,840.227,0,853.651,0,870.209z"/>
	<path fill="#858585" d="M19.34,900.191h266.528c8.076,0,14.98-7.67,17.876-18.56L0.022,870.788
		C0.219,887.072,8.783,900.191,19.34,900.191z"/>
	<path fill="#C2C2C2" d="M0,930.17c0,0.191,0.014,0.383,0.022,0.574l303.722,10.849c0.935-3.525,1.464-7.378,1.464-11.423
		c0-16.558-8.655-29.979-19.34-29.979H19.34C8.655,900.191,0,913.612,0,930.17z"/>
	<path fill="#858585" d="M19.34,960.152h266.528c8.076,0,14.98-7.67,17.876-18.56L0.022,930.744
		C0.219,947.033,8.783,960.152,19.34,960.152z"/>
	<path fill="#C2C2C2" d="M0,990.13c0,0.192,0.014,0.389,0.022,0.58l303.722,10.844c0.935-3.521,1.464-7.374,1.464-11.424
		c0-16.553-8.655-29.978-19.34-29.978H19.34C8.655,960.152,0,973.577,0,990.13z"/>
	<path fill="#858585" d="M19.34,1020.113h266.528c8.076,0,14.98-7.67,17.876-18.56L0.022,990.71
		C0.219,1006.993,8.783,1020.113,19.34,1020.113z"/>
	<path fill="#C2C2C2" d="M0,1050.091c0,0.196,0.014,0.388,0.022,0.579l303.722,10.845c0.935-3.521,1.464-7.374,1.464-11.424
		c0-16.553-8.655-29.978-19.34-29.978H19.34C8.655,1020.113,0,1033.538,0,1050.091z"/>
	<path fill="#858585" d="M19.34,1080.074h266.528c8.076,0,14.98-7.671,17.876-18.56L0.022,1050.67
		C0.219,1066.964,8.783,1080.074,19.34,1080.074z"/>
	<path fill="#C2C2C2" d="M0,1110.057c0,0.191,0.014,0.383,0.022,0.579l303.722,10.844c0.935-3.525,1.464-7.378,1.464-11.423
		c0-16.558-8.655-29.982-19.34-29.982H19.34C8.655,1080.074,0,1093.499,0,1110.057z"/>
	<path fill="#858585" d="M19.34,1140.039h266.528c8.076,0,14.98-7.675,17.876-18.56L0.022,1110.636
		C0.219,1126.925,8.783,1140.039,19.34,1140.039z"/>
	<path fill="#C2C2C2" d="M151.901,0H19.357C8.678,0,0.022,13.425,0.022,29.979c0,0.195,0.014,0.383,0.014,0.574l151.865,5.427V0z"/>
	<path fill="#C2C2C2" d="M285.873,1140.039H151.884v35.979l151.864,5.422c0.936-3.521,1.46-7.378,1.46-11.419
		C305.208,1153.46,296.553,1140.039,285.873,1140.039z"/>
	<path fill="#858585" d="M0.036,30.553c0.201,16.289,8.77,29.413,19.321,29.413h132.544V35.979L0.036,30.553z"/>
	<path fill="#858585" d="M151.884,1200h133.989c8.071,0,14.976-7.67,17.875-18.56l-151.864-5.422V1200z"/>
</g>
</svg>
