<?xml version="1.0" encoding="utf-8"?>
<!-- Generator: Adobe Illustrator 16.0.0, SVG Export Plug-In . SVG Version: 6.00 Build 0)  -->
<!DOCTYPE svg PUBLIC "-//W3C//DTD SVG 1.1//EN" "http://www.w3.org/Graphics/SVG/1.1/DTD/svg11.dtd">
<svg version="1.1" id="图层_1" xmlns="http://www.w3.org/2000/svg" xmlns:xlink="http://www.w3.org/1999/xlink" x="0px" y="0px"
	 width="1200px" height="1200px" viewBox="0 0 1200 1200" enable-background="new 0 0 1200 1200" xml:space="preserve">
<path fill="#858585" d="M600,0C268.627,0,0,268.605,0,600c0,331.373,268.627,600,600,600c331.384,0,600-268.627,600-600
	C1200,268.605,931.384,0,600,0z M1054.307,293.886c18.152-10.49,41.365-4.278,51.855,13.885
	c10.48,18.162,4.269,41.365-13.895,51.855s-41.375,4.278-51.855-13.885C1029.922,327.578,1036.144,304.355,1054.307,293.886z
	 M840.374,107.753c10.48-18.163,33.703-24.385,51.855-13.905c18.153,10.48,24.386,33.693,13.905,51.855
	c-10.49,18.153-33.703,24.396-51.855,13.905C836.116,149.128,829.895,125.905,840.374,107.753z M600,15.551
	c20.971,0,37.961,17,37.961,37.961c0,20.96-16.99,37.96-37.961,37.96c-20.96,0-37.95-17-37.95-37.96
	C562.05,32.551,579.04,15.551,600,15.551z M307.78,93.848c18.152-10.479,41.376-4.258,51.855,13.905
	c10.48,18.152,4.258,41.365-13.895,51.835c-18.152,10.49-41.365,4.278-51.855-13.885C283.416,127.551,289.628,104.328,307.78,93.848
	z M93.848,307.771c10.491-18.153,33.703-24.375,51.855-13.885c18.163,10.47,24.386,33.692,13.896,51.855
	c-10.48,18.143-33.683,24.375-51.846,13.885C89.601,349.136,83.368,325.933,93.848,307.771z M53.512,637.95
	c-20.961,0-37.961-16.97-37.961-37.939c0.01-20.971,17-37.972,37.961-37.972c20.96,0,37.961,17.001,37.961,37.961
	S74.481,637.95,53.512,637.95z M145.703,906.114c-18.162,10.49-41.354,4.278-51.855-13.864
	c-10.459-18.183-4.258-41.396,13.905-51.886c18.152-10.47,41.365-4.258,51.846,13.895
	C170.089,872.422,163.866,895.634,145.703,906.114z M359.626,1092.247c-10.48,18.163-33.673,24.385-51.846,13.926
	c-18.152-10.512-24.385-33.714-13.905-51.866c10.491-18.152,33.703-24.385,51.855-13.895
	C363.884,1050.882,370.116,1074.095,359.626,1092.247z M600,1184.46c-20.96,0-37.95-16.99-37.95-37.961s16.99-37.961,37.95-37.961
	c20.971,0,37.961,16.99,37.961,37.961S620.971,1184.46,600,1184.46z M892.229,1106.152c-18.152,10.479-41.364,4.268-51.845-13.885
	c-10.48-18.163-4.269-41.386,13.895-51.866c18.152-10.479,41.365-4.247,51.855,13.905
	C916.615,1072.459,910.393,1095.661,892.229,1106.152z M600,1080.008c-265.099,0-480.019-214.909-480.019-480.008
	c0-265.109,214.92-479.987,480.019-479.987S1079.998,334.891,1079.998,600C1079.998,865.099,865.099,1080.008,600,1080.008z
	 M1106.162,892.22c-10.49,18.152-33.703,24.385-51.855,13.915c-18.163-10.49-24.385-33.713-13.895-51.876
	c10.48-18.152,33.692-24.364,51.855-13.895C1110.42,850.854,1116.643,874.067,1106.162,892.22z M1146.499,637.95
	c-20.96,0-37.961-16.99-37.961-37.95s17.001-37.961,37.961-37.961c20.971,0,37.961,17.001,37.961,37.961
	S1167.47,637.95,1146.499,637.95z"/>
</svg>
