<?xml version="1.0" encoding="utf-8"?>
<!-- Generator: Adobe Illustrator 16.0.0, SVG Export Plug-In . SVG Version: 6.00 Build 0)  -->
<!DOCTYPE svg PUBLIC "-//W3C//DTD SVG 1.1//EN" "http://www.w3.org/Graphics/SVG/1.1/DTD/svg11.dtd">
<svg version="1.1" id="图层_1" xmlns="http://www.w3.org/2000/svg" xmlns:xlink="http://www.w3.org/1999/xlink" x="0px" y="0px"
	 width="1199.993px" height="1200px" viewBox="0 0 1199.993 1200" enable-background="new 0 0 1199.993 1200" xml:space="preserve">
<g>
	<path fill="#C2C2C2" d="M600.004,0C268.627,0,0,268.627,0,600.004C0,931.366,268.627,1200,600.004,1200
		c331.362,0,599.989-268.634,599.989-599.996C1199.993,268.627,931.366,0,600.004,0z M600.004,1135.706
		c-295.883,0-535.717-239.848-535.717-535.702c0-295.876,239.834-535.717,535.717-535.717
		c295.854,0,535.702,239.841,535.702,535.717C1135.706,895.858,895.858,1135.706,600.004,1135.706z"/>
	<path fill="none" stroke="#727171" stroke-width="4.1082" stroke-miterlimit="10" d="M600.004,64.287
		c-295.883,0-535.717,239.841-535.717,535.717c0,295.854,239.834,535.702,535.717,535.702
		c295.854,0,535.702-239.848,535.702-535.702C1135.706,304.128,895.858,64.287,600.004,64.287z M600.004,1087.01
		c-268.98,0-487.021-218.047-487.021-487.006c0-268.974,218.04-487.021,487.021-487.021c268.966,0,487.006,218.047,487.006,487.021
		C1087.01,868.963,868.97,1087.01,600.004,1087.01z"/>
	<path fill="#A4A4A5" d="M600.004,112.983c-268.98,0-487.021,218.047-487.021,487.021c0,268.959,218.04,487.006,487.021,487.006
		c268.966,0,487.006-218.047,487.006-487.006C1087.01,331.03,868.97,112.983,600.004,112.983z M817.995,230.896
		c50.732-19.883,94.333,13.846,115.635,35.474c21.635,21.295,55.356,64.896,35.48,115.628
		c-28.121,71.75-169.378,116.742-204.45,114.271c-0.11-0.015-0.207-0.015-0.318-0.021l-0.139-0.131
		c-5.607,1.148-21.849-7.92-37.128-23.192c-15.265-15.272-24.334-31.514-23.185-37.128l-0.146-0.132
		c-0.007-0.11-0.007-0.222-0.021-0.332C701.26,400.261,746.245,259.011,817.995,230.896z M772.317,600.004
		c0,95.163-77.15,172.313-172.313,172.313c-95.178,0-172.328-77.15-172.328-172.313c0-95.171,77.15-172.328,172.328-172.328
		C695.167,427.676,772.317,504.833,772.317,600.004z M493.14,184.845c21.821-49.929,76.492-56.907,106.864-56.679
		c30.357-0.229,85.028,6.75,106.843,56.679c30.855,70.628-37.212,202.317-63.769,225.364c-0.083,0.076-0.166,0.146-0.235,0.222
		h-0.193c-3.157,4.784-21.046,9.852-42.646,9.852c-21.601,0-39.503-5.067-42.66-9.852h-0.193c-0.083-0.076-0.166-0.146-0.235-0.222
		C530.372,387.162,462.284,255.473,493.14,184.845z M266.363,266.37c21.302-21.628,64.903-55.356,115.635-35.48
		c71.75,28.121,116.742,169.371,114.271,204.443c-0.015,0.11-0.015,0.222-0.021,0.332l-0.146,0.132
		c1.156,5.614-7.92,21.842-23.185,37.121c-15.279,15.272-31.521,24.348-37.128,23.185l-0.139,0.146
		c-0.104,0.007-0.208,0.007-0.318,0.021c-35.072,2.471-176.329-42.521-204.45-114.271C211,331.266,244.729,287.679,266.363,266.37z
		 M128.173,600.004c-0.235-30.357,6.743-85.043,56.679-106.851c70.607-30.862,202.325,37.212,225.357,63.762
		c0.076,0.083,0.146,0.152,0.229,0.235v0.2c4.777,3.157,9.831,21.046,9.845,42.653c-0.014,21.6-5.067,39.502-9.845,42.646v0.193
		c-0.083,0.083-0.152,0.166-0.229,0.25c-23.047,26.542-154.75,94.623-225.364,63.761
		C134.909,685.039,127.938,630.36,128.173,600.004z M381.998,969.117c-50.731,19.891-94.319-13.853-115.635-35.487
		c-21.628-21.302-55.35-64.902-35.467-115.635c28.107-71.75,169.364-116.735,204.437-114.264c0.11,0.007,0.215,0.014,0.318,0.014
		l0.139,0.138c5.621-1.142,21.849,7.941,37.128,23.192c15.265,15.286,24.348,31.527,23.185,37.128l0.146,0.139
		c0.007,0.11,0.007,0.215,0.035,0.325C498.74,799.732,453.748,941.003,381.998,969.117z M706.847,1015.148
		c-21.814,49.929-76.485,56.907-106.843,56.686c-30.372,0.222-85.043-6.757-106.864-56.686
		c-30.855-70.621,37.232-202.317,63.775-225.364c0.069-0.076,0.152-0.146,0.235-0.215h0.193c3.157-4.784,21.06-9.852,42.66-9.852
		c21.6,0,39.488,5.067,42.646,9.852h0.193c0.069,0.069,0.152,0.139,0.235,0.215C669.635,812.831,737.702,944.527,706.847,1015.148z
		 M933.63,933.63c-21.302,21.642-64.902,55.356-115.635,35.487c-71.75-28.114-116.735-169.385-114.271-204.457
		c0.015-0.104,0.015-0.208,0.021-0.318l0.146-0.139c-1.163-5.601,7.905-21.849,23.185-37.128
		c15.279-15.272,31.514-24.334,37.128-23.192l0.125-0.138c0.125,0,0.222-0.007,0.332-0.014
		c35.072-2.472,176.329,42.514,204.443,114.264C988.986,868.728,955.265,912.328,933.63,933.63z M1015.148,706.854
		c-70.614,30.862-202.317-37.219-225.371-63.769c-0.069-0.076-0.139-0.159-0.208-0.242l-0.007-0.193
		c-4.77-3.144-9.845-21.046-9.845-42.646c0-21.607,5.075-39.496,9.852-42.653l-0.007-0.187c0.076-0.083,0.146-0.166,0.222-0.249
		c23.047-26.55,154.75-94.617,225.364-63.762c49.929,21.808,56.907,76.493,56.672,106.851
		C1072.069,630.36,1065.077,685.039,1015.148,706.854z"/>
	<g>
		<path fill="#1A1A1A" d="M556.915,410.209c0.069,0.076,0.152,0.146,0.235,0.222h0.193c3.157,4.784,21.06,9.852,42.66,9.852
			c21.6,0,39.488-5.067,42.646-9.852h0.193c0.069-0.076,0.152-0.146,0.235-0.222c26.557-23.047,94.624-154.736,63.769-225.364
			c-21.814-49.929-76.485-56.907-106.843-56.679c-30.372-0.229-85.043,6.75-106.864,56.679
			C462.284,255.473,530.372,387.162,556.915,410.209z"/>
		<path fill="#1A1A1A" d="M643.078,789.784c-0.083-0.076-0.166-0.146-0.235-0.215h-0.193c-3.157-4.784-21.046-9.852-42.646-9.852
			c-21.601,0-39.503,5.067-42.66,9.852h-0.193c-0.083,0.069-0.166,0.139-0.235,0.215c-26.543,23.047-94.631,154.743-63.775,225.364
			c21.821,49.929,76.492,56.907,106.864,56.686c30.357,0.222,85.028-6.757,106.843-56.686
			C737.702,944.527,669.635,812.831,643.078,789.784z"/>
		<path fill="#1A1A1A" d="M435.333,496.27c0.11-0.015,0.215-0.015,0.318-0.021l0.139-0.146c5.607,1.163,21.849-7.912,37.128-23.185
			c15.265-15.279,24.341-31.507,23.185-37.121l0.146-0.132c0.007-0.11,0.007-0.222,0.021-0.332
			c2.471-35.072-42.521-176.322-114.271-204.443c-50.731-19.876-94.333,13.853-115.635,35.48
			c-21.635,21.309-55.363,64.896-35.48,115.628C259.004,453.748,400.261,498.74,435.333,496.27z"/>
		<path fill="#1A1A1A" d="M764.66,703.731c-0.11,0.007-0.207,0.014-0.332,0.014l-0.125,0.138
			c-5.614-1.142-21.849,7.92-37.128,23.192c-15.279,15.279-24.348,31.527-23.185,37.128l-0.146,0.139
			c-0.007,0.11-0.007,0.215-0.021,0.318c-2.464,35.072,42.521,176.343,114.271,204.457c50.732,19.869,94.333-13.846,115.635-35.487
			c21.635-21.302,55.356-64.902,35.474-115.635C940.989,746.245,799.732,701.26,764.66,703.731z"/>
		<path fill="#1A1A1A" d="M410.209,643.093c0.076-0.084,0.146-0.167,0.229-0.25v-0.193c4.777-3.144,9.831-21.046,9.845-42.646
			c-0.014-21.607-5.067-39.496-9.845-42.653v-0.2c-0.083-0.083-0.152-0.152-0.229-0.235c-23.032-26.55-154.75-94.624-225.357-63.762
			c-49.936,21.808-56.914,76.493-56.679,106.851c-0.235,30.356,6.736,85.035,56.672,106.85
			C255.459,737.716,387.162,669.635,410.209,643.093z"/>
		<path fill="#1A1A1A" d="M1015.148,493.153c-70.614-30.855-202.317,37.212-225.364,63.762c-0.076,0.083-0.146,0.166-0.222,0.249
			l0.007,0.187c-4.776,3.157-9.852,21.046-9.852,42.653c0,21.6,5.075,39.502,9.845,42.646l0.007,0.193
			c0.069,0.083,0.139,0.166,0.208,0.242c23.054,26.55,154.757,94.631,225.371,63.769c49.929-21.814,56.921-76.493,56.672-106.85
			C1072.056,569.646,1065.077,514.961,1015.148,493.153z"/>
		<path fill="#1A1A1A" d="M496.283,764.667c-0.028-0.11-0.028-0.215-0.035-0.325l-0.146-0.139
			c1.163-5.601-7.92-21.842-23.185-37.128c-15.279-15.251-31.507-24.334-37.128-23.192l-0.139-0.138
			c-0.104,0-0.208-0.007-0.318-0.014c-35.072-2.472-176.329,42.514-204.437,114.264c-19.883,50.732,13.839,94.333,35.467,115.635
			c21.315,21.635,64.903,55.378,115.635,35.487C453.748,941.003,498.74,799.732,496.283,764.667z"/>
		<path fill="#1A1A1A" d="M703.724,435.333c0.015,0.11,0.015,0.222,0.021,0.332l0.146,0.132c-1.149,5.614,7.92,21.855,23.185,37.128
			c15.279,15.272,31.521,24.341,37.128,23.192l0.139,0.131c0.111,0.007,0.208,0.007,0.318,0.021
			c35.072,2.471,176.329-42.521,204.45-114.271c19.876-50.732-13.846-94.333-35.48-115.628
			c-21.302-21.628-64.902-55.356-115.635-35.474C746.245,259.011,701.26,400.261,703.724,435.333z"/>
	</g>
	<path fill="#4D4D4D" d="M600.004,427.676c-95.178,0-172.328,77.157-172.328,172.328c0,95.163,77.15,172.313,172.328,172.313
		c95.163,0,172.313-77.15,172.313-172.313C772.317,504.833,695.167,427.676,600.004,427.676z M600.004,729.242
		c-71.391,0-129.253-57.869-129.253-129.238c0-71.377,57.862-129.246,129.253-129.246c71.376,0,129.225,57.869,129.225,129.246
		C729.229,671.373,671.38,729.242,600.004,729.242z"/>
	<path fill="#A4A4A5" d="M600.004,444.907c-85.666,0-155.097,69.431-155.097,155.097c0,85.651,69.431,155.082,155.097,155.082
		c85.651,0,155.082-69.431,155.082-155.082C755.086,514.338,685.655,444.907,600.004,444.907z M600.004,716.31
		c-64.246,0-116.321-52.067-116.321-116.306c0-64.246,52.075-116.321,116.321-116.321c64.238,0,116.307,52.075,116.307,116.321
		C716.311,664.242,664.242,716.31,600.004,716.31z"/>
	<path fill="#1A1A1A" d="M600.004,460.415c-77.102,0-139.582,62.487-139.582,139.589c0,77.087,62.48,139.574,139.582,139.574
		c77.073,0,139.574-62.487,139.574-139.574C739.578,522.902,677.077,460.415,600.004,460.415z M600.004,704.68
		c-57.821,0-104.69-46.862-104.69-104.676c0-57.821,46.869-104.697,104.69-104.697c57.807,0,104.676,46.876,104.676,104.697
		C704.68,657.817,657.811,704.68,600.004,704.68z"/>
	<path fill="#727171" d="M600.004,483.683c-64.246,0-116.321,52.075-116.321,116.321c0,64.231,52.075,116.306,116.321,116.306
		c64.238,0,116.307-52.074,116.307-116.306C716.311,535.758,664.242,483.683,600.004,483.683z"/>
</g>
</svg>
