<?xml version="1.0" encoding="utf-8"?>
<!-- Generator: Adobe Illustrator 16.0.0, SVG Export Plug-In . SVG Version: 6.00 Build 0)  -->
<!DOCTYPE svg PUBLIC "-//W3C//DTD SVG 1.1//EN" "http://www.w3.org/Graphics/SVG/1.1/DTD/svg11.dtd">
<svg version="1.1" id="图层_1" xmlns="http://www.w3.org/2000/svg" xmlns:xlink="http://www.w3.org/1999/xlink" x="0px" y="0px"
	 width="1198.749px" height="1200px" viewBox="0 0 1198.749 1200" enable-background="new 0 0 1198.749 1200" xml:space="preserve">
<path fill="#4D4D4D" d="M870.646,871.907H0V1200h1198.749v-1.251V871.907V0H870.646V871.907z M135.48,1105.599
	c-38.451,0-69.64-31.188-69.64-69.65c0-38.452,31.188-69.628,69.64-69.628c38.463,0,69.639,31.176,69.639,69.628
	C205.119,1074.41,173.943,1105.599,135.48,1105.599z M1034.697,65.841c38.463,0,69.639,31.188,69.639,69.64
	c0,38.463-31.176,69.639-69.639,69.639s-69.64-31.176-69.64-69.639C965.058,97.029,996.234,65.841,1034.697,65.841z"/>
</svg>
