<?xml version="1.0" encoding="utf-8"?>
<!-- Generator: Adobe Illustrator 16.0.0, SVG Export Plug-In . SVG Version: 6.00 Build 0)  -->
<!DOCTYPE svg PUBLIC "-//W3C//DTD SVG 1.1//EN" "http://www.w3.org/Graphics/SVG/1.1/DTD/svg11.dtd">
<svg version="1.1" id="图层_1" xmlns="http://www.w3.org/2000/svg" xmlns:xlink="http://www.w3.org/1999/xlink" x="0px" y="0px"
	 width="1292.666px" height="1200px" viewBox="0 0 1292.666 1200" enable-background="new 0 0 1292.666 1200" xml:space="preserve">
<g>
	<g>
		<g>
			<path fill="#D5D5D6" d="M117.664,948.667C52.679,948.667,0,1004.934,0,1074.33C0,1143.733,52.679,1200,117.664,1200h148.815
				V948.667H117.664z M113.15,1132.298c-32.01,0-57.961-25.952-57.961-57.968c0-32.009,25.951-57.961,57.961-57.961
				c32.016,0,57.968,25.952,57.968,57.961C171.118,1106.346,145.166,1132.298,113.15,1132.298z"/>
		</g>
		<g>
			<path fill="#D5D5D6" d="M1026.193,948.667V1200h148.809c64.992,0,117.664-56.267,117.664-125.67
				c0-69.396-52.672-125.663-117.664-125.663H1026.193z M1121.548,1074.33c0-32.009,25.959-57.961,57.968-57.961
				c32.017,0,57.975,25.952,57.975,57.961c0,32.016-25.958,57.968-57.975,57.968
				C1147.507,1132.298,1121.548,1106.346,1121.548,1074.33z"/>
		</g>
	</g>
	<g>
		<path fill="#D5D5D6" d="M520.667,266.473h251.332V117.664C771.999,52.679,715.733,0,646.33,0
			c-69.397,0-125.663,52.679-125.663,117.664V266.473z M646.33,171.118c-32.01,0-57.961-25.959-57.961-57.968
			c0-32.01,25.951-57.968,57.961-57.968c32.016,0,57.967,25.958,57.967,57.968C704.297,145.159,678.346,171.118,646.33,171.118z"/>
	</g>
	<polygon fill="#858585" points="1192.207,268.956 100.459,268.956 100.459,576.803 245.262,576.803 245.262,1200 1047.404,1200 
		1047.404,576.803 1192.207,576.803 	"/>
	<g>
		<path fill="#727171" d="M443.072,633.618c0,41.641-33.759,75.398-75.406,75.398c-41.634,0-75.399-33.758-75.399-75.398
			s33.766-75.406,75.399-75.406C409.313,558.212,443.072,591.978,443.072,633.618z"/>
		<path fill="#727171" d="M1000.393,633.618c0,41.641-33.759,75.398-75.399,75.398s-75.406-33.758-75.406-75.398
			s33.766-75.406,75.406-75.406S1000.393,591.978,1000.393,633.618z"/>
	</g>
	<g>
		<path fill="#3E3A39" d="M417.937,633.618c0,27.756-22.508,50.264-50.271,50.264c-27.756,0-50.257-22.508-50.257-50.264
			c0-27.763,22.501-50.271,50.257-50.271C395.429,583.348,417.937,605.855,417.937,633.618z"/>
		<path fill="#3E3A39" d="M975.257,633.618c0,27.756-22.508,50.264-50.264,50.264c-27.763,0-50.271-22.508-50.271-50.264
			c0-27.763,22.508-50.271,50.271-50.271C952.749,583.348,975.257,605.855,975.257,633.618z"/>
	</g>
</g>
</svg>
