<?xml version="1.0" encoding="utf-8"?>
<!-- Generator: Adobe Illustrator 16.0.0, SVG Export Plug-In . SVG Version: 6.00 Build 0)  -->
<!DOCTYPE svg PUBLIC "-//W3C//DTD SVG 1.1//EN" "http://www.w3.org/Graphics/SVG/1.1/DTD/svg11.dtd">
<svg version="1.1" id="图层_1" xmlns="http://www.w3.org/2000/svg" xmlns:xlink="http://www.w3.org/1999/xlink" x="0px" y="0px"
	 width="1385.637px" height="1200px" viewBox="0 0 1385.637 1200" enable-background="new 0 0 1385.637 1200" xml:space="preserve">
<g>
	<path fill="#3E3A39" d="M1039.227,0H346.409L0,600l346.409,600h692.817l346.41-600L1039.227,0z M692.818,973.891
		c-206.498,0-373.891-167.4-373.891-373.891c0-206.498,167.393-373.891,373.891-373.891S1066.7,393.502,1066.7,600
		C1066.7,806.49,899.316,973.891,692.818,973.891z"/>
	<path fill="#858585" d="M692.818,226.109c-206.498,0-373.891,167.393-373.891,373.891c0,206.49,167.393,373.891,373.891,373.891
		S1066.7,806.49,1066.7,600C1066.7,393.502,899.316,226.109,692.818,226.109z M692.818,936.496
		c-185.844,0-336.496-150.652-336.496-336.496s150.652-336.504,336.496-336.504c185.843,0,336.495,150.66,336.495,336.504
		S878.661,936.496,692.818,936.496z"/>
	<path fill="#D5D5D6" d="M692.818,263.496c-185.844,0-336.496,150.66-336.496,336.504s150.652,336.496,336.496,336.496
		c185.843,0,336.495-150.652,336.495-336.496S878.661,263.496,692.818,263.496z M692.818,902.849
		C525.561,902.849,389.97,767.258,389.97,600c0-167.266,135.591-302.856,302.849-302.856c167.257,0,302.848,135.591,302.848,302.856
		C995.666,767.258,860.075,902.849,692.818,902.849z"/>
	<path fill="#A4A4A5" d="M692.818,297.144C525.561,297.144,389.97,432.734,389.97,600c0,167.258,135.591,302.849,302.849,302.849
		c167.257,0,302.848-135.591,302.848-302.849C995.666,432.734,860.075,297.144,692.818,297.144z M692.818,872.559
		C542.285,872.559,420.26,750.533,420.26,600c0-150.541,122.025-272.566,272.559-272.566S965.377,449.459,965.377,600
		C965.377,750.533,843.352,872.559,692.818,872.559z"/>
</g>
</svg>
