<?xml version="1.0" encoding="utf-8"?>
<!-- Generator: Adobe Illustrator 16.0.0, SVG Export Plug-In . SVG Version: 6.00 Build 0)  -->
<!DOCTYPE svg PUBLIC "-//W3C//DTD SVG 1.1//EN" "http://www.w3.org/Graphics/SVG/1.1/DTD/svg11.dtd">
<svg version="1.1" id="图层_1" xmlns="http://www.w3.org/2000/svg" xmlns:xlink="http://www.w3.org/1999/xlink" x="0px" y="0px"
	 width="1199.994px" height="1200px" viewBox="0 0 1199.994 1200" enable-background="new 0 0 1199.994 1200" xml:space="preserve">
<g>
	<polygon fill="#C2C2C2" points="1199.994,560.833 1125.034,530.88 1189.69,482.535 1189.147,480.541 1169.95,408.878 
		1169.42,406.883 1089.254,397.333 1139.188,333.918 1138.165,332.129 1101.07,267.871 1100.028,266.088 1020.134,277.608 
		1051.949,203.433 1050.491,201.969 998.031,149.503 996.562,148.051 922.38,179.86 933.919,99.972 932.129,98.936 867.871,61.836 
		866.075,60.805 802.661,110.733 793.116,30.58 791.122,30.05 719.453,10.84 717.458,10.31 669.12,74.947 639.167,0 637.106,0 
		562.9,0 560.833,0 530.873,74.959 482.535,10.31 480.541,10.84 408.872,30.05 406.884,30.58 397.345,110.733 333.912,60.805 
		332.135,61.842 267.871,98.936 266.088,99.972 277.614,179.86 203.427,148.051 201.969,149.503 149.503,201.975 148.051,203.433 
		179.86,277.608 99.966,266.088 98.936,267.871 61.835,332.129 60.805,333.918 110.728,397.339 30.58,406.883 30.05,408.878 
		10.84,480.541 10.31,482.535 74.953,530.88 0,560.839 0,562.9 0,637.1 0.006,639.161 74.953,669.12 10.31,717.464 10.84,719.459 
		30.05,791.128 30.58,793.116 110.728,802.655 60.805,866.081 61.829,867.871 98.936,932.129 99.966,933.912 179.86,922.379 
		148.045,996.567 149.497,998.031 201.969,1050.497 203.427,1051.949 277.614,1020.14 266.088,1100.028 267.865,1101.064 
		332.135,1138.164 333.912,1139.195 397.333,1089.254 406.884,1169.42 408.872,1169.95 480.541,1189.16 482.535,1189.69 
		530.873,1125.041 560.833,1200 562.9,1200 637.106,1200 639.167,1200 669.12,1125.041 717.458,1189.69 719.453,1189.16 
		791.134,1169.95 793.116,1169.407 802.661,1089.267 866.081,1139.195 867.871,1138.158 932.129,1101.064 933.919,1100.028 
		922.38,1020.14 996.567,1051.955 998.031,1050.497 1050.491,998.031 1051.962,996.567 1020.14,922.379 1100.028,933.912 
		1101.07,932.129 1138.165,867.871 1139.201,866.081 1089.254,802.655 1169.42,793.116 1169.95,791.122 1189.16,719.459 
		1189.69,717.464 1125.041,669.12 1199.994,639.161 1199.994,637.094 1199.994,562.9 	"/>
	<g>
		<g>
			<path fill="#4D4D4D" d="M505.957,261.658c24.224,41.957,9.847,95.615-32.11,119.839c-41.963,24.217-95.621,9.852-119.851-32.11
				c-24.235-41.957-9.834-95.628,32.117-119.851C428.069,205.318,481.729,219.689,505.957,261.658z"/>
			<path fill="#4D4D4D" d="M845.998,850.613c24.223,41.975,9.846,95.634-32.111,119.851c-41.962,24.224-95.621,9.858-119.851-32.116
				c-24.223-41.951-9.846-95.615,32.117-119.839S821.769,808.663,845.998,850.613z"/>
		</g>
		<g>
			<path fill="#4D4D4D" d="M294.252,427.262c46.801,12.527,74.573,60.643,62.028,107.438
				c-12.534,46.807-60.637,74.573-107.444,62.04c-46.813-12.546-74.573-60.654-62.034-107.456
				C199.341,442.483,247.45,414.711,294.252,427.262z"/>
			<path fill="#4D4D4D" d="M951.158,603.271c46.801,12.546,74.573,60.655,62.046,107.444c-12.551,46.808-60.66,74.579-107.462,62.04
				c-46.801-12.527-74.567-60.643-62.034-107.449C856.254,618.511,904.368,590.721,951.158,603.271z"/>
		</g>
		<g>
			<path fill="#4D4D4D" d="M261.659,694.055c41.956-24.235,95.597-9.858,119.832,32.104c24.229,41.963,9.846,95.615-32.117,119.845
				c-41.963,24.235-95.609,9.846-119.838-32.117C205.318,771.931,219.678,718.271,261.659,694.055z"/>
			<path fill="#4D4D4D" d="M850.62,354.002c41.962-24.223,95.627-9.846,119.844,32.111c24.218,41.969,9.846,95.621-32.116,119.85
				c-41.963,24.235-95.622,9.847-119.845-32.116C794.286,431.89,808.657,378.231,850.62,354.002z"/>
		</g>
		<g>
			<path fill="#4D4D4D" d="M427.262,905.748c12.527-46.801,60.631-74.556,107.432-62.034c46.813,12.54,74.586,60.648,62.047,107.45
				c-12.552,46.801-60.654,74.573-107.456,62.034C442.495,1000.659,414.705,952.556,427.262,905.748z"/>
			<path fill="#4D4D4D" d="M603.271,248.842c12.54-46.801,60.655-74.586,107.444-62.034c46.795,12.54,74.586,60.643,62.034,107.444
				c-12.527,46.807-60.643,74.573-107.443,62.04C618.505,343.746,590.715,295.649,603.271,248.842z"/>
		</g>
	</g>
	<path fill="#3E3A39" d="M793.334,600.006c0,106.763-86.56,193.328-193.328,193.328c-106.78,0-193.333-86.565-193.333-193.328
		c0-106.78,86.553-193.34,193.333-193.34C706.774,406.666,793.334,493.226,793.334,600.006z"/>
</g>
</svg>
