<?xml version="1.0" encoding="utf-8"?>
<!-- Generator: Adobe Illustrator 16.0.0, SVG Export Plug-In . SVG Version: 6.00 Build 0)  -->
<!DOCTYPE svg PUBLIC "-//W3C//DTD SVG 1.1//EN" "http://www.w3.org/Graphics/SVG/1.1/DTD/svg11.dtd">
<svg version="1.1" id="图层_1" xmlns="http://www.w3.org/2000/svg" xmlns:xlink="http://www.w3.org/1999/xlink" x="0px" y="0px"
	 width="1331.959px" height="1200px" viewBox="0 0 1331.959 1200" enable-background="new 0 0 1331.959 1200" xml:space="preserve">
<g>
	<path fill="#858585" d="M1331.922,181.968c0.396-32.159-8.212-64.229-24.761-92.595c-16.293-28.482-39.755-51.945-67.782-67.68
		c-0.411-0.242-0.808-0.506-1.219-0.748c-7.272-4.19-14.707-7.816-22.244-10.957c-10.311-4.301-20.813-7.61-31.403-9.988h-81.688
		c-0.008,0-0.008,0-0.008,0H147.401c-18.311,4.109-36.393,11.008-53.61,20.945c-0.418,0.242-0.808,0.506-1.226,0.748
		C64.517,37.428,41.046,60.928,24.754,89.439c-11.353,19.492-18.963,40.73-22.486,62.542c-0.323,1.981-0.609,3.97-0.866,5.966
		c-0.499,3.979-0.866,7.978-1.101,11.984c-0.228,4.008-0.323,8.021-0.271,12.044c0,0.477-0.029,0.954-0.029,1.431
		c0,13.166,1.365,25.994,3.89,38.367c1.284,6.319,2.899,12.514,4.792,18.561l40.849,70.762l477.696,827.395
		c12.719,13.805,27.733,26.031,44.951,35.969c0.418,0.242,0.844,0.447,1.262,0.689c27.66,16.417,59.739,24.996,92.573,24.85
		c12.307,0.051,24.504-1.123,36.4-3.479c7.934-1.57,15.735-3.67,23.338-6.268c3.809-1.299,7.566-2.73,11.266-4.285
		c7.404-3.112,14.59-6.723,21.495-10.826c0.286-0.16,0.58-0.314,0.866-0.477c0.132-0.066,0.265-0.139,0.396-0.213
		c17.217-9.943,32.247-22.17,44.965-35.982l40.842-70.747l0.007-0.007l477.696-827.396c3.854-12.329,6.531-25.202,7.802-38.521
		c0.572-6.048,0.873-12.183,0.873-18.392C1331.959,182.922,1331.922,182.452,1331.922,181.968z M190.665,285.027
		c-59.578,0-107.882-48.304-107.882-107.889c0-59.584,48.304-107.882,107.882-107.882c59.584,0,107.889,48.298,107.889,107.882
		C298.554,236.724,250.249,285.027,190.665,285.027z M665.976,1122.932c-59.584,0-107.882-48.305-107.882-107.889
		c0-59.577,48.298-107.882,107.882-107.882c59.585,0,107.89,48.305,107.89,107.882
		C773.865,1074.627,725.561,1122.932,665.976,1122.932z M1145.448,285.027c-59.577,0-107.882-48.304-107.882-107.889
		c0-59.584,48.305-107.882,107.882-107.882c59.592,0,107.889,48.298,107.889,107.882
		C1253.337,236.724,1205.04,285.027,1145.448,285.027z"/>
</g>
</svg>
