<?xml version="1.0" encoding="utf-8"?>
<!-- Generator: Adobe Illustrator 16.0.0, SVG Export Plug-In . SVG Version: 6.00 Build 0)  -->
<!DOCTYPE svg PUBLIC "-//W3C//DTD SVG 1.1//EN" "http://www.w3.org/Graphics/SVG/1.1/DTD/svg11.dtd">
<svg version="1.1" id="图层_1" xmlns="http://www.w3.org/2000/svg" xmlns:xlink="http://www.w3.org/1999/xlink" x="0px" y="0px"
	 width="456.188px" height="1200px" viewBox="0 0 456.188 1200" enable-background="new 0 0 456.188 1200" xml:space="preserve">
<g>
	<polygon fill="#C2C2C2" points="122.502,203.551 0,203.551 0,507.114 78.176,507.114 122.502,507.114 	"/>
	<path fill="#858585" d="M167.851,507.114h120.486h45.354V203.551h-45.354H167.851h-45.349v303.563H167.851z M228.097,289.962
		c36.104,0,65.37,29.27,65.37,65.372c0,36.104-29.267,65.37-65.37,65.37s-65.373-29.267-65.373-65.37
		C162.724,319.231,191.993,289.962,228.097,289.962z"/>
	<polygon fill="#C2C2C2" points="333.691,203.551 333.691,507.114 378.012,507.114 456.188,507.114 456.188,203.551 	"/>
	<polygon fill="#4D4D4D" points="288.337,513.219 167.851,513.219 122.502,513.219 78.176,513.219 78.176,543.736 378.012,543.736 
		378.012,513.219 333.691,513.219 	"/>
	<polygon fill="#4D4D4D" points="272.16,166.813 184.027,166.813 150.856,166.813 78.176,166.813 78.176,197.331 378.012,197.331 
		378.012,166.813 305.337,166.813 	"/>
	<rect y="549.816" fill="#C2C2C2" width="122.502" height="112.917"/>
	<polygon fill="#858585" points="288.337,549.816 167.851,549.816 122.502,549.816 122.502,662.733 167.851,662.733 
		288.337,662.733 333.691,662.733 333.691,549.816 	"/>
	<rect x="333.691" y="549.816" fill="#C2C2C2" width="122.496" height="112.917"/>
	<rect x="78.176" y="668.837" fill="#4D4D4D" width="299.836" height="30.519"/>
	<rect x="22.647" y="707.492" fill="#C2C2C2" width="110.339" height="101.705"/>
	<polygon fill="#858585" points="282.358,707.492 173.831,707.492 132.986,707.492 132.986,809.197 173.831,809.197 
		282.358,809.197 323.21,809.197 323.21,707.492 	"/>
	<rect x="323.21" y="707.492" fill="#C2C2C2" width="110.333" height="101.705"/>
	<rect x="78.176" y="815.301" fill="#4D4D4D" width="299.836" height="30.519"/>
	<rect x="61.248" y="851.702" fill="#C2C2C2" width="89.608" height="82.596"/>
	<polygon fill="#858585" points="272.16,851.702 184.027,851.702 150.856,851.702 150.856,934.298 184.027,934.298 272.16,934.298 
		305.337,934.298 305.337,851.702 	"/>
	<rect x="305.337" y="851.702" fill="#C2C2C2" width="89.603" height="82.596"/>
	<rect x="78.176" y="940.401" fill="#4D4D4D" width="299.836" height="30.519"/>
	<polygon fill="#C2C2C2" points="150.856,166.813 150.856,84.217 61.248,84.217 61.248,166.813 78.176,166.813 	"/>
	<polygon fill="#858585" points="184.027,166.813 272.16,166.813 305.337,166.813 305.337,84.217 272.16,84.217 184.027,84.217 
		150.856,84.217 150.856,166.813 	"/>
	<polygon fill="#C2C2C2" points="378.012,166.813 394.939,166.813 394.939,84.217 305.337,84.217 305.337,166.813 	"/>
	<rect x="78.176" fill="#4D4D4D" width="299.836" height="77.243"/>
	<rect x="158.104" y="1016.819" fill="#4D4D4D" width="139.979" height="143.385"/>
	<circle fill="#727171" cx="228.097" cy="355.333" r="65.371"/>
	<path fill="#3E3A39" d="M228.097,407.633c28.882,0,52.295-23.413,52.295-52.299c0-28.882-23.413-52.298-52.295-52.298
		c-28.885,0-52.298,23.416-52.298,52.298C175.799,384.22,199.212,407.633,228.097,407.633z"/>
	<polygon fill="#1A1A1A" points="158.104,1016.819 298.083,1016.819 378.012,970.92 78.176,970.92 	"/>
	<polygon fill="#1A1A1A" points="157.091,1154.101 194.813,1200 260.871,1200 298.593,1154.101 	"/>
</g>
</svg>
