<?xml version="1.0" encoding="utf-8"?>
<!-- Generator: Adobe Illustrator 16.0.0, SVG Export Plug-In . SVG Version: 6.00 Build 0)  -->
<!DOCTYPE svg PUBLIC "-//W3C//DTD SVG 1.1//EN" "http://www.w3.org/Graphics/SVG/1.1/DTD/svg11.dtd">
<svg version="1.1" id="图层_1" xmlns="http://www.w3.org/2000/svg" xmlns:xlink="http://www.w3.org/1999/xlink" x="0px" y="0px"
	 width="1323.832px" height="1200px" viewBox="0 0 1323.832 1200" enable-background="new 0 0 1323.832 1200" xml:space="preserve">
<g>
	<path fill="#D5D5D6" d="M661.913,0C296.351,0,0,244.937,0,547.09c0,202.715,133.396,379.666,331.588,474.193V1200h95.809v-141.194
		c17.71,5.55,35.763,10.521,54.158,14.818V1200h95.814v-110.242c17.834,1.877,35.905,3.146,54.152,3.825V1200h95.814v-108.477
		c18.283-1.488,36.342-3.578,54.152-6.27V1200h95.814v-135.462c18.437-5.242,36.501-11.134,54.158-17.651V1200h95.814v-196.676
		c178.711-97.969,296.557-265.717,296.557-456.234C1323.832,244.937,1027.481,0,661.913,0z M465.657,771.954
		c-89.244,33.497-193.642-24.724-233.188-130.06c-39.542-105.325,0.743-217.875,89.986-251.378
		c89.237-33.508,193.636,24.725,233.177,130.055C595.18,625.901,554.895,738.446,465.657,771.954z M1091.363,641.895
		c-39.541,105.336-143.945,163.557-233.177,130.06c-89.243-33.508-129.522-146.053-89.986-251.383
		c39.547-105.33,143.944-163.563,233.188-130.055C1090.626,424.02,1130.911,536.569,1091.363,641.895z"/>
</g>
</svg>
