<?xml version="1.0" encoding="utf-8"?>
<!-- Generator: Adobe Illustrator 16.0.0, SVG Export Plug-In . SVG Version: 6.00 Build 0)  -->
<!DOCTYPE svg PUBLIC "-//W3C//DTD SVG 1.1//EN" "http://www.w3.org/Graphics/SVG/1.1/DTD/svg11.dtd">
<svg version="1.1" id="图层_1" xmlns="http://www.w3.org/2000/svg" xmlns:xlink="http://www.w3.org/1999/xlink" x="0px" y="0px"
	 width="156.14px" height="1200px" viewBox="0 0 156.14 1200" enable-background="new 0 0 156.14 1200" xml:space="preserve">
<g>
	<path fill="none" d="M78.56,1147.45c1.579,0,3.116-0.164,4.613-0.44c11.101-2.603,19.375-12.543,19.375-24.437
		c0-13.873-11.248-25.119-25.121-25.119c-1.577,0-3.115,0.164-4.612,0.44c-11.101,2.603-19.375,12.541-19.375,24.435
		C53.439,1136.203,64.688,1147.45,78.56,1147.45z"/>
	<path fill="#C2C2C2" d="M155.985,154.852V0H1.133v154.853h0.154v-0.001H155.985z M78.56,52.305
		c13.874,0,25.121,11.246,25.121,25.12s-11.247,25.121-25.121,25.121c-13.872,0-25.12-11.247-25.12-25.121
		S64.688,52.305,78.56,52.305z"/>
	<path fill="#858585" d="M155.985,154.852H1.287v0.001v889.739H156.14v-889.74H155.985z M116.917,938.256
		c0,34.169-17.391,61.867-38.847,61.867c-21.452,0-38.846-27.698-38.846-61.867V261.741c0-34.168,17.394-61.866,38.846-61.866
		c21.456,0,38.847,27.698,38.847,61.866V938.256z"/>
	<path fill="#C2C2C2" d="M0,1200h154.853v-154.853H0V1200z M72.814,1097.895c1.497-0.276,3.035-0.44,4.612-0.44
		c13.873,0,25.121,11.246,25.121,25.119c0,11.894-8.274,21.834-19.375,24.437c-1.497,0.276-3.034,0.44-4.613,0.44
		c-13.872,0-25.12-11.247-25.12-25.121C53.439,1110.436,61.714,1100.497,72.814,1097.895z"/>
</g>
</svg>
