<?xml version="1.0" encoding="utf-8"?>
<!-- Generator: Adobe Illustrator 16.0.0, SVG Export Plug-In . SVG Version: 6.00 Build 0)  -->
<!DOCTYPE svg PUBLIC "-//W3C//DTD SVG 1.1//EN" "http://www.w3.org/Graphics/SVG/1.1/DTD/svg11.dtd">
<svg version="1.1" id="图层_1" xmlns="http://www.w3.org/2000/svg" xmlns:xlink="http://www.w3.org/1999/xlink" x="0px" y="0px"
	 width="1375.151px" height="1200px" viewBox="0 0 1375.151 1200" enable-background="new 0 0 1375.151 1200" xml:space="preserve">
<g>
	<path fill="#A4A4A5" d="M1145.415,317.353V0H194.329v828.101H0V1200h194.329h136.403h814.683V725.452h229.736v-408.1H1145.415z
		 M322.313,67.376c38.705,0,70.084,31.379,70.084,70.089c0,38.7-31.379,70.085-70.084,70.085c-38.71,0-70.084-31.385-70.084-70.085
		C252.229,98.755,283.603,67.376,322.313,67.376z M322.313,1133.734c-38.71,0-70.084-31.379-70.084-70.09
		c0-38.705,31.374-70.084,70.084-70.084c38.705,0,70.084,31.379,70.084,70.084C392.396,1102.355,361.018,1133.734,322.313,1133.734z
		 M678.912,893.899c-162.302,0-293.873-131.566-293.873-293.873c0-162.296,131.571-293.867,293.873-293.867
		c162.296,0,293.878,131.571,293.878,293.867C972.79,762.333,841.208,893.899,678.912,893.899z M1035.521,1132.683
		c-38.711,0-70.09-31.379-70.09-70.089c0-38.705,31.379-70.084,70.09-70.084c38.699,0,70.078,31.379,70.078,70.084
		C1105.6,1101.304,1074.221,1132.683,1035.521,1132.683z M1035.521,206.498c-38.711,0-70.09-31.385-70.09-70.089
		c0-38.705,31.379-70.09,70.09-70.09c38.699,0,70.078,31.385,70.078,70.09C1105.6,175.113,1074.221,206.498,1035.521,206.498z"/>
</g>
</svg>
