<?xml version="1.0" encoding="utf-8"?>
<!-- Generator: Adobe Illustrator 16.0.0, SVG Export Plug-In . SVG Version: 6.00 Build 0)  -->
<!DOCTYPE svg PUBLIC "-//W3C//DTD SVG 1.1//EN" "http://www.w3.org/Graphics/SVG/1.1/DTD/svg11.dtd">
<svg version="1.1" id="图层_1" xmlns="http://www.w3.org/2000/svg" xmlns:xlink="http://www.w3.org/1999/xlink" x="0px" y="0px"
	 width="1200.579px" height="1200px" viewBox="0 0 1200.579 1200" enable-background="new 0 0 1200.579 1200" xml:space="preserve">
<g>
	<path fill="#C2C2C2" d="M1105.525,599.998c0-11.392-0.418-22.686-1.161-33.89l96.215-16.966l-18.807-106.657l-96.086,16.943
		c-6.334-21.898-14.11-43.176-23.211-63.737l84.503-48.793l-54.147-93.79l-84.596,48.837
		c-13.377-18.276-27.932-35.627-43.587-51.923l62.794-74.839l-82.966-69.611l-62.76,74.791
		c-18.712-12.579-38.329-23.919-58.706-33.943l33.378-91.713L754.617,17.67l-33.378,91.707
		c-21.751-5.344-44.039-9.292-66.798-11.714V0h-108.3v97.664c-22.754,2.422-45.051,6.368-66.798,11.714l-33.382-91.713
		L344.194,54.706l33.382,91.709c-20.385,10.028-39.997,21.366-58.718,33.945l-62.756-74.795l-82.966,69.617l62.799,74.837
		c-15.66,16.294-30.22,33.645-43.596,51.923l-84.592-48.837l-54.146,93.79l84.506,48.788c-9.104,20.564-16.885,41.846-23.215,63.744
		l-96.086-16.943L0.004,549.142l96.206,16.962c-0.743,11.204-1.157,22.498-1.157,33.894c0,11.395,0.414,22.696,1.161,33.897
		L0,650.865L18.806,757.52l96.086-16.945c6.33,21.896,14.111,43.178,23.215,63.742l-84.506,48.793l54.146,93.791l84.592-48.846
		c13.376,18.277,27.936,35.631,43.596,51.928l-62.799,74.838l82.962,69.615l62.76-74.797c18.721,12.584,38.333,23.92,58.718,33.951
		l-33.382,91.707l101.768,37.047l33.382-91.715c21.747,5.336,44.044,9.287,66.798,11.711v97.658h108.3v-97.658
		c22.759-2.424,45.047-6.375,66.798-11.711l33.378,91.707l101.771-37.039l-33.378-91.717c20.377-10.021,39.994-21.367,58.706-33.941
		l62.769,74.797l82.957-69.615l-62.794-74.838c15.655-16.297,30.21-33.65,43.587-51.928l84.596,48.838l54.147-93.791l-84.511-48.795
		c9.108-20.555,16.885-41.836,23.219-63.732l96.086,16.945l18.807-106.664l-96.215-16.961
		C1105.107,622.686,1105.525,611.393,1105.525,599.998z M600.289,1078.695c-264.375,0-478.695-214.316-478.695-478.698
		c0-264.374,214.32-478.692,478.695-478.692c264.38,0,478.696,214.318,478.696,478.692
		C1078.985,864.379,864.668,1078.695,600.289,1078.695z"/>
	<path fill="#999999" d="M600.289,121.305c-264.375,0-478.695,214.318-478.695,478.692c0,264.381,214.32,478.698,478.695,478.698
		c264.38,0,478.696-214.316,478.696-478.698C1078.985,335.624,864.668,121.305,600.289,121.305z M600.289,1030.822
		c-237.938,0-430.827-192.881-430.827-430.825c0-237.937,192.89-430.822,430.827-430.822c237.942,0,430.833,192.886,430.833,430.822
		C1031.122,837.941,838.231,1030.822,600.289,1030.822z"/>
	<path fill="#C2C2C2" d="M600.289,169.175c-237.938,0-430.827,192.886-430.827,430.822c0,237.944,192.89,430.825,430.827,430.825
		c237.942,0,430.833-192.881,430.833-430.825C1031.122,362.061,838.231,169.175,600.289,169.175z M600.289,987.748
		c-214.142,0-387.743-173.598-387.743-387.75c0-214.141,173.602-387.738,387.743-387.738c214.151,0,387.749,173.598,387.749,387.738
		C988.038,814.15,814.44,987.748,600.289,987.748z"/>
	<path fill="#858585" d="M600.289,212.259c-214.142,0-387.743,173.598-387.743,387.738c0,214.153,173.602,387.75,387.743,387.75
		c214.151,0,387.749-173.598,387.749-387.75C988.038,385.857,814.44,212.259,600.289,212.259z M600.289,766.918
		c-92.173,0-166.905-74.729-166.905-166.92c0-92.177,74.732-166.9,166.905-166.9c92.191,0,166.919,74.724,166.919,166.9
		C767.208,692.189,692.48,766.918,600.289,766.918z"/>
	<path fill="#999999" d="M600.289,433.097c-92.173,0-166.905,74.724-166.905,166.9c0,92.192,74.732,166.92,166.905,166.92
		c92.191,0,166.919-74.729,166.919-166.92C767.208,507.821,692.48,433.097,600.289,433.097z M600.289,721.684
		c-67.195,0-121.671-54.48-121.671-121.686c0-67.192,54.476-121.668,121.671-121.668c67.214,0,121.685,54.476,121.685,121.668
		C721.973,667.203,667.502,721.684,600.289,721.684z"/>
	<path fill="#4D4D4D" d="M600.289,478.33c-67.195,0-121.671,54.476-121.671,121.668c0,67.206,54.476,121.686,121.671,121.686
		c67.214,0,121.685-54.48,121.685-121.686C721.973,532.805,667.502,478.33,600.289,478.33z M600.289,671.855
		c-39.674,0-71.839-32.174-71.839-71.858c0-39.677,32.165-71.843,71.839-71.843c39.692,0,71.857,32.166,71.857,71.843
		C672.146,639.682,639.981,671.855,600.289,671.855z"/>
	<path fill="#858585" d="M600.289,528.155c-39.674,0-71.839,32.166-71.839,71.843c0,39.684,32.165,71.858,71.839,71.858
		c39.692,0,71.857-32.174,71.857-71.858C672.146,560.321,639.981,528.155,600.289,528.155z"/>
</g>
</svg>
