<?xml version="1.0" encoding="utf-8"?>
<!-- Generator: Adobe Illustrator 16.0.0, SVG Export Plug-In . SVG Version: 6.00 Build 0)  -->
<!DOCTYPE svg PUBLIC "-//W3C//DTD SVG 1.1//EN" "http://www.w3.org/Graphics/SVG/1.1/DTD/svg11.dtd">
<svg version="1.1" id="图层_1" xmlns="http://www.w3.org/2000/svg" xmlns:xlink="http://www.w3.org/1999/xlink" x="0px" y="0px"
	 width="752.271px" height="1200px" viewBox="0 0 752.271 1200" enable-background="new 0 0 752.271 1200" xml:space="preserve">
<g>
	<path fill="none" d="M670.752,39.537c-19.426,3.781-32.107,22.596-28.334,42.019c3.781,19.433,22.593,32.121,42.019,28.344
		c19.426-3.78,32.118-22.592,28.338-42.018C709,48.448,690.186,35.764,670.752,39.537z"/>
	<path fill="#4D4D4D" d="M669.048,30.747c-24.287,4.723-40.148,28.24-35.423,52.523c4.719,24.28,28.24,40.145,52.523,35.419
		c24.283-4.723,40.141-28.239,35.422-52.522C716.845,41.887,693.331,26.025,669.048,30.747z M684.437,109.899
		c-19.426,3.777-38.237-8.911-42.019-28.344c-3.773-19.423,8.908-38.237,28.334-42.019c19.434-3.773,38.248,8.911,42.022,28.345
		C716.555,87.308,703.862,106.119,684.437,109.899z"/>
	<g>
		<path fill="#3E3A39" d="M711.934,344.21c2.774-19.048-9.238-37.498-28.304-42.346c-19.075-4.854-38.44,5.624-45.101,23.683
			L711.934,344.21z"/>
		<path fill="#3E3A39" d="M636.552,333.324c-2.774,19.052,9.235,37.502,28.307,42.35c19.068,4.847,38.438-5.621,45.097-23.683
			L636.552,333.324z"/>
		<polygon fill="#A4A4A5" points="711.934,344.21 638.529,325.547 638.324,325.493 636.346,333.277 636.552,333.324 
			709.955,351.991 710.161,352.045 712.14,344.268 		"/>
	</g>
	<g>
		<g>
			<path fill="none" d="M99.08,155.466c-19.187-4.874-38.689,6.724-43.564,25.903c-4.881,19.184,6.718,38.687,25.897,43.564
				c19.187,4.878,38.683-6.721,43.564-25.903C129.852,179.851,118.26,160.343,99.08,155.466z"/>
			<path fill="none" d="M680.471,303.299c-19.187-4.877-38.69,6.718-43.564,25.9c-4.878,19.184,6.717,38.687,25.9,43.562
				c19.18,4.877,38.687-6.714,43.564-25.894C711.248,327.684,699.65,308.177,680.471,303.299z"/>
			<path fill="#4D4D4D" d="M101.284,146.787c-23.976-6.096-48.357,8.398-54.45,32.375c-6.096,23.976,8.398,48.354,32.375,54.45
				c23.976,6.096,48.357-8.398,54.45-32.375C139.759,177.262,125.261,152.884,101.284,146.787z M81.413,224.934
				c-19.18-4.878-30.778-24.381-25.897-43.564c4.875-19.18,24.378-30.777,43.564-25.903c19.18,4.877,30.771,24.385,25.897,43.564
				C120.096,218.213,100.6,229.812,81.413,224.934z"/>
			<path fill="#A4A4A5" d="M697.233,267.894l0.095-0.364L108.646,117.842c-39.963-10.16-80.597,14.002-90.757,53.961
				C7.726,211.766,31.888,252.4,71.847,262.561l588.682,149.684l0.095-0.365c37.468,5.638,73.835-17.951,83.371-55.449
				C753.53,318.928,732.845,280.842,697.233,267.894z M79.209,233.612c-23.977-6.097-38.471-30.475-32.375-54.45
				c6.093-23.977,30.475-38.471,54.45-32.375c23.977,6.097,38.475,30.475,32.375,54.45
				C127.566,225.214,103.185,239.708,79.209,233.612z M660.599,381.438c-23.976-6.093-38.471-30.471-32.378-54.446
				c6.1-23.977,30.478-38.475,54.457-32.378c23.977,6.1,38.471,30.478,32.375,54.453
				C708.956,373.047,684.575,387.538,660.599,381.438z"/>
			<path fill="#4D4D4D" d="M682.678,294.614c-23.979-6.097-48.357,8.401-54.457,32.378c-6.093,23.976,8.402,48.354,32.378,54.446
				c23.977,6.1,48.357-8.392,54.454-32.371C721.148,325.092,706.654,300.714,682.678,294.614z M662.807,372.761
				c-19.184-4.875-30.778-24.378-25.9-43.562c4.874-19.183,24.378-30.777,43.564-25.9c19.18,4.878,30.777,24.385,25.9,43.568
				C701.493,366.047,681.986,377.638,662.807,372.761z"/>
		</g>
		<g>
			<path fill="#3E3A39" d="M127.347,196.657c2.792-19.166-9.293-37.729-28.479-42.606c-19.183-4.881-38.666,5.654-45.37,23.828
				L127.347,196.657z"/>
			<path fill="#3E3A39" d="M51.506,185.7c-2.788,19.173,9.296,37.734,28.479,42.612c19.183,4.881,38.673-5.657,45.373-23.831
				L51.506,185.7z"/>
			<polygon fill="#A4A4A5" points="127.347,196.657 53.497,177.879 53.288,177.825 51.3,185.649 51.506,185.7 125.358,204.481 
				125.564,204.535 127.556,196.711 			"/>
		</g>
		<path fill="none" d="M81.896,154.048c-19.433,3.777-32.118,22.593-28.341,42.019c3.78,19.433,22.593,32.117,42.021,28.341
			c19.43-3.781,32.115-22.589,28.334-42.016C120.133,162.956,101.328,150.271,81.896,154.048z"/>
		<path fill="#4D4D4D" d="M80.185,145.258c-24.284,4.723-40.142,28.24-35.423,52.52c4.726,24.283,28.239,40.142,52.526,35.423
			c24.28-4.723,40.145-28.236,35.419-52.522C127.984,156.394,104.468,140.536,80.185,145.258z M95.576,224.407
			c-19.429,3.776-38.241-8.908-42.021-28.341c-3.777-19.426,8.908-38.241,28.341-42.019s38.237,8.908,42.015,28.344
			C127.691,201.818,115.006,220.626,95.576,224.407z"/>
		<path fill="#C2C2C2" d="M670.803,0.371L670.732,0L74.486,115.941c-40.476,7.872-66.909,47.062-59.037,87.534
			c7.868,40.479,47.061,66.909,87.54,59.037l596.245-115.941l-0.07-0.371c36.28-10.896,59.105-47.75,51.72-85.731
			C743.494,22.487,708.527-3.126,670.803,0.371z M97.288,233.2c-24.287,4.719-47.801-11.14-52.526-35.423
			c-4.719-24.279,11.139-47.797,35.423-52.52c24.283-4.722,47.8,11.136,52.522,35.42C137.433,204.964,121.568,228.478,97.288,233.2z
			 M686.148,118.689c-24.283,4.726-47.805-11.139-52.523-35.419c-4.726-24.283,11.136-47.801,35.423-52.523
			c24.283-4.722,47.797,11.14,52.522,35.42C726.289,90.45,710.432,113.967,686.148,118.689z"/>
		<g>
			<path fill="#3E3A39" d="M123.33,459.589c2.788-19.167-9.293-37.731-28.479-42.606c-19.187-4.881-38.666,5.654-45.37,23.828
				L123.33,459.589z"/>
			<path fill="#3E3A39" d="M47.489,448.635c-2.788,19.17,9.289,37.725,28.479,42.605c19.187,4.881,38.667-5.653,45.37-23.827
				L47.489,448.635z"/>
			<polygon fill="#A4A4A5" points="123.33,459.589 49.48,440.811 49.271,440.757 47.283,448.581 47.489,448.635 121.338,467.413 
				121.544,467.467 123.536,459.643 			"/>
		</g>
		<g>
			<g>
				<path fill="none" d="M95.063,418.397c-19.187-4.874-38.69,6.721-43.564,25.903c-4.881,19.183,6.718,38.687,25.897,43.564
					c19.183,4.874,38.687-6.721,43.563-25.904C125.835,442.778,114.243,423.274,95.063,418.397z"/>
				<path fill="none" d="M676.45,566.228c-19.183-4.874-38.687,6.721-43.561,25.903c-4.878,19.184,6.717,38.687,25.896,43.564
					c19.183,4.878,38.69-6.717,43.567-25.903C707.231,590.615,695.633,571.108,676.45,566.228z"/>
				<path fill="#4D4D4D" d="M97.268,409.719c-23.977-6.1-48.357,8.398-54.45,32.375c-6.097,23.976,8.392,48.357,32.371,54.453
					c23.973,6.093,48.36-8.401,54.454-32.378C135.741,440.193,121.24,415.814,97.268,409.719z M77.396,487.865
					c-19.18-4.878-30.778-24.382-25.897-43.564c4.874-19.183,24.378-30.777,43.564-25.903c19.18,4.877,30.771,24.381,25.896,43.563
					C116.083,481.145,96.579,492.739,77.396,487.865z"/>
				<path fill="#A4A4A5" d="M693.217,530.832l0.094-0.371L104.626,380.777c-39.959-10.16-80.597,13.998-90.757,53.954
					c-10.16,39.966,14.002,80.601,53.961,90.761l588.681,149.683l0.095-0.367c37.469,5.634,73.836-17.944,83.372-55.446
					C749.513,581.859,728.824,543.771,693.217,530.832z M75.188,496.547c-23.979-6.096-38.468-30.478-32.371-54.453
					c6.093-23.977,30.474-38.475,54.45-32.375c23.973,6.096,38.474,30.475,32.375,54.45
					C123.549,488.146,99.161,502.64,75.188,496.547z M656.578,644.377c-23.973-6.096-38.467-30.478-32.374-54.453
					c6.1-23.977,30.478-38.475,54.45-32.375c23.983,6.097,38.475,30.475,32.378,54.454
					C704.937,635.976,680.559,650.474,656.578,644.377z"/>
				<path fill="#4D4D4D" d="M678.654,557.549c-23.973-6.1-48.351,8.398-54.45,32.375c-6.093,23.976,8.401,48.357,32.374,54.453
					c23.98,6.097,48.358-8.401,54.454-32.374C717.129,588.023,702.638,563.646,678.654,557.549z M658.786,635.695
					c-19.18-4.878-30.774-24.381-25.896-43.564c4.874-19.183,24.378-30.777,43.561-25.903c19.183,4.881,30.781,24.388,25.903,43.564
					C697.477,628.979,677.969,640.573,658.786,635.695z"/>
			</g>
			<g>
				<path fill="none" d="M77.879,416.982c-19.433,3.774-32.118,22.59-28.338,42.016c3.777,19.429,22.589,32.117,42.019,28.337
					c19.43-3.773,32.114-22.585,28.334-42.019C116.113,425.891,97.305,413.202,77.879,416.982z"/>
				<path fill="none" d="M666.739,302.473c-19.43,3.78-32.115,22.592-28.338,42.018c3.777,19.43,22.586,32.115,42.019,28.341
					c19.426-3.78,32.111-22.592,28.337-42.019C704.977,311.38,686.162,298.691,666.739,302.473z"/>
				<path fill="#4D4D4D" d="M76.167,408.187c-24.283,4.722-40.145,28.239-35.422,52.522c4.719,24.287,28.239,40.145,52.522,35.423
					c24.283-4.723,40.142-28.239,35.423-52.522C123.968,419.325,100.451,403.467,76.167,408.187z M91.56,487.335
					c-19.43,3.78-38.241-8.908-42.019-28.337c-3.78-19.426,8.905-38.241,28.338-42.016c19.426-3.78,38.234,8.908,42.015,28.334
					C123.674,464.75,110.989,483.562,91.56,487.335z"/>
				<path fill="#C2C2C2" d="M666.786,263.303l-0.074-0.371L70.47,378.877c-40.479,7.868-66.913,47.058-59.038,87.53
					c7.868,40.479,47.062,66.909,87.541,59.037l596.242-115.941l-0.074-0.371c36.286-10.899,59.111-47.75,51.727-85.731
					C739.478,285.419,704.511,259.806,666.786,263.303z M93.268,496.132c-24.283,4.722-47.804-11.136-52.522-35.423
					c-4.723-24.283,11.139-47.801,35.422-52.522c24.284-4.72,47.801,11.139,52.523,35.423
					C133.409,467.893,117.551,491.409,93.268,496.132z M682.131,381.624c-24.286,4.716-47.804-11.139-52.525-35.422
					c-4.723-24.284,11.139-47.801,35.422-52.523c24.287-4.722,47.801,11.136,52.52,35.42
					C722.272,353.389,706.414,376.898,682.131,381.624z"/>
				<path fill="#4D4D4D" d="M665.027,293.679c-24.283,4.723-40.145,28.239-35.422,52.523c4.722,24.283,28.239,40.138,52.525,35.422
					c24.283-4.726,40.142-28.235,35.416-52.525C712.828,304.814,689.314,288.957,665.027,293.679z M680.42,372.831
					c-19.433,3.774-38.241-8.911-42.019-28.341c-3.777-19.426,8.908-38.237,28.338-42.018c19.423-3.781,38.237,8.907,42.018,28.34
					C712.531,350.239,699.846,369.051,680.42,372.831z"/>
			</g>
		</g>
		<g>
			<g>
				<path fill="none" d="M89.035,679.833c-19.187-4.881-38.69,6.714-43.564,25.9c-4.881,19.18,6.717,38.681,25.903,43.562
					c19.18,4.874,38.68-6.718,43.558-25.904C119.81,704.211,108.215,684.708,89.035,679.833z"/>
				<path fill="none" d="M670.425,827.66c-19.187-4.877-38.683,6.718-43.561,25.9s6.714,38.684,25.9,43.561
					c19.18,4.878,38.687-6.714,43.563-25.896C701.206,852.041,689.607,832.538,670.425,827.66z"/>
				<path fill="#4D4D4D" d="M91.242,671.145c-23.977-6.096-48.357,8.405-54.453,32.378c-6.097,23.977,8.397,48.354,32.378,54.45
					c23.973,6.1,48.354-8.395,54.446-32.374C129.713,701.626,115.215,677.241,91.242,671.145z M71.374,749.295
					c-19.187-4.881-30.784-24.382-25.903-43.562c4.874-19.187,24.378-30.781,43.564-25.9c19.18,4.875,30.774,24.378,25.896,43.558
					C110.054,742.577,90.554,754.169,71.374,749.295z"/>
				<path fill="#A4A4A5" d="M687.188,792.258l0.095-0.368L98.604,642.21c-39.963-10.167-80.597,13.991-90.758,53.954
					c-10.167,39.963,13.995,80.594,53.961,90.757l588.679,149.681l0.091-0.361c37.468,5.637,73.836-17.951,83.371-55.449
					C743.484,843.289,722.799,805.206,687.188,792.258z M69.167,757.973c-23.98-6.096-38.475-30.474-32.378-54.45
					c6.096-23.973,30.477-38.474,54.453-32.378c23.973,6.097,38.471,30.481,32.371,54.454
					C117.521,749.578,93.14,764.072,69.167,757.973z M650.557,905.803c-23.979-6.096-38.474-30.474-32.374-54.446
					c6.096-23.979,30.474-38.48,54.45-32.382c23.979,6.097,38.471,30.484,32.374,54.457
					C698.911,897.412,674.529,911.899,650.557,905.803z"/>
				<path fill="#4D4D4D" d="M672.633,818.975c-23.977-6.099-48.354,8.402-54.45,32.382c-6.1,23.973,8.395,48.351,32.374,54.446
					c23.973,6.097,48.354-8.391,54.45-32.371C711.104,849.459,696.612,825.071,672.633,818.975z M652.765,897.121
					c-19.187-4.877-30.778-24.378-25.9-43.561s24.374-30.777,43.561-25.9c19.183,4.878,30.781,24.381,25.903,43.564
					C691.451,890.407,671.944,901.999,652.765,897.121z"/>
			</g>
			<g>
				<path fill="#3E3A39" d="M705.908,605.646c2.774-19.051-9.235-37.505-28.307-42.355c-19.072-4.848-38.434,5.627-45.097,23.689
					L705.908,605.646z"/>
				<path fill="#3E3A39" d="M630.523,594.757c-2.771,19.052,9.238,37.499,28.311,42.35c19.071,4.847,38.437-5.624,45.096-23.683
					L630.523,594.757z"/>
				<polygon fill="#A4A4A5" points="705.908,605.646 632.505,586.98 632.302,586.926 630.324,594.707 630.523,594.757 
					703.93,613.424 704.133,613.475 706.111,605.697 				"/>
			</g>
			<g>
				<path fill="#3E3A39" d="M117.301,721.021c2.795-19.166-9.292-37.731-28.476-42.609c-19.187-4.877-38.67,5.654-45.373,23.828
					L117.301,721.021z"/>
				<path fill="#3E3A39" d="M41.46,710.064c-2.788,19.17,9.297,37.731,28.483,42.605c19.183,4.881,38.669-5.654,45.373-23.824
					L41.46,710.064z"/>
				<polygon fill="#A4A4A5" points="117.301,721.021 43.452,702.24 43.249,702.189 41.262,710.014 41.46,710.064 115.316,728.846 
					115.519,728.896 117.511,721.072 				"/>
			</g>
			<g>
				<path fill="none" d="M71.85,678.409c-19.426,3.78-32.117,22.592-28.337,42.019c3.78,19.433,22.589,32.117,42.019,28.34
					c19.429-3.78,32.114-22.589,28.337-42.015C110.091,687.32,91.283,674.635,71.85,678.409z"/>
				<path fill="none" d="M660.714,563.898c-19.427,3.78-32.114,22.596-28.338,42.025c3.777,19.426,22.589,32.114,42.019,28.337
					c19.423-3.777,32.114-22.593,28.334-42.019C698.955,572.81,680.14,560.125,660.714,563.898z"/>
				<path fill="#4D4D4D" d="M70.142,669.619c-24.286,4.726-40.147,28.239-35.419,52.522c4.719,24.284,28.233,40.142,52.523,35.423
					c24.283-4.729,40.142-28.239,35.415-52.526C117.942,680.755,94.426,664.9,70.142,669.619z M85.531,748.768
					c-19.43,3.777-38.238-8.907-42.019-28.34c-3.78-19.427,8.911-38.238,28.337-42.019c19.434-3.774,38.241,8.911,42.019,28.344
					C117.646,726.179,104.96,744.987,85.531,748.768z"/>
				<path fill="#C2C2C2" d="M660.761,524.729l-0.074-0.367L64.44,640.303c-40.476,7.875-66.909,47.059-59.037,87.537
					s47.064,66.909,87.54,59.034l596.246-115.941l-0.071-0.375c36.284-10.893,59.105-47.747,51.724-85.728
					C733.452,546.849,698.482,521.232,660.761,524.729z M87.246,757.564c-24.29,4.719-47.805-11.139-52.523-35.423
					c-4.729-24.283,11.133-47.797,35.419-52.522c24.284-4.719,47.801,11.136,52.52,35.419
					C127.388,729.325,111.529,752.836,87.246,757.564z M676.103,643.051c-24.287,4.726-47.804-11.133-52.522-35.42
					c-4.727-24.283,11.136-47.8,35.419-52.522c24.29-4.726,47.801,11.14,52.526,35.423
					C716.244,614.811,700.386,638.328,676.103,643.051z"/>
				<path fill="#4D4D4D" d="M658.999,555.108c-24.283,4.723-40.146,28.239-35.419,52.522c4.719,24.287,28.235,40.146,52.522,35.42
					c24.283-4.723,40.142-28.24,35.423-52.52C706.8,566.248,683.289,550.383,658.999,555.108z M674.395,634.261
					c-19.43,3.777-38.241-8.911-42.019-28.337c-3.776-19.43,8.911-38.245,28.338-42.025c19.426-3.773,38.241,8.911,42.015,28.344
					C706.509,611.668,693.817,630.483,674.395,634.261z"/>
			</g>
			<g>
				<path fill="#3E3A39" d="M701.892,868.571c2.774-19.044-9.239-37.498-28.308-42.349c-19.074-4.848-38.437,5.623-45.097,23.683
					L701.892,868.571z"/>
				<path fill="#3E3A39" d="M626.503,857.688c-2.768,19.052,9.242,37.499,28.313,42.35c19.065,4.847,38.438-5.624,45.094-23.683
					L626.503,857.688z"/>
				<polygon fill="#A4A4A5" points="701.892,868.571 628.487,849.905 628.278,849.851 626.301,857.639 626.503,857.688 
					699.91,876.355 700.116,876.406 702.094,868.625 				"/>
			</g>
			<g>
				<path fill="#3E3A39" d="M113.284,983.949c2.788-19.162-9.293-37.728-28.479-42.605c-19.187-4.881-38.667,5.654-45.37,23.828
					L113.284,983.949z"/>
				<path fill="#3E3A39" d="M37.443,972.996c-2.788,19.17,9.293,37.731,28.479,42.605c19.187,4.881,38.666-5.654,45.37-23.828
					L37.443,972.996z"/>
				<polygon fill="#A4A4A5" points="113.284,983.949 39.436,965.172 39.229,965.117 37.241,972.942 37.443,972.996 111.293,991.773 
					111.502,991.828 113.494,984 				"/>
			</g>
			<g>
				<g>
					<path fill="none" d="M85.018,942.762c-19.186-4.878-38.689,6.721-43.564,25.896c-4.877,19.187,6.718,38.69,25.9,43.568
						c19.18,4.874,38.681-6.721,43.562-25.904C115.789,967.146,104.197,947.64,85.018,942.762z"/>
					<path fill="none" d="M666.408,1090.592c-19.187-4.878-38.687,6.717-43.564,25.896c-4.874,19.187,6.718,38.69,25.9,43.568
						c19.183,4.877,38.687-6.721,43.567-25.907C697.186,1114.977,685.588,1095.47,666.408,1090.592z"/>
					<path fill="#4D4D4D" d="M87.226,934.08c-23.977-6.097-48.357,8.395-54.454,32.371c-6.096,23.979,8.398,48.36,32.375,54.457
						c23.976,6.096,48.357-8.398,54.453-32.378C125.696,964.558,111.198,940.176,87.226,934.08z M67.354,1012.227
						c-19.183-4.878-30.777-24.382-25.9-43.568c4.875-19.176,24.379-30.774,43.564-25.896c19.18,4.878,30.771,24.385,25.897,43.561
						C106.034,1005.506,86.533,1017.101,67.354,1012.227z"/>
					<path fill="#A4A4A5" d="M683.171,1055.189l0.095-0.368L94.584,905.135c-39.959-10.16-80.601,14.002-90.757,53.957
						c-10.164,39.967,13.998,80.601,53.957,90.761l588.682,149.688l0.098-0.368c37.465,5.63,73.833-17.947,83.372-55.453
						C739.468,1106.221,718.779,1068.131,683.171,1055.189z M65.146,1020.908c-23.977-6.097-38.471-30.478-32.375-54.457
						c6.097-23.977,30.478-38.468,54.454-32.371c23.973,6.096,38.471,30.478,32.374,54.45
						C113.504,1012.51,89.122,1027.004,65.146,1020.908z M646.536,1168.741c-23.976-6.096-38.47-30.48-32.374-54.457
						c6.096-23.976,30.474-38.471,54.453-32.374c23.977,6.096,38.468,30.474,32.371,54.45
						C694.891,1160.337,670.513,1174.834,646.536,1168.741z"/>
					<path fill="#4D4D4D" d="M668.615,1081.91c-23.979-6.097-48.357,8.398-54.453,32.374c-6.096,23.977,8.398,48.361,32.374,54.457
						c23.977,6.093,48.354-8.404,54.45-32.381C707.083,1112.384,692.592,1088.006,668.615,1081.91z M648.744,1160.057
						c-19.183-4.878-30.774-24.382-25.9-43.568c4.878-19.18,24.378-30.774,43.564-25.896c19.18,4.878,30.777,24.385,25.903,43.558
						C687.431,1153.336,667.927,1164.934,648.744,1160.057z"/>
				</g>
				<g>
					<path fill="none" d="M67.833,941.344c-19.429,3.777-32.118,22.593-28.337,42.015c3.777,19.434,22.589,32.118,42.018,28.341
						c19.43-3.777,32.115-22.592,28.334-42.018C106.071,950.248,87.259,937.563,67.833,941.344z"/>
					<path fill="none" d="M656.693,826.837c-19.43,3.777-32.114,22.589-28.334,42.019c3.773,19.426,22.589,32.114,42.019,28.337
						c19.423-3.78,32.114-22.593,28.337-42.021C694.938,835.741,676.123,823.057,656.693,826.837z"/>
					<path fill="#4D4D4D" d="M66.122,932.551c-24.283,4.719-40.146,28.236-35.423,52.522c4.726,24.284,28.239,40.139,52.529,35.416
						c24.28-4.719,40.142-28.239,35.416-52.52C113.922,943.689,90.405,927.825,66.122,932.551z M81.514,1011.699
						c-19.429,3.777-38.24-8.907-42.018-28.341c-3.781-19.422,8.908-38.237,28.337-42.015c19.426-3.78,38.238,8.904,42.015,28.338
						C113.629,989.107,100.943,1007.922,81.514,1011.699z"/>
					<path fill="#C2C2C2" d="M656.74,787.664l-0.067-0.375L60.424,903.231c-40.476,7.878-66.909,47.067-59.037,87.54
						c7.868,40.482,47.064,66.909,87.54,59.034L685.176,933.86l-0.074-0.368c36.283-10.896,59.105-47.75,51.72-85.73
						C729.436,809.777,694.465,784.167,656.74,787.664z M83.229,1020.489c-24.29,4.723-47.804-11.132-52.529-35.416
						c-4.723-24.286,11.14-47.804,35.423-52.522c24.283-4.726,47.8,11.139,52.522,35.419
						C123.37,992.25,107.509,1015.771,83.229,1020.489z M672.086,905.985c-24.29,4.719-47.804-11.139-52.526-35.423
						c-4.723-24.279,11.136-47.8,35.423-52.522c24.286-4.719,47.8,11.14,52.522,35.423S696.369,901.264,672.086,905.985z"/>
					<path fill="#4D4D4D" d="M654.982,818.04c-24.287,4.723-40.146,28.243-35.423,52.522c4.723,24.284,28.236,40.142,52.526,35.423
						c24.283-4.722,40.142-28.239,35.419-52.522S679.269,813.321,654.982,818.04z M670.378,897.192
						c-19.43,3.777-38.245-8.911-42.019-28.337c-3.78-19.43,8.904-38.241,28.334-42.019c19.43-3.78,38.244,8.904,42.021,28.334
						C702.492,874.6,689.801,893.412,670.378,897.192z"/>
				</g>
			</g>
		</g>
	</g>
</g>
</svg>
