<?xml version="1.0" encoding="utf-8"?>
<!-- Generator: Adobe Illustrator 16.0.0, SVG Export Plug-In . SVG Version: 6.00 Build 0)  -->
<!DOCTYPE svg PUBLIC "-//W3C//DTD SVG 1.1//EN" "http://www.w3.org/Graphics/SVG/1.1/DTD/svg11.dtd">
<svg version="1.1" id="图层_1" xmlns="http://www.w3.org/2000/svg" xmlns:xlink="http://www.w3.org/1999/xlink" x="0px" y="0px"
	 width="657.433px" height="1200px" viewBox="0 0 657.433 1200" enable-background="new 0 0 657.433 1200" xml:space="preserve">
<g>
	<path fill="#727171" d="M657.433,326.8c0-16.292-6.976-30.95-18.098-41.168v-52.74c11.122-10.214,18.098-24.875,18.098-41.167
		c0-30.867-25.025-55.895-55.894-55.895c-30.869,0-55.891,25.027-55.891,55.895c0,16.292,6.975,30.953,18.094,41.167v52.74
		c-11.119,10.218-18.094,24.876-18.094,41.168c0,30.87,25.021,55.892,55.891,55.892C632.407,382.691,657.433,357.67,657.433,326.8z"
		/>
	<g>
		<path fill="#A4A4A5" d="M608.684,90.947c16.332-3.31,28.627-17.742,28.627-35.056c0-19.752-16.015-35.768-35.771-35.768
			s-35.771,16.016-35.771,35.768c0,17.313,12.293,31.746,28.627,35.056H608.684z"/>
		<path fill="#C2C2C2" d="M657.433,190.967c0-16.29-6.976-30.948-18.098-41.166V97.06c11.122-10.216,18.098-24.874,18.098-41.168
			C657.433,25.024,632.407,0,601.539,0c-30.869,0-55.891,25.024-55.891,55.892c0,16.294,6.975,30.952,18.094,41.168v52.741
			c-11.119,10.218-18.094,24.876-18.094,41.166c0,30.869,25.021,55.892,55.891,55.892
			C632.407,246.858,657.433,221.836,657.433,190.967z M565.769,55.892c0-19.752,16.014-35.768,35.771-35.768
			s35.771,16.016,35.771,35.768c0,17.313-12.295,31.746-28.627,35.056h-14.288C578.062,87.638,565.769,73.205,565.769,55.892z
			 M565.769,190.967c0-19.755,16.014-35.771,35.771-35.771s35.771,16.016,35.771,35.771s-16.015,35.771-35.771,35.771
			S565.769,210.722,565.769,190.967z"/>
		<circle fill="#A4A4A5" cx="601.54" cy="190.967" r="35.771"/>
	</g>
	<g>
		<path fill="#727171" d="M657.433,598.461c0-16.29-6.976-30.946-18.098-41.165v-52.742c11.122-10.215,18.098-24.876,18.098-41.166
			c0-30.865-25.025-55.892-55.894-55.892c-30.869,0-55.891,25.026-55.891,55.892c0,16.29,6.975,30.951,18.094,41.166v52.742
			c-11.119,10.219-18.094,24.875-18.094,41.165c0,30.869,25.021,55.894,55.891,55.894
			C632.407,654.354,657.433,629.33,657.433,598.461z"/>
		<g>
			<path fill="#A4A4A5" d="M608.684,362.612c16.332-3.312,28.627-17.746,28.627-35.056c0-19.754-16.015-35.771-35.771-35.771
				s-35.771,16.017-35.771,35.771c0,17.31,12.293,31.744,28.627,35.056H608.684z"/>
			<path fill="#C2C2C2" d="M657.433,462.631c0-16.29-6.976-30.951-18.098-41.168v-52.738c11.122-10.217,18.098-24.876,18.098-41.168
				c0-30.867-25.025-55.893-55.894-55.893c-30.869,0-55.891,25.025-55.891,55.893c0,16.292,6.975,30.951,18.094,41.168v52.738
				c-11.119,10.217-18.094,24.878-18.094,41.168c0,30.869,25.021,55.894,55.891,55.894
				C632.407,518.524,657.433,493.5,657.433,462.631z M565.769,327.557c0-19.754,16.014-35.771,35.771-35.771
				s35.771,16.017,35.771,35.771c0,17.31-12.295,31.744-28.627,35.056h-14.288C578.062,359.301,565.769,344.866,565.769,327.557z
				 M565.769,462.631c0-19.756,16.014-35.771,35.771-35.771s35.771,16.015,35.771,35.771s-16.015,35.771-35.771,35.771
				S565.769,482.387,565.769,462.631z"/>
			<circle fill="#A4A4A5" cx="601.54" cy="462.631" r="35.771"/>
		</g>
	</g>
	<g>
		<path fill="#727171" d="M330.274,654.713c16.292,0,30.951-6.976,41.166-18.098h52.742c10.215,11.122,24.878,18.098,41.168,18.098
			c30.867,0,55.894-25.025,55.894-55.894s-25.026-55.894-55.894-55.894c-16.29,0-30.953,6.976-41.168,18.096h-52.738
			c-10.219-11.12-24.877-18.096-41.169-18.096c-30.868,0-55.892,25.025-55.892,55.894S299.407,654.713,330.274,654.713z"/>
		<g>
			<path fill="#A4A4A5" d="M566.128,605.965c3.309,16.33,17.744,28.625,35.055,28.625c19.753,0,35.769-16.014,35.769-35.771
				s-16.016-35.771-35.769-35.771c-17.311,0-31.746,12.293-35.055,28.627V605.965z"/>
			<path fill="#C2C2C2" d="M466.107,654.713c16.29,0,30.95-6.976,41.166-18.098h52.744c10.213,11.122,24.873,18.098,41.165,18.098
				c30.866,0,55.892-25.025,55.892-55.894s-25.025-55.894-55.892-55.894c-16.292,0-30.952,6.976-41.165,18.096h-52.744
				c-10.216-11.12-24.876-18.096-41.166-18.096c-30.87,0-55.892,25.025-55.894,55.894
				C410.214,629.688,435.237,654.713,466.107,654.713z M601.183,563.049c19.753,0,35.769,16.014,35.769,35.771
				s-16.016,35.771-35.769,35.771c-17.311,0-31.746-12.295-35.055-28.625v-14.289C569.437,575.342,583.872,563.049,601.183,563.049z
				 M466.107,563.049c19.757,0,35.773,16.014,35.773,35.771s-16.017,35.771-35.773,35.771c-19.755,0-35.772-16.014-35.772-35.771
				S446.353,563.049,466.107,563.049z"/>
			<circle fill="#A4A4A5" cx="466.107" cy="598.819" r="35.771"/>
		</g>
	</g>
	<g>
		<path fill="#727171" d="M56.25,654.713c16.292,0,30.951-6.976,41.166-18.098h52.741c10.216,11.122,24.877,18.098,41.168,18.098
			c30.868,0,55.894-25.025,55.894-55.894s-25.025-55.894-55.892-55.894c-16.293,0-30.954,6.976-41.169,18.096H97.416
			c-10.215-11.12-24.874-18.096-41.166-18.096c-30.868,0-55.891,25.025-55.892,55.894C0.358,629.688,25.382,654.713,56.25,654.713z"
			/>
		<g>
			<path fill="#A4A4A5" d="M292.099,605.965c3.312,16.33,17.747,28.625,35.058,28.625c19.755,0,35.77-16.014,35.77-35.771
				s-16.015-35.771-35.77-35.771c-17.311,0-31.744,12.293-35.058,28.627V605.965z"/>
			<path fill="#C2C2C2" d="M192.081,654.713c16.292,0,30.952-6.976,41.165-18.098h52.745c10.215,11.122,24.875,18.098,41.165,18.098
				c30.867,0,55.892-25.025,55.892-55.894c0.002-30.868-25.024-55.894-55.892-55.894c-16.29,0-30.95,6.976-41.165,18.096h-52.74
				c-10.218-11.12-24.878-18.096-41.168-18.096c-30.868,0-55.894,25.025-55.894,55.894S161.215,654.713,192.081,654.713z
				 M327.156,563.049c19.755,0,35.77,16.014,35.77,35.771s-16.015,35.771-35.77,35.771c-17.311,0-31.746-12.295-35.058-28.625
				v-14.289C295.412,575.342,309.846,563.049,327.156,563.049z M192.083,563.049c19.757,0,35.771,16.014,35.771,35.771
				s-16.018,35.771-35.772,35.771c-19.753,0-35.771-16.014-35.771-35.771S172.328,563.049,192.083,563.049z"/>
			<circle fill="#A4A4A5" cx="192.082" cy="598.819" r="35.771"/>
		</g>
	</g>
	<g>
		<path fill="#727171" d="M111.785,870.084c0-16.294-6.976-30.953-18.094-41.168v-52.744c11.118-10.215,18.094-24.874,18.094-41.165
			c0-30.866-25.023-55.892-55.894-55.892c-30.867,0-55.89,25.025-55.89,55.892c0,16.291,6.976,30.95,18.094,41.165v52.744
			C6.978,839.131,0.002,853.79,0.002,870.084c0,30.867,25.022,55.891,55.89,55.891C86.762,925.975,111.785,900.951,111.785,870.084z
			"/>
		<g>
			<path fill="#A4A4A5" d="M63.038,634.23c16.331-3.312,28.626-17.746,28.626-35.057c0-19.752-16.014-35.767-35.772-35.767
				c-19.755,0-35.769,16.015-35.769,35.767c0,17.311,12.293,31.745,28.625,35.057H63.038z"/>
			<path fill="#C2C2C2" d="M111.785,734.249c0-16.29-6.976-30.951-18.094-41.165v-52.741c11.118-10.217,18.094-24.877,18.094-41.169
				c0-30.868-25.023-55.892-55.894-55.892c-30.867,0-55.89,25.023-55.89,55.892c0,16.292,6.976,30.952,18.094,41.169v52.741
				C6.978,703.298,0.002,717.959,0.002,734.249c0,30.869,25.022,55.896,55.89,55.896
				C86.762,790.145,111.785,765.118,111.785,734.249z M20.123,599.174c0-19.752,16.014-35.767,35.769-35.767
				c19.759,0,35.772,16.015,35.772,35.767c0,17.311-12.295,31.745-28.626,35.057h-14.29
				C32.416,630.919,20.123,616.484,20.123,599.174z M20.123,734.249c0-19.755,16.014-35.771,35.769-35.771
				c19.759,0,35.772,16.016,35.772,35.771c0,19.756-16.014,35.771-35.772,35.771C36.137,770.02,20.123,754.005,20.123,734.249z"/>
			<path fill="#A4A4A5" d="M91.664,734.249c0-19.755-16.014-35.771-35.772-35.771c-19.755,0-35.769,16.016-35.769,35.771
				c0,19.756,16.014,35.771,35.769,35.771C75.65,770.02,91.664,754.005,91.664,734.249z"/>
		</g>
	</g>
	<g>
		<path fill="#727171" d="M111.785,1144.106c0-16.29-6.976-30.95-18.094-41.166v-52.742c11.118-10.214,18.094-24.875,18.094-41.165
			c0-30.868-25.023-55.894-55.894-55.894c-30.867,0-55.89,25.025-55.89,55.894c0,16.29,6.976,30.951,18.094,41.165v52.742
			c-11.118,10.216-18.094,24.876-18.094,41.166c0,30.87,25.022,55.894,55.89,55.894C86.762,1200,111.785,1174.977,111.785,1144.106z
			"/>
		<g>
			<path fill="#A4A4A5" d="M63.038,908.256c16.331-3.308,28.626-17.745,28.626-35.054c0-19.754-16.014-35.77-35.772-35.77
				c-19.755,0-35.769,16.016-35.769,35.77c0,17.309,12.293,31.746,28.625,35.054H63.038z"/>
			<path fill="#C2C2C2" d="M111.785,1008.277c0-16.291-6.976-30.95-18.094-41.167v-52.743
				c11.118-10.214,18.094-24.873,18.094-41.165c0-30.867-25.023-55.893-55.894-55.893c-30.867,0-55.89,25.025-55.89,55.893
				c0,16.292,6.976,30.951,18.094,41.165v52.743c-11.118,10.217-18.094,24.876-18.094,41.167c0,30.866,25.022,55.892,55.89,55.892
				C86.762,1064.169,111.785,1039.144,111.785,1008.277z M20.123,873.202c0-19.754,16.014-35.77,35.769-35.77
				c19.759,0,35.772,16.016,35.772,35.77c0,17.309-12.295,31.746-28.626,35.054h-14.29
				C32.416,904.948,20.123,890.511,20.123,873.202z M20.123,1008.277c0-19.757,16.014-35.774,35.769-35.774
				c19.759,0,35.772,16.018,35.772,35.774c0,19.753-16.014,35.767-35.772,35.767C36.137,1044.044,20.123,1028.03,20.123,1008.277z"
				/>
			<path fill="#A4A4A5" d="M91.664,1008.277c0-19.757-16.014-35.774-35.772-35.774c-19.755,0-35.769,16.018-35.769,35.774
				c0,19.753,16.014,35.767,35.769,35.767C75.65,1044.044,91.664,1028.03,91.664,1008.277z"/>
		</g>
	</g>
	<g>
		<g>
			<path fill="#A4A4A5" d="M90.947,1135.156c-3.31-16.33-17.747-28.627-35.056-28.627c-19.753,0-35.769,16.016-35.769,35.771
				c0,19.757,16.016,35.772,35.769,35.772c17.309,0,31.746-12.293,35.056-28.627V1135.156z"/>
			<path fill="#C2C2C2" d="M190.967,1086.41c-16.29,0-30.95,6.974-41.166,18.096H97.057c-10.213-11.122-24.873-18.096-41.165-18.096
				C25.024,1086.41,0,1111.434,0,1142.3c0,30.87,25.024,55.894,55.892,55.894c16.292,0,30.952-6.976,41.165-18.096h52.744
				c10.216,11.12,24.876,18.096,41.166,18.096c30.869,0,55.892-25.023,55.892-55.894
				C246.858,1111.434,221.836,1086.41,190.967,1086.41z M55.892,1178.072c-19.753,0-35.769-16.016-35.769-35.772
				c0-19.755,16.016-35.771,35.769-35.771c17.309,0,31.746,12.297,35.056,28.627v14.289
				C87.638,1165.779,73.2,1178.072,55.892,1178.072z M190.967,1178.072c-19.757,0-35.772-16.016-35.772-35.772
				c0-19.755,16.016-35.771,35.772-35.771c19.755,0,35.77,16.016,35.77,35.771C226.736,1162.057,210.722,1178.072,190.967,1178.072z
				"/>
			<circle fill="#A4A4A5" cx="190.967" cy="1142.301" r="35.771"/>
		</g>
	</g>
</g>
</svg>
