<?xml version="1.0" encoding="utf-8"?>
<!-- Generator: Adobe Illustrator 16.0.0, SVG Export Plug-In . SVG Version: 6.00 Build 0)  -->
<!DOCTYPE svg PUBLIC "-//W3C//DTD SVG 1.1//EN" "http://www.w3.org/Graphics/SVG/1.1/DTD/svg11.dtd">
<svg version="1.1" id="图层_1" xmlns="http://www.w3.org/2000/svg" xmlns:xlink="http://www.w3.org/1999/xlink" x="0px" y="0px"
	 width="2467.23px" height="1200px" viewBox="0 0 2467.23 1200" enable-background="new 0 0 2467.23 1200" xml:space="preserve">
<g>
	<path fill="none" d="M1216.368,381.155c5.025,0.16,9.969,0.646,14.794,1.417v-0.658
		C1226.319,381.341,1221.38,381.085,1216.368,381.155z"/>
	<path fill="#8B9DD0" d="M1287.506,69.021c18.877-18.748,39.541-42.89,51.15-56.825c1.264,0.386,2.686,0.628,4.158,0.689
		c6.1,0.282,11.158-2.387,11.332-5.926c0.139-3.557-4.645-6.667-10.744-6.94c-6.098-0.272-11.158,2.383-11.332,5.939
		c-0.061,1.43,0.693,2.772,1.994,3.899c-22.023,14.503-64.242,43.743-80.764,65.016c-7.346,3.172-13.961,7.512-19.683,12.706
		c-5.74-5.194-12.337-9.534-19.688-12.706c-16.535-21.273-58.736-50.513-80.768-65.016c1.287-1.126,2.058-2.469,2.002-3.899
		c-0.174-3.556-5.242-6.211-11.324-5.939c-6.095,0.273-10.907,3.383-10.752,6.94c0.174,3.539,5.242,6.208,11.324,5.926
		c1.486-0.061,2.885-0.303,4.167-0.689c11.609,13.936,32.269,38.077,51.128,56.825c-36.938,2.257-66.177,30.895-66.177,65.986
		c0,18.519,8.17,35.248,21.304,47.273c12.779,11.691,30.267,18.93,49.557,18.93c17.959,0,34.291-6.298,46.771-16.578v-4.439
		c12.938,12.908,31.272,21.018,51.665,21.018c19.32,0,36.777-7.238,49.557-18.93c13.135-12.025,21.313-28.755,21.313-47.273
		C1353.695,99.916,1324.465,71.278,1287.506,69.021z"/>
	<path fill="#B9CFEB" d="M1236.057,213.773c1.641-0.057,3.27-0.125,4.926-0.143v0.359c41.168,2.396,77.469,18.229,101.469,41.871
		c-1.213-20.857-4.281-47.069-7.92-73.324c-0.719-0.057-1.42-0.187-2.148-0.256c-12.779,11.691-30.236,18.93-49.557,18.93
		c-20.393,0-38.727-8.109-51.665-21.018v4.439c-12.479,10.28-28.812,16.578-46.771,16.578c-19.29,0-36.777-7.238-49.557-18.93
		c-0.715,0.069-1.416,0.199-2.127,0.256c-3.643,26.255-6.727,52.467-7.922,73.324c24.955-24.57,63.175-40.701,106.376-42.088v-0.143
		C1232.803,213.648,1234.428,213.716,1236.057,213.773z"/>
	<g>
		<path fill="#B9CFEB" d="M1049.342,328.644L194.439,859.666c0,0-251.09,148.035-182.604,222.214
			c68.473,74.187,342.378,74.187,473.624,39.939c131.237-34.239,447.643-376.601,473.625-564.914
			C985.041,368.593,1145.444,276.707,1049.342,328.644z"/>
		<path fill="#B9CFEB" d="M2272.787,859.666l-854.912-531.022c-96.096-51.938,64.303,39.949,90.285,228.262
			c25.955,188.313,342.379,530.674,473.615,564.914c131.246,34.247,405.146,34.247,473.625-39.939
			C2523.869,1007.701,2272.787,859.666,2272.787,859.666z"/>
	</g>
	<g>
		<path fill="#A3A8D4" d="M1185.76,386.21c10.379-3.41,20.645-4.896,30.607-5.056c5.013-0.069,9.951,0.187,14.794,0.759v0.658v0.684
			c0.155,0.031,0.286,0.044,0.429,0.074c17.136-3.357,35.763-3.357,54.781,2.881c12.172,3.984,24.51,10.578,36.707,20.433
			c30.367-20.134,49.607-49.929,49.607-83.192c0-17.262-5.18-33.594-14.398-48.127c-4.4-6.939-9.729-13.45-15.836-19.463
			c-24-23.643-60.301-39.476-101.469-41.871v-0.359c-1.656,0.018-3.285,0.086-4.926,0.143c-1.628-0.057-3.253-0.125-4.895-0.143
			v0.143v0.217c-41.174,2.396-77.466,18.229-101.469,41.871c-6.108,6.013-11.448,12.523-15.846,19.463
			c-9.21,14.533-14.39,30.865-14.39,48.127c0,32.307,18.172,61.291,47.025,81.377c0.871,0.615,1.698,1.213,2.568,1.815
			C1161.258,396.789,1173.596,390.195,1185.76,386.21z"/>
		<path fill="#A3A8D4" d="M1233.587,769.902c84.586,0,156.79-43.076,185.467-103.748c-3.674-18.574-7.564-36.49-11.471-53.541
			c-33.885,49.885-99.086,83.682-173.997,83.682c-74.897,0-140.069-33.753-173.948-83.595c-3.93,17.032-7.798,34.966-11.48,53.541
			C1076.871,726.879,1149.04,769.902,1233.587,769.902z"/>
		<path fill="#A3A8D4" d="M1228.891,921.238c96.648,0,179.16-42.781,212.273-103.149c-2.928-34.706-7.537-69.456-13.135-102.958
			c-18.965,73.328-98.799,128.387-194.442,128.387c-95.586,0-175.378-54.98-194.407-128.231
			c-6.281,37.73-11.367,77.037-14.179,116.093C1062.32,884.626,1139.53,921.238,1228.891,921.238z"/>
		<path fill="#A3A8D4" d="M1228.891,994.854c-91.275,0-169.838-38.215-206.189-93.316c1.043,110.323,26.77,209.176,103.695,251.836
			c41.702,23.14,76.079,37.357,104.765,45.154v1.352c0.155-0.018,0.286-0.087,0.429-0.104c0.299,0.068,0.598,0.155,0.884,0.225
			v-0.459c0.354-0.087,0.771-0.217,1.144-0.329c0.368,0.112,0.771,0.242,1.138,0.329V1200c0.287-0.069,0.586-0.156,0.871-0.225
			c0.143,0.017,0.287,0.086,0.43,0.104v-1.352c28.682-7.797,63.076-22.015,104.799-45.154
			c80.764-44.809,105.09-151.554,103.662-268.453C1414.004,948.824,1329.107,994.854,1228.891,994.854z"/>
		<path fill="#A3A8D4" d="M1233.587,622.689c65.76,0,124.042-26.052,160.221-66.157c-5.875-22.469-11.428-42.07-16.098-57.964
			c-36.23,31.081-87.373,50.514-144.124,50.514c-56.738,0-107.862-19.402-144.067-50.453c-4.701,15.876-10.236,35.491-16.105,57.964
			C1109.593,596.667,1167.843,622.689,1233.587,622.689z"/>
	</g>
	<g>
		<path fill="#FFE100" d="M1233.587,843.518c95.643,0,175.477-55.059,194.442-128.387c-2.789-16.713-5.813-33.078-8.975-48.977
			c-28.678,60.672-100.881,103.748-185.467,103.748c-84.548,0-156.717-43.023-185.429-103.661
			c-3.17,15.933-6.181,32.324-8.979,49.045C1058.209,788.537,1138.001,843.518,1233.587,843.518z"/>
		<path fill="#FFE100" d="M1228.891,921.238c-89.361,0-166.571-36.612-203.89-89.859c-1.698,23.617-2.513,47.131-2.3,70.158
			c36.352,55.102,114.914,93.316,206.189,93.316c100.216,0,185.113-46.029,215.626-109.934c-0.27-22.039-1.447-44.409-3.354-66.831
			C1408.051,878.457,1325.539,921.238,1228.891,921.238z"/>
		<path fill="#FFE100" d="M1377.711,498.569c-8.152-27.654-13.705-43.998-13.705-43.998c-13.16-21.075-26.953-36.651-40.928-47.928
			c-12.197-9.854-24.535-16.448-36.707-20.433c-19.018-6.238-37.645-6.238-54.781-2.881c-0.143-0.03-0.273-0.043-0.429-0.074v-0.684
			c-4.825-0.771-9.769-1.257-14.794-1.417c-9.963,0.16-20.229,1.646-30.607,5.056c-12.164,3.984-24.502,10.578-36.709,20.433
			c-0.87-0.603-1.697-1.2-2.568-1.815c-0.783,0.615-1.555,1.188-2.326,1.815c-13.979,11.276-27.767,26.853-40.932,47.928
			c0,0-5.553,16.344-13.705,44.059c36.205,31.051,87.329,50.453,144.067,50.453C1290.338,549.083,1341.48,529.65,1377.711,498.569z"
			/>
		<path fill="#FFE100" d="M1233.587,696.295c74.911,0,140.112-33.797,173.997-83.682c-4.609-20.057-9.297-38.905-13.775-56.081
			c-36.18,40.104-94.461,66.157-160.221,66.157c-65.744,0-123.994-26.022-160.173-66.096c-4.497,17.189-9.167,36.033-13.775,56.107
			C1093.518,662.542,1158.69,696.295,1233.587,696.295z"/>
	</g>
</g>
</svg>
