<?xml version="1.0" encoding="utf-8"?>
<!-- Generator: Adobe Illustrator 16.0.0, SVG Export Plug-In . SVG Version: 6.00 Build 0)  -->
<!DOCTYPE svg PUBLIC "-//W3C//DTD SVG 1.1//EN" "http://www.w3.org/Graphics/SVG/1.1/DTD/svg11.dtd">
<svg version="1.1" id="图层_1" xmlns="http://www.w3.org/2000/svg" xmlns:xlink="http://www.w3.org/1999/xlink" x="0px" y="0px"
	 width="2467.23px" height="1200px" viewBox="0 0 2467.23 1200" enable-background="new 0 0 2467.23 1200" xml:space="preserve">
<g>
	<path fill="#FFF051" d="M1049.347,328.647L194.43,859.675c0,0-251.065,148.026-182.6,222.208
		c68.477,74.18,342.38,74.18,473.617,39.933c131.238-34.228,447.654-376.617,473.617-564.921
		C985.037,368.6,1145.429,276.713,1049.347,328.647z"/>
	<path fill="#FFF051" d="M2272.769,859.675l-854.917-531.027c-96.082-51.935,64.31,39.952,90.291,228.247
		c25.973,188.304,342.37,530.693,473.607,564.921c131.247,34.247,405.151,34.247,473.617-39.933
		C2523.853,1007.701,2272.769,859.675,2272.769,859.675z"/>
	<path fill="#FFF051" d="M1441.157,818.089c-2.942-34.706-7.559-69.47-13.148-102.952c-2.771-16.704-5.81-33.082-8.963-48.992
		c-3.698-18.576-7.568-36.484-11.486-53.531c-4.615-20.048-9.298-38.901-13.77-56.063c-5.867-22.485-11.419-42.094-16.11-57.984
		c-8.151-27.645-13.685-43.994-13.685-43.994c-13.157-21.07-26.956-36.646-40.936-47.932c30.357-20.143,49.612-49.918,49.612-83.182
		c0-17.268-5.188-33.598-14.4-48.133c-4.396-6.928-9.737-13.435-15.833-19.465c-1.224-20.85-4.281-47.051-7.932-73.32
		c-0.727-0.057-1.404-0.182-2.131-0.268c13.139-12.012,21.309-28.752,21.309-47.271c0-35.098-29.24-63.727-66.182-65.992
		c18.862-18.729,39.521-42.875,51.142-56.798c1.261,0.373,2.666,0.612,4.156,0.688c6.097,0.268,11.151-2.389,11.324-5.934
		c0.162-3.555-4.664-6.679-10.751-6.947s-11.151,2.398-11.313,5.944c-0.076,1.433,0.697,2.771,1.987,3.889
		c-22.025,14.515-64.233,43.746-80.765,65.025c-7.338,3.174-13.951,7.521-19.685,12.71c-5.733-5.188-12.326-9.536-19.685-12.71
		c-16.531-21.28-58.738-50.511-80.765-65.025c1.29-1.118,2.064-2.456,1.997-3.889c-0.152-3.545-5.227-6.211-11.333-5.944
		c-6.077,0.268-10.902,3.392-10.74,6.947c0.172,3.545,5.246,6.202,11.323,5.934c1.491-0.076,2.896-0.315,4.167-0.688
		c11.609,13.923,32.27,38.07,51.151,56.798c-36.942,2.266-66.183,30.895-66.183,65.992c0,18.52,8.15,35.26,21.29,47.271
		c-0.707,0.086-1.405,0.211-2.131,0.268c-3.65,26.27-6.708,52.471-7.922,73.32c24.95-24.548,63.182-40.688,106.374-42.092v0.22
		c-41.176,2.398-77.459,18.231-101.463,41.872c-6.125,6.03-11.447,12.537-15.853,19.465c-9.192,14.535-14.381,30.865-14.381,48.133
		c0,32.298,18.175,61.29,47.023,81.385c-0.774,0.603-1.558,1.176-2.332,1.797c-13.961,11.285-27.778,26.861-40.937,47.932
		c0,0-5.532,16.35-13.703,44.042c-4.672,15.892-10.215,35.509-16.091,57.983c-4.501,17.182-9.164,36.025-13.779,56.092
		c-3.928,17.047-7.808,34.975-11.496,53.551c-3.163,15.938-6.173,32.316-8.963,49.039c-6.278,37.726-11.371,77.037-14.171,116.082
		c-1.701,23.622-2.532,47.148-2.303,70.178c1.031,110.319,26.756,209.163,103.669,251.839
		c41.729,23.125,76.102,37.362,104.778,45.16v1.338c0.152-0.028,0.296-0.077,0.439-0.114c0.296,0.066,0.602,0.162,0.869,0.238
		v-0.459c0.373-0.104,0.774-0.229,1.146-0.324c0.373,0.096,0.774,0.22,1.147,0.324V1200c0.306-0.076,0.582-0.172,0.869-0.238
		c0.153,0.037,0.296,0.086,0.439,0.114v-1.338c28.695-7.798,63.049-22.035,104.769-45.16
		c80.765-44.807,105.112-151.571,103.679-268.476C1444.234,862.876,1443.05,840.516,1441.157,818.089z"/>
</g>
</svg>
