<?xml version="1.0" encoding="utf-8"?>
<!-- Generator: Adobe Illustrator 16.0.0, SVG Export Plug-In . SVG Version: 6.00 Build 0)  -->
<!DOCTYPE svg PUBLIC "-//W3C//DTD SVG 1.1//EN" "http://www.w3.org/Graphics/SVG/1.1/DTD/svg11.dtd">
<svg version="1.1" id="图层_1" xmlns="http://www.w3.org/2000/svg" xmlns:xlink="http://www.w3.org/1999/xlink" x="0px" y="0px"
	 width="1946.731px" height="1200px" viewBox="0 0 1946.731 1200" enable-background="new 0 0 1946.731 1200" xml:space="preserve">
<path fill="#C7D9F0" d="M1946.731,484.712c0-146.625-167.938-265.488-375.111-265.488c-44.754,0-87.662,5.563-127.475,15.748
	c0.486-5.221,0.803-10.447,0.803-15.748C1444.948,98.151,1317.382,0,1159.978,0C1032.392,0,924.4,64.501,888.093,153.417
	c-35.066-10.908-74.318-17.025-115.791-17.025c-148.209,0-268.327,77.994-268.327,174.163c0,15.515,3.161,30.526,9.017,44.847
	c-136.5,37.305-232.329,124.775-232.329,226.753c0,135.856,170.12,246.007,379.988,246.007c48.875,0,95.55-6.042,138.467-16.914
	c66.422,115.093,188.405,192.293,327.985,192.293c82.086,0,158.037-26.797,220.264-72.203
	c45.107,14.899,97.582,23.478,153.617,23.478c168.182,0,304.457-76.884,304.457-171.706c0-27.001-11.039-52.511-30.713-75.242
	C1878.202,660.604,1946.731,578.36,1946.731,484.712z"/>
<path fill="#A1ABD6" d="M966.404,899.04c0-85.051-97.404-154.01-217.578-154.01c-25.985,0-50.871,3.245-73.947,9.146
	c0.289-3.029,0.457-6.069,0.457-9.146c0-70.207-73.983-127.156-165.291-127.156c-74.012,0-136.657,37.416-157.701,88.994
	c-20.363-6.312-43.113-9.873-67.178-9.873c-85.964,0-155.641,45.238-155.641,101.031c0,8.988,1.838,17.697,5.24,25.994
	C55.569,845.671,0,896.411,0,955.542c0,78.804,98.673,142.709,220.404,142.709c28.344,0,55.438-3.506,80.314-9.8
	C339.253,1155.209,410.001,1200,490.978,1200c47.598,0,91.68-15.562,127.754-41.901c26.172,8.653,56.604,13.623,89.115,13.623
	c97.555,0,176.602-44.596,176.602-99.596c0-15.664-6.387-30.461-17.818-43.645C926.657,1001.06,966.404,953.36,966.404,899.04z"/>
</svg>
