<?xml version="1.0" encoding="utf-8"?>
<!-- Generator: Adobe Illustrator 16.0.0, SVG Export Plug-In . SVG Version: 6.00 Build 0)  -->
<!DOCTYPE svg PUBLIC "-//W3C//DTD SVG 1.1//EN" "http://www.w3.org/Graphics/SVG/1.1/DTD/svg11.dtd">
<svg version="1.1" id="图层_1" xmlns="http://www.w3.org/2000/svg" xmlns:xlink="http://www.w3.org/1999/xlink" x="0px" y="0px"
	 width="1386.978px" height="1200px" viewBox="0 0 1386.978 1200" enable-background="new 0 0 1386.978 1200" xml:space="preserve">
<g>
	<polygon fill="#FFF051" points="839.638,0 575.387,0 443.28,228.862 575.387,457.711 839.638,457.711 971.782,228.862 	"/>
	<polygon fill="#FFF051" points="410.583,227.962 146.333,227.962 14.193,456.825 146.333,685.673 410.583,685.673 542.694,456.825 
			"/>
	<polygon fill="#FFE100" points="822.155,483.722 557.909,483.722 425.797,712.575 557.909,941.423 822.155,941.423 954.3,712.575 	
		"/>
	<polygon fill="#FFF051" points="1233.491,742.271 969.239,742.271 837.114,971.138 969.239,1199.995 1233.491,1199.995 
		1365.634,971.138 	"/>
	<polygon fill="#FFF051" points="396.395,713.011 132.125,713.011 0,941.869 132.125,1170.727 396.395,1170.727 528.514,941.869 	
		"/>
	<polygon fill="#FFF051" points="1254.853,256.544 990.583,256.544 858.458,485.406 990.583,714.273 1254.853,714.273 
		1386.978,485.406 	"/>
</g>
</svg>
