<?xml version="1.0" encoding="utf-8"?>
<!-- Generator: Adobe Illustrator 16.0.0, SVG Export Plug-In . SVG Version: 6.00 Build 0)  -->
<!DOCTYPE svg PUBLIC "-//W3C//DTD SVG 1.1//EN" "http://www.w3.org/Graphics/SVG/1.1/DTD/svg11.dtd">
<svg version="1.1" id="图层_1" xmlns="http://www.w3.org/2000/svg" xmlns:xlink="http://www.w3.org/1999/xlink" x="0px" y="0px"
	 width="1205.98px" height="1200px" viewBox="0 0 1205.98 1200" enable-background="new 0 0 1205.98 1200" xml:space="preserve">
<symbol  id="非洲菊_2" viewBox="-67.059 31.74 46.532 46.301">
	<path fill="#8B9DD0" d="M-59.507,61.4c-4.544,1.116-5.526-0.008-5.526-0.008c0.604-1.005,1.562-1.794,2.689-2.414
		c2.426-0.122,5.246-0.45,7.1-0.694C-56.709,59.225-58.232,60.378-59.507,61.4z"/>
	<path fill="#8B9DD0" d="M-20.706,56.067c0,0-2.646,0.497-5.337,0.619c-0.99-0.813-4.66-1.494-7.586-1.923
		c2.5-0.031,5.498-1.12,7.307-1.893C-24.145,53.49-19.568,54.956-20.706,56.067z"/>
	<path fill="#BEB9DC" d="M-36.752,54.303c0.014-0.103,0.025-0.206,0.032-0.31l0.085-0.063c0.307,0.242,0.65,0.435,1.041,0.563
		c-0.333-0.041-0.635-0.079-0.896-0.108L-36.752,54.303z"/>
	<path fill="#BEB9DC" d="M-26.004,56.962c1.176,0.242,3.389,0.867,1.521,1.92c0,0-2.71,1.457-5.29,1.262
		c-1.862-1.26-3.567-2.28-3.763-2.398C-30.371,57.864-26.816,57.141-26.004,56.962z"/>
	<path fill="#8B9DD0" d="M-35.786,61.298l-0.787-0.796c3.102,2.009,7.812,3.689,9.972,4.403c0.85,0.979,2.594,3.241,0.099,2.738
		c0,0-2.022-0.495-3.444-1.047c-0.281-0.387-0.477-0.644-0.477-0.644L-35.786,61.298z"/>
	<path fill="#BEB9DC" d="M-44.244,74.011c1.29-3.279,1.374-6.975,1.197-9.614l0.177,0.919c0.552,1.532,1.034,2.801,1.456,3.859
		c-0.537,3.333-2.43,13.818-3.824,6.08C-44.671,74.976-44.244,74.011-44.244,74.011z"/>
	<path fill="#8B9DD0" d="M-50.889,72.765c0.434-0.321,2.032-4.377,3.318-7.775l1.086-2.181c-0.408,1.958-0.563,3.813-0.58,5.45
		c-0.24,0.871-0.549,1.92-0.893,2.938c-0.258,0.766-0.539,1.514-0.826,2.158c-0.871,1.953-1.813,2.954-2.473,0.577l-0.133-1.276
		l0.09-0.18C-51.087,72.71-50.889,72.765-50.889,72.765z"/>
	<path fill="#BEB9DC" d="M-52.801,60.334c-0.717,0.726-1.301,1.469-1.793,2.202c-3.092,3.041-7.76,7.35-6.516,4.359
		c0,0,0.395-1.283,1.204-2.438c1.902-0.986,4.301-2.46,6.306-3.74L-52.801,60.334z"/>
	<path fill="#BEB9DC" d="M-60.664,56.36c-0.9,0.37-1.477,0.638-1.477,0.638c-3.864,1.945,4.668,0.681,9.477-0.129
		c-0.79,0.335-1.672,0.832-2.58,1.415c-1.854,0.244-4.674,0.572-7.1,0.694c-3.992,0.2-6.887-0.176-2.574-2.446
		C-63.695,56.577-62.078,56.479-60.664,56.36z"/>
	<path fill="#BEB9DC" d="M-54.053,54.225c0.287,0.008,0.559,0.018,0.813,0.021c-0.371,0.033-0.758,0.086-1.15,0.154L-54.053,54.225z
		"/>
	<path fill="#BEB9DC" d="M-54.053,54.225l-0.338,0.176c-2.231,0.396-4.731,1.327-6.273,1.96c-1.414,0.119-3.031,0.217-4.254,0.172
		c-1.971-0.07-2.904-0.504-0.229-1.801c0,0,2.336-0.603,4.906-1.03C-58.15,54.031-55.811,54.169-54.053,54.225z"/>
	<path fill="#8B9DD0" d="M-54.867,49.399c0.004,0.036,0.01,0.072,0.01,0.111c-1.682-0.378-3.605-0.607-5.305-0.746
		c-4.341-1.584-9.273-3.73-4.709-3.904c0,0,0.262,0.045,0.691,0.126c1.303,0.661,3,1.131,4.133,1.401
		C-58.432,47.447-56.503,48.528-54.867,49.399z"/>
	<path fill="#BEB9DC" d="M-60.047,46.388c-1.133-0.271-2.83-0.74-4.133-1.401c-0.971-0.493-1.719-1.087-1.842-1.779
		c0,0,1.326-0.374,2.619-0.094C-63.424,43.905-61.967,45.126-60.047,46.388z"/>
	<path fill="#BEB9DC" d="M-58.972,40.536c-3.212-0.34-1.29,1.71,1.688,4.002c-0.045,0.008-0.082,0.021-0.127,0.029
		c0,0-8.712-6.996-3.338-5.459c0,0,1.174,0.49,2.444,1.189c0.46,0.457,0.946,0.912,1.411,1.336
		C-58.113,40.956-58.972,40.536-58.972,40.536z"/>
	<path fill="#8B9DD0" d="M-50.423,46.034c-1.823-1.691-4.581-3.354-6.47-4.4c-0.465-0.424-0.951-0.879-1.411-1.336
		c-2.075-2.066-3.542-4.119,0.661-2.643c0,0,2.092,1.555,4.025,3.484c1.086,1.715,2.256,3.469,3.186,4.839
		C-50.43,45.996-50.423,46.017-50.423,46.034z"/>
	<path fill="#BEB9DC" d="M-44.732,45.872c-0.303,0.031-0.598,0.09-0.885,0.156c-0.695-3.312-1.785-5.811-2.83-7.584
		c-0.99-3.426-1.428-6.457,0.379-5.818c0,0,0.316,0.703,0.764,1.791c0.004,3.302,1.725,8.895,2.574,11.455H-44.732z"/>
	<path fill="#8B9DD0" d="M-41.26,46.389c1.955-6.077,2.178-9.372,1.959-11.121c0.939-1.57,3.805-6.013,3.71-1.685
		c0,0-0.269,3.271-1.038,6.075c-2.063,2.538-3.951,5.72-4.553,6.76C-41.207,46.409-41.234,46.399-41.26,46.389z"/>
	<path fill="#8B9DD0" d="M-34.6,43.566c2.359-3.378,3.582-6.751,3.582-6.751c-0.021-0.024-0.043-0.04-0.063-0.064
		c1.811-1.406,5.213-3.622,2.59,1.933c-1.637,1.022-3.838,2.951-5.814,4.821L-34.6,43.566z"/>
	<path fill="#BEB9DC" d="M-25.797,41.595c0,0-2.36,2.742-4.637,3.89c1.854-2.119,3.238-4.296,3.916-5.448
		C-25.426,39.622-24.07,39.369-25.797,41.595z"/>
	<path fill="#B9CFEB" d="M-35.594,54.493c-0.391-0.128-0.734-0.32-1.041-0.563c-0.026-0.021-0.054-0.035-0.078-0.057
		c0.027-0.427,0.027-0.859-0.02-1.297c-0.023-0.234-0.063-0.468-0.107-0.695l9.169-1.702c0.628-0.207,1.202-0.425,1.724-0.651
		c1.02,0.005,2.1,0.04,3.271,0.133c0,0,1.5,0.326-2.023,2.468c0,0-0.64,0.323-1.623,0.742c-1.809,0.772-4.807,1.861-7.307,1.893
		C-34.348,54.658-35.018,54.568-35.594,54.493z"/>
	<path fill="#FFE100" d="M-33.535,57.745c-0.014-0.007-0.025-0.015-0.025-0.015l-3.818-1.192c0.311-0.682,0.522-1.416,0.62-2.187
		c0.085,0.009,0.175,0.022,0.27,0.033c0.261,0.029,0.563,0.067,0.896,0.108c0.576,0.075,1.246,0.165,1.965,0.271
		c2.926,0.429,6.596,1.11,7.586,1.923c0.096,0.078,0.173,0.156,0.215,0.24c0,0-0.064,0.014-0.176,0.035
		C-26.816,57.141-30.371,57.864-33.535,57.745z"/>
	<path fill="#B9CFEB" d="M-37.146,60.113l-1.535-1.333c-0.042-0.045-0.084-0.089-0.122-0.137c0.589-0.607,1.069-1.322,1.425-2.105
		l3.818,1.192c0,0,0.012,0.008,0.025,0.015c0.195,0.118,1.9,1.139,3.763,2.398c3.079,2.077,6.571,4.798,4.327,5.129
		c0,0-0.438-0.129-1.156-0.367c-2.16-0.714-6.87-2.395-9.972-4.403C-36.77,60.375-36.963,60.245-37.146,60.113z"/>
	<path fill="#B9CFEB" d="M-38.821,58.661l0.14,0.119l1.535,1.333l1.36,1.185l5.362,4.655c0,0,0.195,0.257,0.477,0.644
		c1.064,1.463,3.439,4.91,1.846,4.438c0,0-4.808-0.79-7.92-5.626l-3.59-6.053C-39.332,59.144-39.064,58.913-38.821,58.661z"/>
	<path fill="#BEB9DC" d="M-40.871,60.13c0.447-0.214,0.868-0.475,1.26-0.773l3.59,6.053c0,0,4.133,11.507,0.674,7.994
		c0,0-1.795-1.217-2.572-2.921C-37.756,68.927-39.826,63-40.871,60.13z"/>
	<path fill="#B9CFEB" d="M-43.047,64.396c-0.142-2.103-0.449-3.533-0.449-3.533l-0.207-0.052c0.174-0.003,0.347-0.007,0.525-0.026
		c0.713-0.072,1.391-0.257,2.021-0.523c0.106,0.382,0.247,0.903,0.413,1.523c0.705,3.026,1.617,6.668,1.998,8.177
		c0.432,2.083,0.652,3.673,0.336,3.762c0,0-0.248,2.321-3.004-4.549c-0.422-1.059-0.904-2.327-1.456-3.859L-43.047,64.396z"/>
	<path fill="#FFE100" d="M-47.064,68.259c0.018-1.637,0.172-3.492,0.58-5.45c0.154-0.749,0.348-1.508,0.582-2.276
		c0.701,0.207,1.439,0.304,2.199,0.279l0.207,0.052c0,0,0.308,1.431,0.449,3.533c0.177,2.64,0.093,6.335-1.197,9.614
		c0,0-0.427,0.965-0.994,1.244c-0.381,0.188-0.822,0.074-1.244-0.852c0,0-0.256-1.046-0.43-2.745
		c-0.077-0.745-0.139-1.607-0.154-2.573C-47.07,68.818-47.066,68.538-47.064,68.259z"/>
	<path fill="#B9CFEB" d="M-47.307,59.953c0.439,0.239,0.904,0.432,1.389,0.575c-0.223,0.612-0.879,2.415-1.652,4.461
		c-1.286,3.398-2.885,7.454-3.318,7.775c0,0-0.198-0.055-0.41-0.289c-0.496-0.544-1.071-2.063,0.551-6.178
		c0,0,0.262-0.775,0.68-1.791c1.074-1.788,1.975-3.415,2.459-4.311C-47.508,60.102-47.408,60.022-47.307,59.953z"/>
	<path fill="#BEB9DC" d="M-48.934,58.825c0.018-0.01,0.035-0.018,0.053-0.031c0.438,0.421,0.92,0.787,1.443,1.087
		c-0.049,0.091-0.107,0.196-0.172,0.315c-0.484,0.896-1.385,2.522-2.459,4.311c-2.334,3.879-5.477,8.472-6.898,7.761
		c0,0-0.971-1.509,1.229-3.837c0,0,0.012-0.021,0.027-0.053C-53.496,66.396-49.959,60.557-48.934,58.825z"/>
	<path fill="#A3A8D4" d="M-52.35,59.909c1.588-1.031,2.703-1.793,2.703-1.793c0.002-0.067-0.007-0.123-0.007-0.186
		c0.229,0.301,0.479,0.584,0.748,0.845c-0.009,0.019-0.019,0.033-0.028,0.05c-1.025,1.731-4.563,7.571-6.777,9.553
		c-0.506,0.456-0.943,0.711-1.266,0.667c0,0,0.117-3.136,2.383-6.509c0.492-0.733,1.076-1.477,1.793-2.202
		C-52.658,60.192-52.503,60.053-52.35,59.909z"/>
	<path fill="#FFE100" d="M-52.664,56.869c0.873-0.146,1.621-0.274,2.15-0.372c0.236,0.514,0.524,0.993,0.86,1.434
		c0,0.063,0.009,0.118,0.007,0.186c0,0-1.115,0.762-2.703,1.793c-0.392,0.256-0.811,0.526-1.25,0.809
		c-2.005,1.28-4.403,2.754-6.306,3.74c-2.608,1.354-4.274,1.788-2.647-0.479c0,0,1.285-1.164,3.046-2.579
		c1.274-1.022,2.798-2.176,4.263-3.116C-54.336,57.701-53.454,57.204-52.664,56.869z"/>
	<path fill="#B9CFEB" d="M-50.514,56.497c-0.529,0.098-1.277,0.227-2.15,0.372c-4.809,0.81-13.341,2.074-9.477,0.129
		c0,0,0.576-0.268,1.477-0.638c1.542-0.633,4.042-1.563,6.273-1.96c0.393-0.068,0.779-0.121,1.15-0.154
		c0.67,0.016,1.201,0.017,1.527,0.017c0.206,0.027,0.398,0.07,0.58,0.125C-51.024,55.135-50.813,55.843-50.514,56.497z"/>
	<path fill="#BEB9DC" d="M-51.192,52.601c-0.04,0.484-0.04,0.979,0.013,1.481c0.002,0.013,0.004,0.022,0.005,0.031
		c-0.058,0.051-0.106,0.097-0.177,0.148c0,0-0.131,0.001-0.361,0.001c-0.326,0-0.857-0.001-1.527-0.017
		c-0.254-0.004-0.525-0.014-0.813-0.021c-1.758-0.056-4.098-0.193-6.188-0.523c-2.377-0.376-4.426-1-4.9-2.036
		c0,0-3.079-1.889,0.826-1.696c2.958,0.958,9.756,1.915,12.531,2.28C-51.553,52.36-51.354,52.479-51.192,52.601z"/>
	<path fill="#B9CFEB" d="M-54.508,49.591c1.805,0.951,3.164,1.605,3.164,1.605c0.106-0.027,0.193-0.057,0.287-0.087
		c0.041,0.041,0.078,0.083,0.115,0.126c-0.098,0.355-0.17,0.723-0.216,1.097c-0.175-0.024-0.382-0.052-0.626-0.083
		c-2.775-0.365-9.573-1.322-12.531-2.28c-1.556-0.503-2.056-1.007-0.336-1.42c0,0,1.997,0.014,4.488,0.216
		c1.699,0.139,3.623,0.368,5.305,0.746C-54.738,49.533-54.623,49.563-54.508,49.591z"/>
	<path fill="#B9CFEB" d="M-50.224,49.511c-0.276,0.487-0.505,1.004-0.671,1.549c-0.05,0.018-0.108,0.035-0.162,0.05
		c-0.094,0.03-0.181,0.06-0.287,0.087c0,0-1.359-0.654-3.164-1.605c-0.119-0.063-0.236-0.126-0.359-0.191
		c-1.636-0.871-3.564-1.952-5.18-3.012c-1.92-1.262-3.377-2.482-3.355-3.274c0.01-0.358,0.314-0.63,1.037-0.771
		c0,0,2.934,1.262,5.942,2.844c2.124,1.566,4.548,3.149,6.03,4.093C-50.332,49.357-50.272,49.436-50.224,49.511z"/>
	<path fill="#FFE100" d="M-58.972,40.536c0,0,0.858,0.42,2.079,1.098c1.889,1.047,4.646,2.709,6.47,4.4
		c0.026,0.025,0.053,0.047,0.079,0.07c0.539,0.794,0.987,1.444,1.281,1.865c-0.428,0.434-0.797,0.922-1.108,1.45
		c-0.069-0.045-0.146-0.091-0.222-0.141c-1.482-0.943-3.906-2.526-6.03-4.093c-0.292-0.217-0.581-0.434-0.86-0.648
		C-60.262,42.246-62.184,40.196-58.972,40.536z"/>
	<path fill="#BEB9DC" d="M-47.807,46.955c-0.455,0.291-0.877,0.631-1.256,1.015c-0.294-0.421-0.742-1.071-1.281-1.865
		c-0.029-0.041-0.059-0.085-0.088-0.126c-0.93-1.37-2.1-3.124-3.186-4.839c-2.748-4.341-4.922-8.394-1.098-5.08
		c0,0,2.345,2.442,4.305,5.195c1.022,2.258,2.092,4.41,2.594,5.406C-47.811,46.763-47.804,46.86-47.807,46.955z"/>
	<path fill="#B9CFEB" d="M-47.703,46.89c-0.034-0.064-0.073-0.142-0.113-0.229c-0.502-0.996-1.571-3.148-2.594-5.406
		c-2.002-4.409-3.82-9.185-0.842-6.363c0,0,1.35,1.084,2.805,3.553c1.045,1.773,2.135,4.272,2.83,7.584
		C-46.37,46.203-47.068,46.498-47.703,46.89z"/>
	<path fill="#B9CFEB" d="M-43.423,45.431c-0.042,0.146-0.089,0.286-0.14,0.426c-0.385-0.024-0.773-0.026-1.168,0.016
		c-0.85-2.561-2.57-8.153-2.574-11.455c-0.002-1.725,0.463-2.822,1.766-2.539c0,0,1.846,4.141,2.373,8.428
		C-43.459,42.345-43.459,44.284-43.423,45.431z"/>
	<path fill="#A1ABD6" d="M-41.26,46.389c-0.678-0.284-1.396-0.462-2.146-0.524c-0.005-0.128-0.011-0.273-0.018-0.434
		c-0.036-1.146-0.036-3.086,0.257-5.125c0.379-2.653,1.246-5.469,3.159-6.909c0,0,0.517,0.358,0.706,1.871
		C-39.082,37.017-39.305,40.312-41.26,46.389z"/>
	<path fill="#B9CFEB" d="M-34.6,43.566c-0.17,0.242-0.345,0.482-0.523,0.724c-1.729,1.669-3.167,3.16-3.725,3.746
		c-0.668-0.686-1.461-1.238-2.334-1.618c0.602-1.04,2.49-4.222,4.553-6.76c2.047-2.523,4.259-4.399,5.549-2.907
		c0.02,0.024,0.042,0.04,0.063,0.064C-31.018,36.815-32.24,40.188-34.6,43.566z"/>
	<path fill="#FFE100" d="M-37.389,50.181c-0.367-0.803-0.859-1.53-1.459-2.145c0.558-0.586,1.996-2.077,3.725-3.746
		c0.267-0.259,0.539-0.521,0.818-0.785c1.977-1.87,4.178-3.799,5.814-4.821c1.596-0.995,2.658-1.128,2.443,0.518
		c0,0-0.164,0.313-0.471,0.835c-0.678,1.152-2.063,3.329-3.916,5.448c-0.99,1.131-2.105,2.243-3.332,3.168
		c-1.494,0.615-2.777,1.175-3.607,1.547L-37.389,50.181z"/>
	<path fill="#B9CFEB" d="M-36.84,51.882c-0.115-0.592-0.301-1.151-0.539-1.681c0-0.001,0.004-0.002,0.006-0.002
		c0.83-0.372,2.113-0.932,3.607-1.547c5.063-2.084,12.496-4.761,12.514-2.53c0,0-1.057,1.84-4.695,3.406
		c-0.521,0.227-1.096,0.444-1.724,0.651L-36.84,51.882z"/>
	<path fill="#8B9DD0" d="M-41.098,60.239c0.076-0.033,0.15-0.072,0.227-0.109c1.045,2.87,3.115,8.797,2.951,10.353
		c-0.043,0.407-0.237,0.52-0.645,0.192c0,0-0.068-0.271-0.182-0.713c-0.381-1.509-1.293-5.15-1.998-8.177
		C-40.87,61.245-40.989,60.725-41.098,60.239z"/>
	<path fill="#8B9DD0" d="M-36.752,54.303c-0.003,0.017-0.004,0.033-0.007,0.049c-0.098,0.771-0.31,1.505-0.62,2.187
		c-0.355,0.783-0.836,1.498-1.425,2.105c-0.005,0.007-0.011,0.012-0.018,0.018c-0.243,0.252-0.511,0.482-0.79,0.695
		c-0.392,0.299-0.813,0.56-1.26,0.773c-0.076,0.037-0.15,0.076-0.227,0.109c-0.018,0.007-0.039,0.014-0.06,0.022
		c-0.63,0.267-1.308,0.451-2.021,0.523c-0.179,0.02-0.352,0.023-0.525,0.026c-0.76,0.024-1.498-0.072-2.199-0.279
		c-0.004,0-0.01-0.004-0.016-0.004c-0.484-0.144-0.949-0.336-1.389-0.575c-0.045-0.022-0.088-0.048-0.131-0.072
		c-0.523-0.3-1.006-0.666-1.443-1.087c-0.008-0.004-0.016-0.013-0.024-0.019c-0.27-0.261-0.519-0.544-0.748-0.845
		c-0.336-0.44-0.624-0.92-0.86-1.434c-0.299-0.654-0.511-1.362-0.619-2.109c-0.012-0.091-0.031-0.181-0.042-0.274
		c-0.001-0.009-0.003-0.019-0.005-0.031c-0.053-0.502-0.053-0.997-0.013-1.481c0.009-0.09,0.024-0.18,0.035-0.269
		c0.046-0.374,0.118-0.741,0.216-1.097c0.015-0.057,0.031-0.118,0.047-0.176c0.166-0.545,0.395-1.062,0.671-1.549
		c0.017-0.028,0.034-0.061,0.053-0.091c0.312-0.528,0.681-1.017,1.108-1.45c0.379-0.384,0.801-0.724,1.256-1.015
		c0.034-0.023,0.068-0.046,0.104-0.065c0.635-0.392,1.333-0.687,2.086-0.861c0.287-0.066,0.582-0.125,0.885-0.156h0.002
		c0.395-0.042,0.783-0.04,1.168-0.016c0.052,0.003,0.104,0.003,0.157,0.008c0.749,0.063,1.468,0.24,2.146,0.524
		c0.025,0.011,0.053,0.021,0.078,0.029c0.873,0.38,1.666,0.933,2.334,1.618c0.6,0.614,1.092,1.342,1.459,2.145
		c0.001,0.008,0.006,0.012,0.01,0.021c0.238,0.529,0.424,1.089,0.539,1.681c0.045,0.228,0.084,0.461,0.107,0.695
		c0.047,0.438,0.047,0.87,0.02,1.297c-0.002,0.039-0.002,0.079-0.007,0.119C-36.727,54.097-36.738,54.2-36.752,54.303z"/>
	<g>
		<polygon fill="#F5EC94" points="-36.965,53.55 -37.877,52.358 -37.405,50.914 -38.105,49.815 -39.273,49.168 -40.287,48.57 
			-40.82,47.077 -42.11,46.799 -43.182,47.038 -43.923,47.359 -45.218,46.976 -46.289,47.697 -47.803,47.509 -48.534,48.658 
			-49.38,49.564 -49.994,50.644 -50.729,51.728 -50.611,52.792 -50.462,53.55 -50.684,54.882 -50.095,56.046 -49.398,57.068 
			-48.971,58.312 -47.854,58.938 -46.639,59.224 -45.594,59.787 -44.646,59.952 -43.923,59.733 -42.677,59.876 -41.434,59.703 
			-40.053,59.573 -39.424,58.319 -38.512,57.498 -37.489,56.63 -37.158,55.36 -37.557,54.27 		"/>
	</g>
	<path fill="#F6C226" d="M-39.254,53.549c0-2.577-2.09-4.668-4.669-4.668s-4.669,2.091-4.669,4.668c0,2.579,2.09,4.67,4.669,4.67
		S-39.254,56.128-39.254,53.549z"/>
	<path fill="#FFF051" d="M-45.69,55.984c0-0.368-0.299-0.667-0.667-0.667c-0.369,0-0.668,0.299-0.668,0.667
		c0,0.369,0.299,0.668,0.668,0.668C-45.989,56.652-45.69,56.354-45.69,55.984z"/>
	<path fill="#FFF051" d="M-45.251,54.4c0-0.368-0.299-0.667-0.667-0.667c-0.369,0-0.668,0.299-0.668,0.667
		c0,0.369,0.299,0.668,0.668,0.668C-45.55,55.068-45.251,54.769-45.251,54.4z"/>
	<path fill="#FFF051" d="M-42.499,55.86c0-0.368-0.299-0.667-0.667-0.667c-0.369,0-0.668,0.299-0.668,0.667
		c0,0.369,0.299,0.668,0.668,0.668C-42.798,56.528-42.499,56.229-42.499,55.86z"/>
	<path fill="#FFF051" d="M-41.832,53.327c0-0.368-0.299-0.667-0.667-0.667c-0.369,0-0.668,0.299-0.668,0.667
		c0,0.369,0.299,0.668,0.668,0.668C-42.131,53.995-41.832,53.696-41.832,53.327z"/>
	<path fill="#FFF051" d="M-40.515,54.763c0-0.368-0.299-0.667-0.667-0.667c-0.369,0-0.668,0.299-0.668,0.667
		c0,0.369,0.299,0.668,0.668,0.668C-40.813,55.431-40.515,55.132-40.515,54.763z"/>
	<path fill="#FFF051" d="M-43.957,52.659c0-0.368-0.299-0.667-0.667-0.667c-0.369,0-0.668,0.299-0.668,0.667
		c0,0.369,0.299,0.668,0.668,0.668C-44.256,53.327-43.957,53.028-43.957,52.659z"/>
	<path fill="#FFF051" d="M-45.25,50.866c0-0.368-0.299-0.667-0.667-0.667c-0.369,0-0.668,0.299-0.668,0.667
		c0,0.369,0.299,0.668,0.668,0.668C-45.549,51.534-45.25,51.235-45.25,50.866z"/>
	<path fill="#FFF051" d="M-43.29,50.199c0-0.368-0.299-0.667-0.667-0.667c-0.369,0-0.668,0.299-0.668,0.667
		c0,0.369,0.299,0.668,0.668,0.668C-43.589,50.867-43.29,50.568-43.29,50.199z"/>
	<path fill="#FFF051" d="M-40.314,51.534c0-0.368-0.299-0.667-0.667-0.667c-0.369,0-0.668,0.299-0.668,0.667
		c0,0.369,0.299,0.668,0.668,0.668C-40.613,52.202-40.314,51.903-40.314,51.534z"/>
</symbol>
<use xlink:href="#非洲菊_2"  width="46.532" height="46.301" id="XMLID_1_" x="-67.059" y="31.74" transform="matrix(25.9171 0 0 -25.9171 1738.9858 2023.5996)" overflow="visible"/>
</svg>
