<?xml version="1.0" encoding="utf-8"?>
<!-- Generator: Adobe Illustrator 16.0.0, SVG Export Plug-In . SVG Version: 6.00 Build 0)  -->
<!DOCTYPE svg PUBLIC "-//W3C//DTD SVG 1.1//EN" "http://www.w3.org/Graphics/SVG/1.1/DTD/svg11.dtd">
<svg version="1.1" id="图层_1" xmlns="http://www.w3.org/2000/svg" xmlns:xlink="http://www.w3.org/1999/xlink" x="0px" y="0px"
	 width="1992.221px" height="1200px" viewBox="0 0 1992.221 1200" enable-background="new 0 0 1992.221 1200" xml:space="preserve">
<path fill="#D6E2F4" d="M1992.221,579.616c0-175.37-200.857-317.47-448.579-317.47c-53.477,0-104.844,6.632-152.396,18.805
	c0.565-6.218,0.948-12.466,0.948-18.805C1392.195,117.381,1239.679,0,1051.43,0C898.887,0,769.777,77.106,726.329,183.435
	c-41.935-13.011-88.892-20.329-138.427-20.329c-177.247,0-320.881,93.247-320.881,208.235c0,18.583,3.81,36.509,10.795,53.608
	C114.56,469.563,0,574.195,0,696.118c0,162.46,203.415,294.163,454.367,294.163c58.433,0,114.226-7.217,165.573-20.238
	C699.384,1107.682,845.208,1200,1012.114,1200c98.152,0,189.047-32.048,263.377-86.373c53.981,17.856,116.664,28.061,183.717,28.061
	c201.08,0,364.064-91.873,364.064-205.316c0-32.25-13.193-62.794-36.752-89.937C1910.28,789.899,1992.221,691.576,1992.221,579.616z
	"/>
</svg>
