<?xml version="1.0" encoding="utf-8"?>
<!-- Generator: Adobe Illustrator 16.0.0, SVG Export Plug-In . SVG Version: 6.00 Build 0)  -->
<!DOCTYPE svg PUBLIC "-//W3C//DTD SVG 1.1//EN" "http://www.w3.org/Graphics/SVG/1.1/DTD/svg11.dtd">
<svg version="1.1" id="图层_1" xmlns="http://www.w3.org/2000/svg" xmlns:xlink="http://www.w3.org/1999/xlink" x="0px" y="0px"
	 width="1992.221px" height="1200px" viewBox="0 0 1992.221 1200" enable-background="new 0 0 1992.221 1200" xml:space="preserve">
<g>
	<path fill="#B9CFEB" d="M1992.219,579.625c0-175.341-200.834-317.489-448.523-317.489c-53.549,0-104.85,6.667-152.463,18.826
		c0.602-6.223,0.994-12.472,0.994-18.826C1392.227,117.374,1239.659,0,1051.454,0C898.899,0,769.766,77.107,726.311,183.447
		c-41.9-13.035-88.867-20.33-138.441-20.33c-177.219,0-320.85,93.24-320.85,208.247c0,18.539,3.791,36.515,10.793,53.615
		C114.571,469.599,0,574.2,0,696.109c0,162.465,203.418,294.18,454.362,294.18c58.426,0,114.25-7.23,165.57-20.251
		C699.36,1107.688,845.233,1200,1012.116,1200c98.143,0,189.004-32.029,263.391-86.35c53.941,17.845,116.693,28.095,183.709,28.095
		c201.096,0,364.043-91.946,364.043-205.332c0-32.278-13.178-62.778-36.709-89.972
		C1910.249,789.938,1992.219,691.586,1992.219,579.625z M1628.463,797.154c18.826,21.754,29.391,46.149,29.391,71.982
		c0,90.691-130.395,164.269-291.252,164.269c-53.627,0-103.828-8.21-146.945-22.474c-59.537,43.457-132.225,69.067-210.73,69.067
		c-133.506,0-250.213-73.853-313.764-183.957c-41.045,10.407-85.684,16.172-132.434,16.172
		c-200.77,0-363.508-105.372-363.508-235.322c0-97.528,91.664-181.198,222.268-216.902c-5.627-13.675-8.641-28.068-8.641-42.894
		c0-92.011,114.916-166.595,256.678-166.595c39.658,0,77.23,5.831,110.752,16.263c34.756-85.056,138.055-146.763,260.115-146.763
		c150.555,0,272.607,93.894,272.607,209.711c0,5.06-0.313,10.08-0.783,15.061c38.096-9.74,79.146-15.061,121.949-15.061
		c198.168,0,358.84,113.713,358.84,253.978C1793.006,673.271,1727.43,751.959,1628.463,797.154z"/>
</g>
</svg>
