<?xml version="1.0" encoding="utf-8"?>
<!-- Generator: Adobe Illustrator 16.0.0, SVG Export Plug-In . SVG Version: 6.00 Build 0)  -->
<!DOCTYPE svg PUBLIC "-//W3C//DTD SVG 1.1//EN" "http://www.w3.org/Graphics/SVG/1.1/DTD/svg11.dtd">
<svg version="1.1" id="图层_1" xmlns="http://www.w3.org/2000/svg" xmlns:xlink="http://www.w3.org/1999/xlink" x="0px" y="0px"
	 width="639.827px" height="1200px" viewBox="0 0 639.827 1200" enable-background="new 0 0 639.827 1200" xml:space="preserve">
<g>
	<rect x="261.935" y="34.861" fill="#9BCAED" width="115.961" height="160.667"/>
	<g>
		<g>
			<path fill="#4D4D4D" d="M286.258,0C267,0,251.393,15.606,251.393,34.861c0,19.252,15.607,34.863,34.865,34.863
				c19.247,0,34.854-15.611,34.854-34.863C321.112,15.606,305.505,0,286.258,0z M286.258,67.977
				c-18.299,0-33.119-14.83-33.119-33.116c0-18.291,14.82-33.117,33.119-33.117c18.282,0,33.115,14.827,33.115,33.117
				C319.373,53.147,304.54,67.977,286.258,67.977z"/>
			<path fill="#1A1A1A" d="M286.258,1.744c-18.299,0-33.119,14.827-33.119,33.117c0,18.286,14.82,33.116,33.119,33.116
				c18.282,0,33.115-14.83,33.115-33.116C319.373,16.571,304.54,1.744,286.258,1.744z M286.258,66.323
				c-17.383,0-31.467-14.088-31.467-31.462s14.084-31.464,31.467-31.464c17.372,0,31.45,14.09,31.45,31.464
				S303.63,66.323,286.258,66.323z"/>
			<path fill="#4D4D4D" d="M286.258,3.397c-17.383,0-31.467,14.09-31.467,31.464s14.084,31.462,31.467,31.462
				c17.372,0,31.45-14.088,31.45-31.462S303.63,3.397,286.258,3.397z M286.258,64.752c-16.505,0-29.893-13.384-29.893-29.891
				c0-16.508,13.388-29.891,29.893-29.891c16.504,0,29.876,13.383,29.876,29.891C316.134,51.368,302.762,64.752,286.258,64.752z"/>
			<path fill="#858585" d="M286.258,4.971c-16.505,0-29.893,13.383-29.893,29.891c0,16.506,13.388,29.891,29.893,29.891
				c16.504,0,29.876-13.384,29.876-29.891C316.134,18.354,302.762,4.971,286.258,4.971z M286.258,55.733
				c-11.526,0-20.877-9.341-20.877-20.872c0-11.529,9.351-20.87,20.877-20.87c11.525,0,20.867,9.341,20.867,20.87
				C307.125,46.392,297.783,55.733,286.258,55.733z"/>
			<path fill="#1A1A1A" d="M286.258,13.991c-11.526,0-20.877,9.341-20.877,20.87c0,11.531,9.351,20.872,20.877,20.872
				c11.525,0,20.867-9.341,20.867-20.872C307.125,23.332,297.783,13.991,286.258,13.991z"/>
		</g>
		<g>
			<path fill="#4D4D4D" d="M353.566,0c-19.247,0-34.854,15.606-34.854,34.861c0,19.252,15.607,34.863,34.854,34.863
				c19.257,0,34.865-15.611,34.865-34.863C388.432,15.606,372.823,0,353.566,0z M353.566,67.977
				c-18.292,0-33.112-14.83-33.112-33.116c0-18.291,14.82-33.117,33.112-33.117c18.289,0,33.112,14.827,33.112,33.117
				C386.679,53.147,371.855,67.977,353.566,67.977z"/>
			<path fill="#1A1A1A" d="M353.566,1.744c-18.292,0-33.112,14.827-33.112,33.117c0,18.286,14.82,33.116,33.112,33.116
				c18.289,0,33.112-14.83,33.112-33.116C386.679,16.571,371.855,1.744,353.566,1.744z M353.566,66.323
				c-17.376,0-31.467-14.088-31.467-31.462S336.19,3.397,353.566,3.397s31.457,14.09,31.457,31.464S370.942,66.323,353.566,66.323z"
				/>
			<path fill="#4D4D4D" d="M353.566,3.397c-17.376,0-31.467,14.09-31.467,31.464s14.091,31.462,31.467,31.462
				s31.457-14.088,31.457-31.462S370.942,3.397,353.566,3.397z M353.566,64.752c-16.505,0-29.892-13.384-29.892-29.891
				c0-16.508,13.387-29.891,29.892-29.891c16.502,0,29.893,13.383,29.893,29.891C383.459,51.368,370.068,64.752,353.566,64.752z"/>
			<path fill="#858585" d="M353.566,4.971c-16.505,0-29.892,13.383-29.892,29.891c0,16.506,13.387,29.891,29.892,29.891
				c16.502,0,29.893-13.384,29.893-29.891C383.459,18.354,370.068,4.971,353.566,4.971z M353.566,55.733
				c-11.522,0-20.867-9.341-20.867-20.872c0-11.529,9.345-20.87,20.867-20.87c11.526,0,20.867,9.341,20.867,20.87
				C374.434,46.392,365.093,55.733,353.566,55.733z"/>
			<path fill="#1A1A1A" d="M353.566,13.991c-11.522,0-20.867,9.341-20.867,20.87c0,11.531,9.345,20.872,20.867,20.872
				c11.526,0,20.867-9.341,20.867-20.872C374.434,23.332,365.093,13.991,353.566,13.991z"/>
		</g>
		<g>
			<path fill="#4D4D4D" d="M322.1,100.339c-19.247,0-34.854,15.607-34.854,34.861c0,19.25,15.607,34.861,34.854,34.861
				c19.257,0,34.864-15.611,34.864-34.861C356.964,115.947,341.356,100.339,322.1,100.339z M322.1,168.316
				c-18.282,0-33.115-14.828-33.115-33.116c0-18.289,14.833-33.117,33.115-33.117c18.289,0,33.112,14.828,33.112,33.117
				C355.212,153.488,340.389,168.316,322.1,168.316z"/>
			<path fill="#1A1A1A" d="M322.1,102.083c-18.282,0-33.115,14.828-33.115,33.117c0,18.288,14.833,33.116,33.115,33.116
				c18.289,0,33.112-14.828,33.112-33.116C355.212,116.912,340.389,102.083,322.1,102.083z M322.1,166.663
				c-17.366,0-31.46-14.088-31.46-31.462c0-17.376,14.094-31.463,31.46-31.463c17.373,0,31.457,14.087,31.457,31.463
				C353.557,152.575,339.473,166.663,322.1,166.663z"/>
			<path fill="#4D4D4D" d="M322.1,103.737c-17.366,0-31.46,14.087-31.46,31.463c0,17.374,14.094,31.462,31.46,31.462
				c17.373,0,31.457-14.088,31.457-31.462C353.557,117.825,339.473,103.737,322.1,103.737z M322.1,165.088
				c-16.508,0-29.896-13.379-29.896-29.887s13.388-29.891,29.896-29.891c16.502,0,29.893,13.383,29.893,29.891
				S338.602,165.088,322.1,165.088z"/>
			<path fill="#858585" d="M322.1,105.31c-16.508,0-29.896,13.383-29.896,29.891s13.388,29.887,29.896,29.887
				c16.502,0,29.893-13.379,29.893-29.887S338.602,105.31,322.1,105.31z M322.1,156.076c-11.529,0-20.867-9.345-20.867-20.875
				c0-11.529,9.338-20.874,20.867-20.874c11.522,0,20.874,9.345,20.874,20.874C342.974,146.731,333.622,156.076,322.1,156.076z"/>
			<path fill="#1A1A1A" d="M322.1,114.327c-11.529,0-20.867,9.345-20.867,20.874c0,11.531,9.338,20.875,20.867,20.875
				c11.522,0,20.874-9.345,20.874-20.875C342.974,123.672,333.622,114.327,322.1,114.327z"/>
		</g>
	</g>
	<rect x="117.756" y="236.303" fill="#FDE3B3" width="404.313" height="289.028"/>
	<g>
		<path fill="#3E3A39" d="M277.581,288.284c0,6.374-5.169,11.541-11.555,11.541c-6.37,0-11.542-5.167-11.542-11.541
			c0-6.383,5.172-11.554,11.542-11.554C272.412,276.73,277.581,281.901,277.581,288.284z"/>
		<path fill="#3E3A39" d="M276.423,288.284c0,5.731-4.653,10.387-10.396,10.387c-5.737,0-10.391-4.655-10.391-10.387
			c0-5.74,4.653-10.398,10.391-10.398C271.77,277.886,276.423,282.544,276.423,288.284z"/>
		<path fill="#3E3A39" d="M304.521,288.284c0,6.374-5.172,11.541-11.548,11.541c-6.38,0-11.542-5.167-11.542-11.541
			c0-6.383,5.162-11.554,11.542-11.554C299.349,276.73,304.521,281.901,304.521,288.284z"/>
		<path fill="#3E3A39" d="M303.362,288.284c0,5.731-4.653,10.387-10.39,10.387c-5.737,0-10.394-4.655-10.394-10.387
			c0-5.74,4.656-10.398,10.394-10.398C298.709,277.886,303.362,282.544,303.362,288.284z"/>
		<path fill="#3E3A39" d="M331.47,288.284c0,6.374-5.175,11.541-11.555,11.541c-6.376,0-11.548-5.167-11.548-11.541
			c0-6.383,5.172-11.554,11.548-11.554C326.295,276.73,331.47,281.901,331.47,288.284z"/>
		<path fill="#3E3A39" d="M330.306,288.284c0,5.731-4.663,10.387-10.391,10.387c-5.737,0-10.396-4.655-10.396-10.387
			c0-5.74,4.659-10.398,10.396-10.398C325.643,277.886,330.306,282.544,330.306,288.284z"/>
		<path fill="#3E3A39" d="M358.403,288.284c0,6.374-5.172,11.541-11.542,11.541c-6.379,0-11.548-5.167-11.548-11.541
			c0-6.383,5.169-11.554,11.548-11.554C353.231,276.73,358.403,281.901,358.403,288.284z"/>
		<path fill="#3E3A39" d="M357.252,288.284c0,5.731-4.653,10.387-10.391,10.387c-5.743,0-10.396-4.655-10.396-10.387
			c0-5.74,4.653-10.398,10.396-10.398C352.599,277.886,357.252,282.544,357.252,288.284z"/>
		<path fill="#3E3A39" d="M385.34,288.284c0,6.374-5.162,11.541-11.542,11.541c-6.376,0-11.548-5.167-11.548-11.541
			c0-6.383,5.172-11.554,11.548-11.554C380.178,276.73,385.34,281.901,385.34,288.284z"/>
		<path fill="#3E3A39" d="M384.197,288.284c0,5.731-4.662,10.387-10.399,10.387s-10.377-4.655-10.377-10.387
			c0-5.74,4.64-10.398,10.377-10.398S384.197,282.544,384.197,288.284z"/>
		<path fill="#3E3A39" d="M277.581,315.224c0,6.381-5.169,11.545-11.555,11.545c-6.37,0-11.542-5.164-11.542-11.545
			c0-6.374,5.172-11.544,11.542-11.544C272.412,303.68,277.581,308.85,277.581,315.224z"/>
		<path fill="#3E3A39" d="M276.423,315.224c0,5.735-4.653,10.39-10.396,10.39c-5.737,0-10.391-4.654-10.391-10.39
			c0-5.742,4.653-10.395,10.391-10.395C271.77,304.829,276.423,309.481,276.423,315.224z"/>
		<path fill="#3E3A39" d="M304.521,315.224c0,6.381-5.172,11.545-11.548,11.545c-6.38,0-11.542-5.164-11.542-11.545
			c0-6.374,5.162-11.544,11.542-11.544C299.349,303.68,304.521,308.85,304.521,315.224z"/>
		<path fill="#3E3A39" d="M303.362,315.224c0,5.735-4.653,10.39-10.39,10.39c-5.737,0-10.394-4.654-10.394-10.39
			c0-5.742,4.656-10.395,10.394-10.395C298.709,304.829,303.362,309.481,303.362,315.224z"/>
		<path fill="#3E3A39" d="M331.47,315.224c0,6.381-5.175,11.545-11.555,11.545c-6.376,0-11.548-5.164-11.548-11.545
			c0-6.374,5.172-11.544,11.548-11.544C326.295,303.68,331.47,308.85,331.47,315.224z"/>
		<path fill="#3E3A39" d="M330.306,315.224c0,5.735-4.663,10.39-10.391,10.39c-5.737,0-10.396-4.654-10.396-10.39
			c0-5.742,4.659-10.395,10.396-10.395C325.643,304.829,330.306,309.481,330.306,315.224z"/>
		<path fill="#3E3A39" d="M358.403,315.224c0,6.381-5.172,11.545-11.542,11.545c-6.379,0-11.548-5.164-11.548-11.545
			c0-6.374,5.169-11.544,11.548-11.544C353.231,303.68,358.403,308.85,358.403,315.224z"/>
		<path fill="#3E3A39" d="M357.252,315.224c0,5.735-4.653,10.39-10.391,10.39c-5.743,0-10.396-4.654-10.396-10.39
			c0-5.742,4.653-10.395,10.396-10.395C352.599,304.829,357.252,309.481,357.252,315.224z"/>
		<path fill="#3E3A39" d="M385.34,315.224c0,6.381-5.162,11.545-11.542,11.545c-6.376,0-11.548-5.164-11.548-11.545
			c0-6.374,5.172-11.544,11.548-11.544C380.178,303.68,385.34,308.85,385.34,315.224z"/>
		<path fill="#3E3A39" d="M384.197,315.224c0,5.735-4.662,10.39-10.399,10.39s-10.377-4.654-10.377-10.39
			c0-5.742,4.64-10.395,10.377-10.395S384.197,309.481,384.197,315.224z"/>
		<path fill="#3E3A39" d="M277.581,342.165c0,6.378-5.169,11.552-11.555,11.552c-6.37,0-11.542-5.174-11.542-11.552
			c0-6.379,5.172-11.547,11.542-11.547C272.412,330.618,277.581,335.786,277.581,342.165z"/>
		<path fill="#3E3A39" d="M276.423,342.165c0,5.74-4.653,10.394-10.396,10.394c-5.737,0-10.391-4.653-10.391-10.394
			c0-5.738,4.653-10.395,10.391-10.395C271.77,331.771,276.423,336.427,276.423,342.165z"/>
		<path fill="#3E3A39" d="M304.521,342.165c0,6.378-5.172,11.552-11.548,11.552c-6.38,0-11.542-5.174-11.542-11.552
			c0-6.379,5.162-11.547,11.542-11.547C299.349,330.618,304.521,335.786,304.521,342.165z"/>
		<path fill="#3E3A39" d="M303.362,342.165c0,5.74-4.653,10.394-10.39,10.394c-5.737,0-10.394-4.653-10.394-10.394
			c0-5.738,4.656-10.395,10.394-10.395C298.709,331.771,303.362,336.427,303.362,342.165z"/>
		<path fill="#3E3A39" d="M331.47,342.165c0,6.378-5.175,11.552-11.555,11.552c-6.376,0-11.548-5.174-11.548-11.552
			c0-6.379,5.172-11.547,11.548-11.547C326.295,330.618,331.47,335.786,331.47,342.165z"/>
		<path fill="#3E3A39" d="M330.306,342.165c0,5.74-4.663,10.394-10.391,10.394c-5.737,0-10.396-4.653-10.396-10.394
			c0-5.738,4.659-10.395,10.396-10.395C325.643,331.771,330.306,336.427,330.306,342.165z"/>
		<path fill="#3E3A39" d="M358.403,342.165c0,6.378-5.172,11.552-11.542,11.552c-6.379,0-11.548-5.174-11.548-11.552
			c0-6.379,5.169-11.547,11.548-11.547C353.231,330.618,358.403,335.786,358.403,342.165z"/>
		<path fill="#3E3A39" d="M357.252,342.165c0,5.74-4.653,10.394-10.391,10.394c-5.743,0-10.396-4.653-10.396-10.394
			c0-5.738,4.653-10.395,10.396-10.395C352.599,331.771,357.252,336.427,357.252,342.165z"/>
		<path fill="#3E3A39" d="M385.34,342.165c0,6.378-5.162,11.552-11.542,11.552c-6.376,0-11.548-5.174-11.548-11.552
			c0-6.379,5.172-11.547,11.548-11.547C380.178,330.618,385.34,335.786,385.34,342.165z"/>
		<path fill="#3E3A39" d="M384.197,342.165c0,5.74-4.662,10.394-10.399,10.394s-10.377-4.653-10.377-10.394
			c0-5.738,4.64-10.395,10.377-10.395S384.197,336.427,384.197,342.165z"/>
		<path fill="#3E3A39" d="M277.581,369.109c0,6.376-5.169,11.546-11.555,11.546c-6.37,0-11.542-5.17-11.542-11.546
			c0-6.377,5.172-11.545,11.542-11.545C272.412,357.564,277.581,362.732,277.581,369.109z"/>
		<path fill="#3E3A39" d="M276.423,369.109c0,5.737-4.653,10.391-10.396,10.391c-5.737,0-10.391-4.653-10.391-10.391
			c0-5.74,4.653-10.393,10.391-10.393C271.77,358.717,276.423,363.369,276.423,369.109z"/>
		<path fill="#3E3A39" d="M304.521,369.109c0,6.376-5.172,11.546-11.548,11.546c-6.38,0-11.542-5.17-11.542-11.546
			c0-6.377,5.162-11.545,11.542-11.545C299.349,357.564,304.521,362.732,304.521,369.109z"/>
		<path fill="#3E3A39" d="M303.362,369.109c0,5.737-4.653,10.391-10.39,10.391c-5.737,0-10.394-4.653-10.394-10.391
			c0-5.74,4.656-10.393,10.394-10.393C298.709,358.717,303.362,363.369,303.362,369.109z"/>
		<path fill="#3E3A39" d="M331.47,369.109c0,6.376-5.175,11.546-11.555,11.546c-6.376,0-11.548-5.17-11.548-11.546
			c0-6.377,5.172-11.545,11.548-11.545C326.295,357.564,331.47,362.732,331.47,369.109z"/>
		<path fill="#3E3A39" d="M330.306,369.109c0,5.737-4.663,10.391-10.391,10.391c-5.737,0-10.396-4.653-10.396-10.391
			c0-5.74,4.659-10.393,10.396-10.393C325.643,358.717,330.306,363.369,330.306,369.109z"/>
		<path fill="#3E3A39" d="M358.403,369.109c0,6.376-5.172,11.546-11.542,11.546c-6.379,0-11.548-5.17-11.548-11.546
			c0-6.377,5.169-11.545,11.548-11.545C353.231,357.564,358.403,362.732,358.403,369.109z"/>
		<path fill="#3E3A39" d="M357.252,369.109c0,5.737-4.653,10.391-10.391,10.391c-5.743,0-10.396-4.653-10.396-10.391
			c0-5.74,4.653-10.393,10.396-10.393C352.599,358.717,357.252,363.369,357.252,369.109z"/>
		<path fill="#3E3A39" d="M385.34,369.109c0,6.376-5.162,11.546-11.542,11.546c-6.376,0-11.548-5.17-11.548-11.546
			c0-6.377,5.172-11.545,11.548-11.545C380.178,357.564,385.34,362.732,385.34,369.109z"/>
		<path fill="#3E3A39" d="M384.197,369.109c0,5.737-4.662,10.391-10.399,10.391s-10.377-4.653-10.377-10.391
			c0-5.74,4.64-10.393,10.377-10.393S384.197,363.369,384.197,369.109z"/>
		<path fill="#3E3A39" d="M277.581,396.051c0,6.38-5.169,11.547-11.555,11.547c-6.37,0-11.542-5.167-11.542-11.547
			c0-6.377,5.172-11.545,11.542-11.545C272.412,384.506,277.581,389.674,277.581,396.051z"/>
		<path fill="#3E3A39" d="M276.423,396.051c0,5.739-4.653,10.394-10.396,10.394c-5.737,0-10.391-4.654-10.391-10.394
			c0-5.738,4.653-10.388,10.391-10.388C271.77,385.663,276.423,390.313,276.423,396.051z"/>
		<path fill="#3E3A39" d="M304.521,396.051c0,6.38-5.172,11.547-11.548,11.547c-6.38,0-11.542-5.167-11.542-11.547
			c0-6.377,5.162-11.545,11.542-11.545C299.349,384.506,304.521,389.674,304.521,396.051z"/>
		<path fill="#3E3A39" d="M303.362,396.051c0,5.739-4.653,10.394-10.39,10.394c-5.737,0-10.394-4.654-10.394-10.394
			c0-5.738,4.656-10.388,10.394-10.388C298.709,385.663,303.362,390.313,303.362,396.051z"/>
		<path fill="#3E3A39" d="M331.47,396.051c0,6.38-5.175,11.547-11.555,11.547c-6.376,0-11.548-5.167-11.548-11.547
			c0-6.377,5.172-11.545,11.548-11.545C326.295,384.506,331.47,389.674,331.47,396.051z"/>
		<path fill="#3E3A39" d="M330.306,396.051c0,5.739-4.663,10.394-10.391,10.394c-5.737,0-10.396-4.654-10.396-10.394
			c0-5.738,4.659-10.388,10.396-10.388C325.643,385.663,330.306,390.313,330.306,396.051z"/>
		<path fill="#3E3A39" d="M358.403,396.051c0,6.38-5.172,11.547-11.542,11.547c-6.379,0-11.548-5.167-11.548-11.547
			c0-6.377,5.169-11.545,11.548-11.545C353.231,384.506,358.403,389.674,358.403,396.051z"/>
		<path fill="#3E3A39" d="M357.252,396.051c0,5.739-4.653,10.394-10.391,10.394c-5.743,0-10.396-4.654-10.396-10.394
			c0-5.738,4.653-10.388,10.396-10.388C352.599,385.663,357.252,390.313,357.252,396.051z"/>
		<path fill="#3E3A39" d="M385.34,396.051c0,6.38-5.162,11.547-11.542,11.547c-6.376,0-11.548-5.167-11.548-11.547
			c0-6.377,5.172-11.545,11.548-11.545C380.178,384.506,385.34,389.674,385.34,396.051z"/>
		<path fill="#3E3A39" d="M384.197,396.051c0,5.739-4.662,10.394-10.399,10.394s-10.377-4.654-10.377-10.394
			c0-5.738,4.64-10.388,10.377-10.388S384.197,390.313,384.197,396.051z"/>
		<path fill="#3E3A39" d="M277.581,422.987c0,6.38-5.169,11.557-11.555,11.557c-6.37,0-11.542-5.177-11.542-11.557
			c0-6.369,5.172-11.54,11.542-11.54C272.412,411.447,277.581,416.618,277.581,422.987z"/>
		<path fill="#3E3A39" d="M276.423,422.987c0,5.747-4.653,10.4-10.396,10.4c-5.737,0-10.391-4.653-10.391-10.4
			c0-5.735,4.653-10.383,10.391-10.383C271.77,412.604,276.423,417.252,276.423,422.987z"/>
		<path fill="#3E3A39" d="M304.521,422.987c0,6.38-5.172,11.557-11.548,11.557c-6.38,0-11.542-5.177-11.542-11.557
			c0-6.369,5.162-11.54,11.542-11.54C299.349,411.447,304.521,416.618,304.521,422.987z"/>
		<path fill="#3E3A39" d="M303.362,422.987c0,5.747-4.653,10.4-10.39,10.4c-5.737,0-10.394-4.653-10.394-10.4
			c0-5.735,4.656-10.383,10.394-10.383C298.709,412.604,303.362,417.252,303.362,422.987z"/>
		<path fill="#3E3A39" d="M331.47,422.987c0,6.38-5.175,11.557-11.555,11.557c-6.376,0-11.548-5.177-11.548-11.557
			c0-6.369,5.172-11.54,11.548-11.54C326.295,411.447,331.47,416.618,331.47,422.987z"/>
		<path fill="#3E3A39" d="M330.306,422.987c0,5.747-4.663,10.4-10.391,10.4c-5.737,0-10.396-4.653-10.396-10.4
			c0-5.735,4.659-10.383,10.396-10.383C325.643,412.604,330.306,417.252,330.306,422.987z"/>
		<path fill="#3E3A39" d="M358.403,422.987c0,6.38-5.172,11.557-11.542,11.557c-6.379,0-11.548-5.177-11.548-11.557
			c0-6.369,5.169-11.54,11.548-11.54C353.231,411.447,358.403,416.618,358.403,422.987z"/>
		<path fill="#3E3A39" d="M357.252,422.987c0,5.747-4.653,10.4-10.391,10.4c-5.743,0-10.396-4.653-10.396-10.4
			c0-5.735,4.653-10.383,10.396-10.383C352.599,412.604,357.252,417.252,357.252,422.987z"/>
		<path fill="#3E3A39" d="M385.34,422.987c0,6.38-5.162,11.557-11.542,11.557c-6.376,0-11.548-5.177-11.548-11.557
			c0-6.369,5.172-11.54,11.548-11.54C380.178,411.447,385.34,416.618,385.34,422.987z"/>
		<path fill="#3E3A39" d="M384.197,422.987c0,5.747-4.662,10.4-10.399,10.4s-10.377-4.653-10.377-10.4
			c0-5.735,4.64-10.383,10.377-10.383S384.197,417.252,384.197,422.987z"/>
		<path fill="#3E3A39" d="M277.581,449.933c0,6.382-5.169,11.55-11.555,11.55c-6.37,0-11.542-5.168-11.542-11.55
			c0-6.375,5.172-11.542,11.542-11.542C272.412,438.391,277.581,443.558,277.581,449.933z"/>
		<path fill="#3E3A39" d="M276.423,449.933c0,5.745-4.653,10.395-10.396,10.395c-5.737,0-10.391-4.649-10.391-10.395
			c0-5.732,4.653-10.387,10.391-10.387C271.77,439.546,276.423,444.2,276.423,449.933z"/>
		<path fill="#3E3A39" d="M304.521,449.933c0,6.382-5.172,11.55-11.548,11.55c-6.38,0-11.542-5.168-11.542-11.55
			c0-6.375,5.162-11.542,11.542-11.542C299.349,438.391,304.521,443.558,304.521,449.933z"/>
		<path fill="#3E3A39" d="M303.362,449.933c0,5.745-4.653,10.395-10.39,10.395c-5.737,0-10.394-4.649-10.394-10.395
			c0-5.732,4.656-10.387,10.394-10.387C298.709,439.546,303.362,444.2,303.362,449.933z"/>
		<path fill="#3E3A39" d="M331.47,449.933c0,6.382-5.175,11.55-11.555,11.55c-6.376,0-11.548-5.168-11.548-11.55
			c0-6.375,5.172-11.542,11.548-11.542C326.295,438.391,331.47,443.558,331.47,449.933z"/>
		<path fill="#3E3A39" d="M330.306,449.933c0,5.745-4.663,10.395-10.391,10.395c-5.737,0-10.396-4.649-10.396-10.395
			c0-5.732,4.659-10.387,10.396-10.387C325.643,439.546,330.306,444.2,330.306,449.933z"/>
		<path fill="#3E3A39" d="M358.403,449.933c0,6.382-5.172,11.55-11.542,11.55c-6.379,0-11.548-5.168-11.548-11.55
			c0-6.375,5.169-11.542,11.548-11.542C353.231,438.391,358.403,443.558,358.403,449.933z"/>
		<path fill="#3E3A39" d="M357.252,449.933c0,5.745-4.653,10.395-10.391,10.395c-5.743,0-10.396-4.649-10.396-10.395
			c0-5.732,4.653-10.387,10.396-10.387C352.599,439.546,357.252,444.2,357.252,449.933z"/>
		<path fill="#3E3A39" d="M385.34,449.933c0,6.382-5.162,11.55-11.542,11.55c-6.376,0-11.548-5.168-11.548-11.55
			c0-6.375,5.172-11.542,11.548-11.542C380.178,438.391,385.34,443.558,385.34,449.933z"/>
		<path fill="#3E3A39" d="M384.197,449.933c0,5.745-4.662,10.395-10.399,10.395s-10.377-4.649-10.377-10.395
			c0-5.732,4.64-10.387,10.377-10.387S384.197,444.2,384.197,449.933z"/>
	</g>
	<rect x="282.802" y="195.529" fill="#3E3A39" width="74.221" height="40.556"/>
	<rect x="235.005" y="525.331" fill="none" width="169.814" height="12.945"/>
	<rect x="235.005" y="525.7" fill="#4D4D4D" width="169.814" height="23.569"/>
	<rect x="235.005" y="549.628" fill="#1A1A1A" width="169.814" height="7.51"/>
	<rect x="235.005" y="549.27" fill="#1A1A1A" width="169.814" height="0.358"/>
	<rect x="235.005" y="558.503" fill="#4D4D4D" width="169.814" height="22.205"/>
	<rect x="235.005" y="557.138" fill="#4D4D4D" width="169.814" height="1.365"/>
	<rect x="235.005" y="581.065" fill="#1A1A1A" width="169.814" height="7.512"/>
	<rect x="235.005" y="580.708" fill="#1A1A1A" width="169.814" height="0.357"/>
	<rect x="235.005" y="589.938" fill="#4D4D4D" width="169.814" height="22.21"/>
	<rect x="235.005" y="588.577" fill="#4D4D4D" width="169.814" height="1.36"/>
	<rect x="235.005" y="612.505" fill="#1A1A1A" width="169.814" height="7.509"/>
	<rect x="235.005" y="612.147" fill="#1A1A1A" width="169.814" height="0.357"/>
	<rect x="235.005" y="621.377" fill="#4D4D4D" width="169.814" height="22.206"/>
	<rect x="235.005" y="620.014" fill="#4D4D4D" width="169.814" height="1.363"/>
	<rect x="235.005" y="643.941" fill="#1A1A1A" width="169.814" height="8.875"/>
	<rect x="235.005" y="643.583" fill="#1A1A1A" width="169.814" height="0.358"/>
	<g>
		<path fill="#3E3A39" d="M160.097,264.968c0,8.079-6.547,14.623-14.627,14.623c-8.076,0-14.623-6.544-14.623-14.623
			c0-8.078,6.547-14.632,14.623-14.632C153.55,250.336,160.097,256.89,160.097,264.968z"/>
		<path fill="#3E3A39" d="M157.173,264.968c0,6.463-5.24,11.7-11.703,11.7c-6.47,0-11.703-5.237-11.703-11.7
			c0-6.462,5.233-11.705,11.703-11.705C151.933,253.263,157.173,258.506,157.173,264.968z"/>
		<g>
			<rect x="136.077" y="263.258" fill="#727171" width="18.789" height="3.42"/>
			<rect x="143.76" y="255.569" fill="#727171" width="3.414" height="18.796"/>
		</g>
		<path fill="#3E3A39" d="M508.987,264.968c0,8.079-6.557,14.623-14.633,14.623c-8.083,0-14.627-6.544-14.627-14.623
			c0-8.078,6.544-14.632,14.627-14.632C502.431,250.336,508.987,256.89,508.987,264.968z"/>
		<path fill="#3E3A39" d="M506.064,264.968c0,6.463-5.254,11.7-11.71,11.7c-6.463,0-11.697-5.237-11.697-11.7
			c0-6.462,5.234-11.705,11.697-11.705C500.811,253.263,506.064,258.506,506.064,264.968z"/>
		<g>
			<rect x="484.952" y="263.258" fill="#727171" width="18.799" height="3.42"/>
			<rect x="492.647" y="255.569" fill="#727171" width="3.417" height="18.796"/>
		</g>
	</g>
	<g>
		<path fill="#3E3A39" d="M160.097,496.863c0,8.079-6.547,14.626-14.627,14.626c-8.076,0-14.623-6.547-14.623-14.626
			c0-8.08,6.547-14.627,14.623-14.627C153.55,482.236,160.097,488.783,160.097,496.863z"/>
		<path fill="#3E3A39" d="M157.173,496.863c0,6.465-5.24,11.7-11.703,11.7c-6.47,0-11.703-5.235-11.703-11.7
			c0-6.463,5.233-11.705,11.703-11.705C151.933,485.158,157.173,490.4,157.173,496.863z"/>
		<g>
			<rect x="136.077" y="495.153" fill="#727171" width="18.789" height="3.42"/>
			<rect x="143.76" y="487.466" fill="#727171" width="3.414" height="18.792"/>
		</g>
		<path fill="#3E3A39" d="M508.987,496.863c0,8.079-6.557,14.626-14.633,14.626c-8.083,0-14.627-6.547-14.627-14.626
			c0-8.08,6.544-14.627,14.627-14.627C502.431,482.236,508.987,488.783,508.987,496.863z"/>
		<path fill="#3E3A39" d="M506.064,496.863c0,6.465-5.254,11.7-11.71,11.7c-6.463,0-11.697-5.235-11.697-11.7
			c0-6.463,5.234-11.705,11.697-11.705C500.811,485.158,506.064,490.4,506.064,496.863z"/>
		<g>
			<rect x="484.952" y="495.153" fill="#727171" width="18.799" height="3.42"/>
			<rect x="492.647" y="487.466" fill="#727171" width="3.417" height="18.792"/>
		</g>
	</g>
	<g>
		<g>
			<rect x="89.596" y="293.491" fill="#4D4D4D" width="10.861" height="101.768"/>
			<rect x="102.696" y="305.832" fill="#1A1A1A" width="15.06" height="77.09"/>
			<rect x="80.174" y="304.564" fill="#1A1A1A" width="8.332" height="79.619"/>
			<path fill="#FFF67F" d="M46.377,246.558c-18.221,0-33.003,14.769-33.003,32.995v558.385h66V279.553
				C79.374,261.326,64.602,246.558,46.377,246.558z"/>
			<rect x="25.939" y="837.938" fill="#3E3A39" width="40.873" height="20.435"/>
			<polygon fill="#D5D5D6" points="36.152,858.372 36.152,881.946 0,881.946 0,900.813 0,964.215 18.867,964.215 18.867,900.813 
				56.587,900.813 56.587,881.946 56.587,858.372 			"/>
		</g>
		<g>
			<rect x="539.363" y="293.491" fill="#4D4D4D" width="10.865" height="101.768"/>
			<rect x="522.068" y="305.832" fill="#1A1A1A" width="15.06" height="77.09"/>
			<rect x="551.328" y="304.564" fill="#1A1A1A" width="8.318" height="79.619"/>
			<path fill="#FFF67F" d="M593.44,246.558c18.233,0,33.009,14.769,33.009,32.995v558.385h-66.006V279.553
				C560.443,261.326,575.222,246.558,593.44,246.558z"/>
			<rect x="573.006" y="837.938" fill="#3E3A39" width="40.869" height="20.435"/>
			<polygon fill="#D5D5D6" points="603.669,858.372 603.669,881.946 639.827,881.946 639.827,900.813 639.827,964.215 
				620.957,964.215 620.957,900.813 583.234,900.813 583.234,881.946 583.234,858.372 			"/>
		</g>
	</g>
	<g>
		<g>
			<rect x="183.083" y="601.042" fill="#F5B090" width="52.47" height="398.786"/>
			<rect x="183.083" y="1002.7" fill="#727171" width="52.47" height="43.111"/>
			<rect x="183.083" y="1048.684" fill="#1A1A1A" width="52.47" height="43.115"/>
			<rect x="183.083" y="1094.671" fill="#727171" width="52.47" height="43.111"/>
			<rect x="157.957" y="1140.654" fill="#FDE3B3" width="102.729" height="59.346"/>
		</g>
		<g>
			<rect x="404.265" y="601.042" fill="#F5B090" width="52.473" height="398.786"/>
			<rect x="404.265" y="1002.7" fill="#727171" width="52.473" height="43.111"/>
			<rect x="404.265" y="1048.684" fill="#1A1A1A" width="52.473" height="43.115"/>
			<rect x="404.265" y="1094.671" fill="#727171" width="52.473" height="43.111"/>
			<rect x="379.132" y="1140.654" fill="#FDE3B3" width="102.741" height="59.346"/>
		</g>
	</g>
</g>
</svg>
